<?xml version="1.0" encoding="utf-8"?>
<!-- Generator: Adobe Illustrator 16.0.3, SVG Export Plug-In . SVG Version: 6.00 Build 0)  -->
<!DOCTYPE svg PUBLIC "-//W3C//DTD SVG 1.1//EN" "http://www.w3.org/Graphics/SVG/1.1/DTD/svg11.dtd">
<svg version="1.1" id="Layer_1" xmlns="http://www.w3.org/2000/svg" xmlns:xlink="http://www.w3.org/1999/xlink" x="0px" y="0px"
	 width="864px" height="432px" viewBox="-216 -108 864 432" enable-background="new -216 -108 864 432" xml:space="preserve">
<g>
	<g>
		<g>
			<defs>
				<rect id="SVGID_1_" x="-216" y="-108" width="864" height="432"/>
			</defs>
			<clipPath id="SVGID_2_">
				<use xlink:href="#SVGID_1_"  overflow="visible"/>
			</clipPath>
			<rect x="-216" y="-108" clip-path="url(#SVGID_2_)" fill="#FFFFFF" width="864" height="432"/>
		</g>
		<g>
			<defs>
				<rect id="SVGID_3_" x="-216" y="-108" width="864" height="432"/>
			</defs>
			<clipPath id="SVGID_4_">
				<use xlink:href="#SVGID_3_"  overflow="visible"/>
			</clipPath>
			
				<rect x="-216" y="-108" clip-path="url(#SVGID_4_)" fill="none" stroke="#FFFFFF" stroke-width="0.5" stroke-linecap="round" stroke-linejoin="round" stroke-miterlimit="10" width="864" height="432"/>
		</g>
	</g>
	<g>
		<rect x="-139.04" y="-97.04" fill="#FFFFFF" width="730.101" height="357.22"/>
		<polyline fill="none" stroke="#FF0000" stroke-width="0.5" stroke-linejoin="round" stroke-miterlimit="10" points="
			-105.86,205.74 -105.282,205.74 -104.68,205.74 -104.1,207.26 -103.52,205.74 -102.942,206.121 -102.36,205.359 -101.782,207.26 
			-101.2,205.74 -100.622,205.359 -100.04,206.121 -99.442,206.879 -98.86,205.74 -98.282,205.359 -97.7,206.879 -97.122,205.74 
			-96.54,205.359 -95.96,207.26 -95.378,205.74 -94.8,205.74 -94.2,206.5 -93.622,206.121 -93.04,206.879 -92.46,205.359 
			-91.878,205.74 -91.3,206.5 -90.718,205.74 -90.14,206.879 -89.558,205.74 -88.96,206.121 -88.378,205.74 -87.8,206.121 
			-87.218,206.5 -86.64,205.359 -86.058,206.5 -85.48,206.121 -84.9,206.121 -84.32,206.5 -83.718,205.74 -83.14,206.5 
			-82.558,206.121 -81.98,205.74 -81.4,206.5 -80.82,206.121 -80.24,206.121 -79.66,206.121 -79.08,206.5 -78.48,205.74 
			-77.9,205.359 -77.32,206.879 -76.74,209.18 -76.16,208.42 -75.58,208.801 -75,205.74 -74.42,205.359 -73.84,205.74 
			-73.24,205.74 -72.66,205.74 -72.08,206.121 -71.5,205.74 -70.92,205.74 -70.34,205.74 -69.76,205.74 -69.18,205.359 
			-68.6,205.74 -68,205.74 -67.42,206.121 -66.84,205.74 -66.26,205.359 -65.68,205.74 -65.1,205.74 -64.52,206.121 -63.942,205.74 
			-63.36,205.74 -62.76,205.74 -62.18,205.74 -61.6,206.121 -61.02,206.121 -60.442,205.74 -59.86,206.121 -59.282,205.74 
			-58.7,206.121 -58.122,206.121 -57.52,205.74 -56.942,205.74 -56.36,206.121 -55.782,205.74 -55.2,206.121 -54.622,205.74 
			-54.04,205.74 -53.46,205.74 -52.878,205.74 -52.282,205.74 -51.7,206.121 -51.122,205.359 -50.54,205.74 -49.96,205.74 
			-49.378,205.74 -48.8,206.121 -48.218,205.74 -47.64,205.74 -47.04,205.74 -46.46,205.74 -45.878,205.74 -45.3,205.74 
			-44.718,205.74 -44.14,205.74 -43.558,205.74 -42.98,205.74 -42.4,205.74 -41.8,205.74 -41.218,205.74 -40.64,206.121 
			-40.058,205.74 -39.48,205.74 -38.9,205.359 -38.32,206.121 -37.74,205.74 -37.16,205.74 -36.558,205.74 -35.98,205.74 
			-35.4,205.74 -34.82,205.74 -34.24,205.74 -33.66,205.74 -33.08,205.74 -32.5,206.121 -31.92,205.74 -31.32,205.74 -30.74,206.5 
			-30.16,206.5 -29.58,205.74 -29,205.74 -28.42,205.74 -27.84,205.74 -27.26,205.359 -26.68,206.121 -26.08,205.74 -25.5,205.74 
			-24.92,154.16 -24.34,-60.18 -23.76,-59.4 -23.18,-74.7 -22.6,-63.22 -22.02,-64.38 -21.442,-55.2 -20.84,-60.18 -20.26,-69.72 
			-19.68,-62.84 -19.1,-26.561 -18.52,124.359 -17.942,209.939 -17.36,81.18 -16.782,-70.48 -16.2,-46.04 -15.6,-73.92 -15.02,-51 
			-14.442,-54.061 -13.86,-42.6 -13.282,135.439 -12.7,171.359 -12.122,83.1 -11.54,87.3 -10.96,88.82 -10.36,97.24 -9.782,98.378 
			-9.2,226.74 -8.622,110.219 -8.04,-52.92 -7.46,-61.32 -6.878,-61.7 -6.3,-61.7 -5.718,-62.08 -5.122,-61.32 -4.54,-62.08 
			-3.96,-61.7 -3.378,-68.2 -2.8,-61.7 -2.218,-68.96 -1.64,-80.8 -1.058,-68.2 -0.48,-59.02 0.1,-70.1 0.7,-59.8 1.282,-62.08 
			1.86,-61.32 2.442,-60.18 3.02,-68.58 3.6,-61.32 4.18,-61.32 4.76,-66.66 5.34,-73.54 5.942,-67.439 6.52,-66.28 7.1,-62.08 
			7.68,-66.66 8.26,-62.46 8.84,-59.8 9.42,-61.7 10,-61.7 10.58,-67.82 11.18,-67.04 11.76,-68.2 12.34,-77.36 12.92,-64 
			13.5,-66.66 14.08,-60.939 14.66,-61.7 15.24,-60.18 15.82,-62.08 16.42,-61.32 17,-62.46 17.58,-60.939 18.16,-43.36 
			18.74,-23.5 19.32,-23.5 19.9,26.18 20.48,120.92 21.058,129.32 21.66,141.16 22.24,228.66 22.82,206.121 23.4,205.74 
			23.98,205.74 24.558,205.74 25.14,205.74 25.718,205.74 26.3,205.74 26.9,205.359 27.48,154.92 28.058,-61.7 28.64,-61.7 
			29.218,-70.88 29.8,-61.32 30.378,-57.88 30.96,-64 31.54,-39.92 32.14,-17.38 32.718,97.24 33.3,220.26 33.878,99.9 
			34.46,-65.52 35.04,-60.561 35.622,-57.88 36.2,-44.12 36.782,-19.3 37.378,229.42 37.96,113.66 38.54,92.64 39.122,97.24 
			39.7,76.98 40.282,117.1 40.86,185.48 41.442,-2.1 42.02,-61.7 42.622,-61.7 43.2,-60.561 43.782,-62.84 44.36,-59.8 
			44.942,-60.939 45.52,-73.16 46.1,-77.74 46.68,-72.4 47.26,-60.939 47.86,-67.82 48.442,-61.32 49.02,-61.32 49.6,-61.32 
			50.18,-70.1 50.76,-70.48 51.34,-71.26 51.92,-61.7 52.5,-62.08 53.1,-69.34 53.68,-60.18 54.26,-61.7 54.84,-61.7 55.42,-62.46 
			56,-70.88 56.58,-68.58 57.16,-62.08 57.74,-67.82 58.34,-65.9 58.92,-65.9 59.5,-69.72 60.08,-62.08 60.66,-61.7 61.24,-36.1 
			61.82,-23.88 62.4,11.66 62.98,52.54 63.58,52.92 64.16,98 64.74,195.039 65.32,198.1 65.9,206.5 66.48,205.74 67.058,205.359 
			67.64,205.74 68.218,205.74 68.82,205.74 69.4,205.74 69.98,206.121 70.558,59.02 71.14,-59.02 71.718,-51.76 72.3,-60.939 
			72.878,-75.84 73.46,-66.66 74.058,-61.32 74.64,51 75.218,221.02 75.8,30.76 76.378,-54.439 76.96,-71.64 77.54,-66.66 
			78.122,2.48 78.7,233.24 79.3,90.36 79.878,83.48 80.46,80.04 81.04,91.5 81.622,186.641 82.2,-36.86 82.782,-60.561 83.36,-59.8 
			83.942,-60.18 84.54,-62.46 85.122,-65.52 85.7,-61.32 86.282,-70.1 86.86,-69.72 87.442,-65.9 88.02,-61.7 88.6,-61.32 
			89.18,-62.08 89.782,-69.72 90.36,-65.14 90.942,-65.14 91.52,-64.38 92.1,-63.22 92.68,-65.52 93.26,-60.939 93.84,-66.28 
			94.42,-67.04 95.02,-70.1 95.6,-69.34 96.18,-65.9 96.76,-60.561 97.34,-61.7 97.92,-25.78 98.5,16.24 99.08,52.92 99.66,73.16 
			100.26,125.5 100.84,194.66 101.42,205.74 102,205.74 102.58,205.74 103.16,205.74 103.74,205.74 104.32,205.74 104.9,205.74 
			105.5,212.24 106.08,205.74 106.66,205.359 107.24,206.121 107.82,205.359 108.4,201.539 108.98,-22.34 109.558,-66.66 
			110.14,-53.3 110.74,-62.08 111.32,-26.561 111.9,148.82 112.48,234 113.058,59.4 113.64,-58.26 114.218,-61.32 114.8,8.22 
			115.378,167.141 115.98,91.5 116.558,98.378 117.14,217.961 117.718,59.02 118.3,-63.22 118.878,-60.939 119.46,-60.561 
			120.04,-70.1 120.622,-63.62 121.2,-72.02 121.8,-62.08 122.378,-60.561 122.96,-70.48 123.54,-63.62 124.122,-64 124.7,-65.52 
			125.282,-62.08 125.86,-70.1 126.442,-64.76 127.04,-68.58 127.622,-61.7 128.2,-64.38 128.782,-50.62 129.36,7.46 129.942,85 
			130.52,242.42 131.1,205.359 131.68,206.121 132.282,205.359 132.86,205.74 133.442,206.121 134.02,172.121 134.6,-60.18 
			135.18,-58.26 135.76,-68.96 136.34,-56.36 136.92,-21.96 137.52,236.68 138.1,93.8 138.68,-67.82 139.26,-69.34 139.84,-11.28 
			140.42,177.84 141,98.378 141.58,89.98 142.16,205.74 142.76,-15.86 143.34,-62.08 143.92,-59.8 144.5,-61.7 145.08,-61.32 
			145.66,-52.14 146.24,-66.66 146.82,-62.08 147.4,-62.08 148,-60.561 148.58,-63.22 149.16,-73.92 149.74,-63.62 150.32,-61.32 
			150.9,-64 151.48,-69.72 152.058,-64.38 152.64,-64.38 153.24,-61.32 153.82,-4.02 154.4,72.4 154.98,237.82 155.558,205.74 
			156.14,205.74 156.718,205.74 157.3,205.74 157.878,205.74 158.48,205.359 159.058,-20.061 159.64,-58.26 160.218,-62.46 
			160.8,-70.88 161.378,-63.22 161.96,64.38 162.54,193.9 163.122,-18.92 163.718,-68.2 164.3,-45.66 164.878,41.84 165.46,146.52 
			166.04,92.64 166.622,71.64 167.2,215.281 167.782,-2.1 168.36,-61.32 168.96,-60.561 169.54,-60.939 170.122,-61.7 170.7,-69.34 
			171.282,-65.9 171.86,-63.62 172.442,-65.14 173.02,-65.52 173.6,-68.58 174.2,-63.62 174.782,-64.76 175.36,-65.52 
			175.942,-61.32 176.52,-64.38 177.1,-65.9 177.68,-64.76 178.26,-67.82 178.84,-62.84 179.442,-62.84 180.02,-61.7 180.6,-52.92 
			181.18,-2.86 181.76,91.12 182.34,128.939 182.92,151.859 183.5,236.301 184.08,205.74 184.68,205.74 185.26,205.359 
			185.84,206.121 186.42,205.74 187,205.74 187.58,14.7 188.16,-65.14 188.74,-54.82 189.32,-67.04 189.92,-71.26 190.5,5.92 
			191.08,225.219 191.66,17.76 192.24,-74.7 192.82,-48.32 193.4,-0.2 193.98,191.98 194.558,81.96 195.16,79.28 195.74,219.879 
			196.32,62.84 196.9,-60.18 197.48,-60.939 198.058,-59.8 198.64,-60.18 199.218,-68.2 199.8,-68.2 200.4,-66.28 200.98,-61.32 
			201.558,-62.46 202.14,-64.38 202.718,-66.66 203.3,-68.2 203.878,-65.14 204.46,-61.32 205.04,-64 205.64,-67.04 206.218,-61.7 
			206.8,-64.38 207.378,-68.2 207.96,-61.32 208.54,-31.14 209.122,-23.5 209.7,-21.2 210.282,238.219 210.878,206.121 
			211.46,205.359 212.04,205.74 212.622,206.121 213.2,205.359 213.782,53.3 214.36,-60.939 214.942,-64.38 215.52,-55.58 
			216.12,4.4 216.7,175.561 217.281,-57.12 217.859,-67.04 218.441,231.34 219.02,102.2 219.6,94.942 220.18,207.641 220.76,-11.28 
			221.359,-59.8 221.941,-61.7 222.52,-62.84 223.1,-69.72 223.68,-63.22 224.26,-64.76 224.84,-63.22 225.42,-72.02 226,-67.439 
			226.6,-63.62 227.18,-61.32 227.76,-68.96 228.34,-68.58 228.92,-64.38 229.5,-61.32 230.08,-34.58 230.66,83.48 231.24,223.32 
			231.84,205.74 232.42,205.74 233,205.74 233.58,205.74 234.16,-16.24 234.74,-70.1 235.32,-66.28 235.9,-64.76 236.48,118.24 
			237.08,117.48 237.66,-68.58 238.24,-62.46 238.82,226.359 239.4,85 239.98,92.26 240.559,192.74 241.141,-38.78 241.719,-60.561 
			242.301,-59.4 242.9,-61.7 243.48,-70.48 244.059,-67.04 244.641,-64.76 245.219,-60.561 245.801,-62.84 246.379,-67.439 
			246.961,-68.58 247.539,-61.32 248.141,-64 248.719,-65.9 249.301,-69.34 249.879,-66.28 250.461,-63.22 251.039,-62.08 
			251.621,-33.42 252.199,62.46 252.781,163.719 253.379,205.74 253.961,205.74 254.539,237.061 255.121,206.121 255.699,205.74 
			256.281,205.74 256.859,205.74 257.441,175.939 258.02,-60.561 258.621,-51.38 259.199,-66.66 259.781,-70.1 260.359,40.68 
			260.941,196.18 261.52,-38.4 262.1,-65.9 262.68,-22.74 263.26,206.5 263.859,86.92 264.441,94.942 265.02,191.98 265.6,-35.72 
			266.18,-60.561 266.76,-59.8 267.34,-64 267.92,-62.84 268.5,-65.14 269.1,-68.96 269.68,-60.561 270.26,-62.08 270.84,-64.38 
			271.42,-65.14 272,-66.66 272.58,-63.62 273.16,-64.76 273.74,-60.939 274.34,-69.72 274.92,-64 275.5,-67.04 276.08,-60.939 
			276.66,-49.86 277.24,-22.74 277.82,-5.54 278.4,93.42 278.98,167.539 279.58,240.879 280.16,206.121 280.74,205.359 
			281.32,205.74 281.9,206.121 282.48,205.359 283.059,206.121 283.641,205.359 284.219,193.121 284.82,-48.72 285.4,-59.4 
			285.98,-73.54 286.559,-54.82 287.141,-62.84 287.719,-64.76 288.301,-51 288.879,148.039 289.461,215.281 290.059,46.8 
			290.641,-57.12 291.219,-51 291.801,-62.84 292.379,-1.72 292.961,185.1 293.539,74.7 294.121,81.561 294.699,65.14 
			295.301,185.48 295.879,-24.64 296.461,-62.08 297.039,-58.26 297.621,-61.32 298.199,-61.7 298.781,-71.64 299.359,-67.439 
			299.941,-64 300.539,-67.04 301.121,-61.32 301.699,-64.76 302.281,-60.561 302.859,-65.14 303.441,-66.66 304.02,-60.18 
			304.6,-65.14 305.18,-61.7 305.781,-64 306.359,-68.96 306.941,-65.9 307.52,-65.52 308.1,-64 308.68,-64 309.26,-60.18 
			309.84,-62.08 310.42,-61.7 311.02,-6.3 311.6,71.26 312.18,160.281 312.76,206.121 313.34,205.359 313.92,205.74 314.5,205.74 
			315.08,237.439 315.66,205.359 316.26,205.74 316.84,206.121 317.42,205.74 318,205.74 318.58,205.359 319.16,206.121 
			319.74,196.561 320.32,-45.66 320.9,-61.32 321.5,-47.561 322.08,-68.2 322.66,-65.52 323.24,-68.96 323.82,-12.04 324.4,178.621 
			324.98,198.859 325.559,-23.88 326.141,-71.64 326.74,-60.18 327.32,-60.561 327.9,240.5 328.48,107.54 329.059,66.28 
			329.641,77.74 330.219,222.16 330.801,31.14 331.379,-60.939 331.98,-59.8 332.559,-59.8 333.141,-65.9 333.719,-68.2 
			334.301,-64.38 334.879,-66.28 335.461,-63.62 336.039,-60.939 336.621,-68.58 337.219,-63.62 337.801,-69.34 338.379,-67.04 
			338.961,-62.08 339.539,-64.76 340.121,-67.04 340.699,-60.561 341.281,-61.32 341.859,-66.28 342.461,-65.9 343.039,-63.62 
			343.621,-61.32 344.199,-30.38 344.781,-23.5 345.359,-3.62 345.941,64.38 346.52,127.42 347.1,157.98 347.699,167.92 
			348.281,204.199 348.859,205.74 349.441,205.74 350.02,241.26 350.6,205.74 351.18,205.74 351.76,192.74 352.34,-61.7 
			352.941,-27.7 353.52,84.62 354.1,17 354.68,122.439 355.26,169.82 355.84,-60.561 356.42,-63.22 357,-65.9 357.58,-63.62 
			358.18,-62.84 358.76,-62.84 359.34,-67.82 359.92,-64.76 360.5,15.1 361.08,198.1 361.66,213.76 362.24,206.121 362.82,205.74 
			363.4,205.74 364,192.359 364.58,-62.84 365.16,-67.04 365.74,-64 366.32,-60.561 366.9,242.801 367.48,101.442 368.059,-68.58 
			368.641,-57.88 369.24,220.26 369.82,85.38 370.4,76.6 370.98,78.9 371.559,-59.4 372.141,-61.7 372.719,-64 373.301,-65.52 
			373.879,-66.28 374.48,-60.939 375.059,-65.9 375.641,-60.561 376.219,-64.38 376.801,-66.28 377.379,-63.22 377.961,-67.439 
			378.539,-64 379.121,-62.08 379.719,-67.04 380.301,-12.8 380.879,56.36 381.461,121.301 382.039,229.42 382.621,205.359 
			383.199,206.121 383.781,205.74 384.359,205.359 384.961,30.38 385.539,-65.9 386.121,-58.26 386.699,-59.8 387.281,237.82 
			387.859,53.3 388.441,-70.1 389.02,-49.1 389.6,177.84 390.199,80.8 390.781,215.66 391.359,-7.439 391.941,-60.939 
			392.52,-62.46 393.1,-62.84 393.68,-64.76 394.26,-65.9 394.84,-61.32 395.441,-63.62 396.02,-62.46 396.6,-64.38 397.18,-67.04 
			397.76,-68.2 398.34,-61.32 398.92,-64.76 399.5,-69.72 400.08,-57.88 400.68,-23.12 401.26,2.86 401.84,106.782 402.42,174.4 
			403,211.08 403.58,205.74 404.16,205.74 404.74,205.359 405.32,206.121 405.92,205.74 406.5,-0.2 407.08,-58.26 407.66,-52.54 
			408.24,-71.64 408.82,-64.76 409.4,21.2 409.98,229.039 410.561,50.62 411.16,-71.64 411.74,-42.22 412.32,-10.5 412.9,170.58 
			413.48,67.061 414.061,74.7 414.641,153.4 415.221,-59.4 415.801,-62.08 416.4,-61.7 416.98,-68.58 417.561,-69.72 
			418.141,-62.08 418.721,-62.08 419.301,-60.939 419.881,-65.9 420.461,-71.64 421.039,-62.84 421.641,-61.7 422.221,-60.939 
			422.801,-65.52 423.381,-65.9 423.961,-65.52 424.539,-64.38 425.119,-55.2 425.699,-23.12 426.279,56.74 426.881,181.281 
			427.461,214.141 428.039,205.74 428.619,206.121 429.199,205.359 429.779,205.74 430.359,206.121 430.939,205.359 431.52,205.74 
			432.119,50.62 432.699,-60.939 433.279,-66.66 433.859,-60.939 434.439,-72.78 435.02,-65.52 435.6,-59.8 436.18,81.18 
			436.76,216.82 437.359,15.86 437.939,-63.62 438.52,-64.76 439.1,-73.54 439.68,9.74 440.26,194.281 440.84,48.34 441.42,61.32 
			442,65.52 442.6,180.141 443.18,-31.52 443.76,-61.7 444.34,-59.8 444.92,-60.18 445.5,-61.32 446.08,-67.04 446.66,-62.84 
			447.24,-66.66 447.84,-64 448.42,-64 449,-65.14 449.58,-59.4 450.16,-65.52 450.74,-62.84 451.32,-71.26 451.9,-67.04 
			452.48,-64.76 453.08,-62.08 453.66,-67.439 454.24,-60.939 454.82,-68.58 455.4,-60.561 455.98,-64.76 456.561,-61.7 
			457.141,-31.14 457.721,39.16 458.32,84.62 458.9,132 459.48,180.9 460.061,215.281 460.641,206.121 461.221,205.74 
			461.801,133.92 462.381,-66.66 462.961,-12.8 463.561,187.781 464.141,-75.46 464.721,155.301 465.301,193.121 465.881,-57.12 
			466.461,-62.08 467.039,-64.38 467.619,-64.76 468.199,-63.22 468.801,-68.2 469.381,-62.46 469.961,-65.52 470.539,-65.9 
			471.119,-8.22 471.699,118.621 472.279,177.461 472.859,233.621 473.439,205.74 474.039,205.74 474.619,205.74 475.199,205.74 
			475.779,205.74 476.359,205.74 476.939,205.74 477.52,202.68 478.1,-44.12 478.68,-61.7 479.279,-68.58 479.859,-63.62 
			480.439,-60.939 481.02,-62.46 481.6,-51.38 482.18,122.439 482.76,214.9 483.34,-2.1 483.92,-69.72 484.5,-52.14 485.1,-65.52 
			485.68,238.219 486.26,128.18 486.84,56.36 487.42,55.98 488,224.08 488.58,79.28 489.16,-63.62 489.74,-60.561 490.34,-60.939 
			490.92,-60.939 491.5,-64.76 492.08,-69.72 492.66,-68.96 493.24,-63.22 493.82,-60.939 494.4,-61.7 494.98,-64.76 
			495.58,-67.439 496.16,-61.7 496.74,-64.38 497.32,-65.9 497.9,-60.18 498.48,-62.08 499.061,-68.96 499.641,-67.82 
			500.221,-67.82 500.82,-62.08 501.4,-60.561 501.98,-61.32 502.561,-41.46 503.141,84.24 503.721,156.461 504.301,167.539 
			504.881,237.82 505.461,206.121 506.061,205.74 506.641,205.74 507.221,158.74 507.801,-67.04 508.381,-63.62 508.961,235.539 
			509.539,18.52 510.119,-52.92 510.699,129.699 511.301,195.039 511.881,-57.88 512.461,-59.4 513.039,-63.22 513.619,-64.76 
			514.199,-61.32 514.779,-65.52 515.359,-63.22 515.939,-64.38 516.539,-63.22 517.119,-61.7 517.699,-64.76 518.279,-19.68 
			518.859,42.98 519.439,117.1 520.02,225.219 520.6,205.74 521.18,42.22 521.779,228.281 522.359,19.3 522.939,211.08 
			523.52,-50.24 524.1,-64 524.68,-64 525.26,-63.22 525.84,-34.58 526.42,164.859 527.02,208.42 527.6,206.121 528.18,179.379 
			528.76,-66.28 529.34,-66.66 529.92,233.621 530.5,-22.34 531.08,230.961 531.66,76.98 532.26,68.58 532.84,-60.561 
			533.42,-62.46 534,-64.38 534.58,-61.7 535.16,-66.28 535.74,-66.28 536.32,-62.08 536.9,-65.14 537.5,-25.02 538.08,89.2 
			538.66,237.061 539.24,205.74 539.82,205.74 540.4,205.74 540.98,205.74 541.561,31.52 542.141,-68.58 542.74,-65.52 
			543.32,-60.939 543.9,236.301 544.48,36.48 545.061,-68.58 545.641,-16.24 546.221,136.961 546.801,80.04 547.381,193.52 
			547.98,-48.32 548.561,-64 549.141,-62.84 549.721,-64.38 550.301,-60.939 550.881,-64.38 551.461,-68.96 552.039,-65.52 
			552.619,-60.18 553.221,-35.72 553.801,79.66 554.381,226.74 554.961,114.039 555.539,225.219 556.119,206.879 556.699,243.939 
			557.279,243.939 557.859,243.939 		"/>
		<polyline fill="none" stroke="#0000FF" stroke-width="0.5" stroke-linejoin="round" stroke-miterlimit="10" points="
			-105.86,226.801 -105.282,218.039 -104.68,209.92 -104.1,201.621 -103.52,215.939 -102.942,205.74 -102.36,196.961 
			-101.782,208.359 -101.2,214.4 -100.622,205.68 -100.04,195.641 -99.442,221.26 -98.86,212.6 -98.282,203.76 -97.7,221.859 
			-97.122,213.74 -96.54,206.281 -95.96,223.16 -95.378,215.1 -94.8,207.34 -94.2,222.1 -93.622,212.84 -93.04,222.621 
			-92.46,218.34 -91.878,210.699 -91.3,221.68 -90.718,213.199 -90.14,225.141 -89.558,215.82 -88.96,226.461 -88.378,219.219 
			-87.8,212.48 -87.218,221.98 -86.64,205.801 -86.058,221.68 -85.48,205.74 -84.9,221.439 -84.32,226.281 -83.718,214.98 
			-83.14,224.781 -82.558,229.92 -81.98,221.439 -81.4,224.781 -80.82,227.16 -80.24,226.92 -79.66,227.641 -79.08,230.281 
			-78.48,221.92 -77.9,206.82 -77.32,217.141 -76.74,235.4 -76.16,235.34 -75.58,235.34 -75,234.5 -74.42,234.859 -73.84,234.859 
			-73.24,234.859 -72.66,234.801 -72.08,234.74 -71.5,234.74 -70.92,234.68 -70.34,234.621 -69.76,234.561 -69.18,234.561 
			-68.6,234.5 -68,234.439 -67.42,234.439 -66.84,234.4 -66.26,234.34 -65.68,234.34 -65.1,234.281 -64.52,234.219 -63.942,234.16 
			-63.36,234.16 -62.76,234.1 -62.18,234.1 -61.6,234.561 -61.02,227.939 -60.442,208.301 -59.86,214.16 -59.282,214.219 
			-58.7,214.16 -58.122,214.219 -57.52,214.16 -56.942,214.16 -56.36,214.16 -55.782,214.16 -55.2,214.16 -54.622,235.16 
			-54.04,235.16 -53.46,235.16 -52.878,235.16 -52.282,235.16 -51.7,235.16 -51.122,235.16 -50.54,235.16 -49.96,235.16 
			-49.378,235.16 -48.8,235.16 -48.218,235.16 -47.64,235.16 -47.04,235.16 -46.46,235.16 -45.878,235.16 -45.3,235.16 
			-44.718,235.16 -44.14,235.16 -43.558,235.1 -42.98,235.039 -42.4,235.039 -41.8,234.98 -41.218,234.98 -40.64,234.98 
			-40.058,234.859 -39.48,234.859 -38.9,234.801 -38.32,234.74 -37.74,234.74 -37.16,234.68 -36.558,234.68 -35.98,234.621 
			-35.4,234.561 -34.82,234.561 -34.24,234.5 -33.66,234.439 -33.08,234.34 -32.5,234.34 -31.92,234.34 -31.32,234.34 
			-30.74,233.74 -30.16,212.961 -29.58,218.16 -29,217.801 -28.42,217.439 -27.84,217.08 -27.26,216.781 -26.68,216.48 
			-26.08,215.4 -25.5,214.641 -24.92,-8.88 -24.34,-12.76 -23.76,-12.76 -23.18,-13.22 -22.6,-13.34 -22.02,-13.34 -21.442,-13.64 
			-20.84,-13.64 -20.26,-13.82 -19.68,-13.82 -19.1,-13.88 -18.52,-14 -17.942,98.218 -17.36,92.68 -16.782,95.9 -16.2,94.46 
			-15.6,95.9 -15.02,95.84 -14.442,94.16 -13.86,98.64 -13.282,98.64 -12.7,69.28 -12.122,67.96 -11.54,67.3 -10.96,65.22 
			-10.36,65.52 -9.782,64.5 -9.2,69.92 -8.622,61.92 -8.04,61.16 -7.46,60.92 -6.878,60.74 -6.3,60.68 -5.718,60.68 -5.122,60.561 
			-4.54,60.561 -3.96,60.561 -3.378,60.439 -2.8,60.14 -2.218,59.72 -1.64,59.9 -1.058,59.18 -0.48,59.3 0.1,59.36 0.7,59.36 
			1.282,59.36 1.86,59.36 2.442,59.18 3.02,56.62 3.6,59.24 4.18,59.18 4.76,58.64 5.34,59.24 5.942,56.86 6.52,59.18 7.1,59.24 
			7.68,56.5 8.26,59.18 8.84,59.18 9.42,59 10,59.12 10.58,59.061 11.18,59.12 11.76,59.12 12.34,57.7 12.92,59.24 13.5,56.26 
			14.08,59.18 14.66,59.18 15.24,59.12 15.82,62.04 16.42,62.1 17,62.1 17.58,62.04 18.16,62.16 18.74,62.16 19.32,62.16 
			19.9,62.22 20.48,62.46 21.058,62.34 21.66,62.52 22.24,219.281 22.82,219.281 23.4,199.34 23.98,208.121 24.558,208.121 
			25.14,208.121 25.718,208.121 26.3,208.121 26.9,208 27.48,-60.38 28.058,-62.12 28.64,-62.12 29.218,-62.72 29.8,-62.72 
			30.378,-62.9 30.96,-62.96 31.54,-63.02 32.14,-63.02 32.718,-63.2 33.3,48.14 33.878,45.22 34.46,47.54 35.04,45.1 35.622,45.82 
			36.2,47.54 36.782,49.88 37.378,38.46 37.96,35.78 38.54,34.58 39.122,35.66 39.7,33.4 40.282,40.32 40.86,34.76 41.442,35.9 
			42.02,38.22 42.622,38.16 43.2,38.16 43.782,38.061 44.36,38 44.942,37.88 45.52,35.6 46.1,33.04 46.68,38.16 47.26,38.061 
			47.86,38 48.442,37.82 49.02,37.76 49.6,37.88 50.18,37.88 50.76,36.2 51.34,37.88 51.92,37.939 52.5,37.76 53.1,37.82 
			53.68,37.82 54.26,37.22 54.84,37.1 55.42,34.88 56,37.34 56.58,37.28 57.16,36.98 57.74,36.98 58.34,37.04 58.92,37.1 59.5,37.1 
			60.08,37.46 60.66,39.72 61.24,39.66 61.82,39.66 62.4,39.66 62.98,39.96 63.58,39.96 64.16,39.96 64.74,39.96 65.32,39.96 
			65.9,219.82 66.48,215.82 67.058,210.82 67.64,210.82 68.218,210.82 68.82,210.82 69.4,210.82 69.98,210.82 70.558,-33.16 
			71.14,-33.16 71.718,-33.22 72.3,-33.28 72.878,-33.4 73.46,-33.52 74.058,-33.52 74.64,-33.64 75.218,52.8 75.8,50.88 
			76.378,49.76 76.96,50.88 77.54,52.8 78.122,54.7 78.7,37.28 79.3,35.96 79.878,35.36 80.46,35.78 81.04,37.88 81.622,22.46 
			82.2,25.22 82.782,25.22 83.36,25.22 83.942,25.22 84.54,25.22 85.122,25.22 85.7,25.22 86.282,25.22 86.86,25.34 87.442,25.22 
			88.02,25.22 88.6,25.22 89.18,25.22 89.782,25.28 90.36,25.22 90.942,25.22 91.52,25.28 92.1,25.22 92.68,23.12 93.26,25.22 
			93.84,25.22 94.42,25.22 95.02,25.22 95.6,25.22 96.18,25.22 96.76,25.22 97.34,27.36 97.92,27.36 98.5,27.36 99.08,27.36 
			99.66,27.36 100.26,27.36 100.84,27.36 101.42,27.36 102,27.36 102.58,27.36 103.16,27.36 103.74,27.36 104.32,27.36 104.9,27.36 
			105.5,216.961 106.08,196.9 106.66,208.121 107.24,208.121 107.82,208.121 108.4,-52.14 108.98,-52.14 109.558,-52.14 
			110.14,-52.14 110.74,-52.14 111.32,-52.14 111.9,-52.14 112.48,153.98 113.058,21.7 113.64,21.7 114.218,21.7 114.8,21.7 
			115.378,25.16 115.98,21.7 116.558,21.7 117.14,32.2 117.718,30.46 118.3,32.08 118.878,32.08 119.46,32.08 120.04,37.28 
			120.622,35.72 121.2,45.939 121.8,45.939 122.378,45.939 122.96,42.64 123.54,45.939 124.122,45.939 124.7,42.64 125.282,45.939 
			125.86,45.939 126.442,45.939 127.04,45.939 127.622,45.939 128.2,45.939 128.782,45.939 129.36,45.939 129.942,45.939 
			130.52,217.379 131.1,217.5 131.68,208.359 132.282,208.359 132.86,208.359 133.442,208.359 134.02,-50 134.6,-50 135.18,-50 
			135.76,-50 136.34,-50.061 136.92,-50.12 137.52,208.121 138.1,38.52 138.68,38.061 139.26,38.061 139.84,38.061 140.42,39.54 
			141,38.061 141.58,38.061 142.16,40.8 142.76,37.58 143.34,37.58 143.92,37.52 144.5,37.4 145.08,37.28 145.66,37.28 
			146.24,37.28 146.82,37.28 147.4,37.28 148,37.22 148.58,37.22 149.16,37.16 149.74,37.16 150.32,37.16 150.9,37.16 151.48,37.16 
			152.058,37.16 152.64,37.16 153.24,37.1 153.82,37.1 154.4,37.1 154.98,218.58 155.558,218.58 156.14,209.74 156.718,209.74 
			157.3,209.74 157.878,209.74 158.48,-37.64 159.058,-37.64 159.64,-37.64 160.218,-37.7 160.8,-37.82 161.378,-37.88 
			161.96,-37.939 162.54,42.28 163.122,35.66 163.718,35.66 164.3,35.66 164.878,35.66 165.46,38.34 166.04,35.66 166.622,35.66 
			167.2,41.4 167.782,44.74 168.36,44.74 168.96,44.74 169.54,44.74 170.122,41.46 170.7,46.16 171.282,43.36 171.86,46.64 
			172.442,46.64 173.02,46.64 173.6,46.64 174.2,43.3 174.782,46.64 175.36,46.64 175.942,46.64 176.52,43.3 177.1,46.64 
			177.68,46.64 178.26,46.64 178.84,43.3 179.442,46.64 180.02,46.64 180.6,46.64 181.18,46.64 181.76,46.64 182.34,46.64 
			182.92,46.64 183.5,217.621 184.08,217.68 184.68,210.16 185.26,210.16 185.84,210.16 186.42,210.16 187,118.641 187.58,-33.88 
			188.16,-33.88 188.74,-33.88 189.32,-33.88 189.92,-33.939 190.5,-34 191.08,44.439 191.66,36.08 192.24,36.08 192.82,36.08 
			193.4,36.08 193.98,40.86 194.558,36.08 195.16,36.08 195.74,45.64 196.32,35.12 196.9,35.12 197.48,35.12 198.058,35.12 
			198.64,35.12 199.218,35.12 199.8,35.12 200.4,35.12 200.98,35.12 201.558,35.12 202.14,35.12 202.718,35.12 203.3,35.12 
			203.878,35.12 204.46,35.12 205.04,35.12 205.64,35.12 206.218,35.12 206.8,35.12 207.378,35.12 207.96,35.12 208.54,35.12 
			209.122,35.12 209.7,35.12 210.282,218.98 210.878,218.98 211.46,208 212.04,208 212.622,208 213.2,208 213.782,-53.22 
			214.36,-53.22 214.942,-53.22 215.52,-53.22 216.12,-53.22 216.7,21.46 217.281,21.46 217.859,21.46 218.441,21.46 219.02,21.46 
			219.6,21.46 220.18,21.4 220.76,21.4 221.359,21.34 221.941,21.34 222.52,21.22 223.1,21.22 223.68,21.22 224.26,21.22 
			224.84,21.22 225.42,21.22 226,21.22 226.6,21.22 227.18,21.16 227.76,21.1 228.34,21.1 228.92,21.1 229.5,21.04 230.08,21.04 
			230.66,21.04 231.24,216.24 231.84,201.801 232.42,208.539 233,208.539 233.58,-16.28 234.16,-48.38 234.74,-48.38 235.32,-48.38 
			235.9,-48.38 236.48,-48.38 237.08,22.52 237.66,22.52 238.24,22.52 238.82,22.52 239.4,22.52 239.98,22.52 240.559,21.16 
			241.141,20.86 241.719,20.8 242.301,20.74 242.9,20.68 243.48,20.68 244.059,20.68 244.641,20.68 245.219,20.68 245.801,20.68 
			246.379,20.68 246.961,21.04 247.539,20.68 248.141,20.68 248.719,22 249.301,20.68 249.879,20.68 250.461,20.68 251.039,22 
			251.621,22 252.199,22 252.781,22 253.379,22 253.961,22 254.539,216.359 255.121,215.1 255.699,208.84 256.281,208.84 
			256.859,208.84 257.441,-45.88 258.02,-46.18 258.621,-46.18 259.199,-46.18 259.781,-46.18 260.359,-46.24 260.941,21.82 
			261.52,21.52 262.1,21.52 262.68,21.52 263.26,21.82 263.859,21.52 264.441,21.52 265.02,21.82 265.6,21.52 266.18,21.52 
			266.76,21.52 267.34,21.52 267.92,21.52 268.5,21.52 269.1,21.52 269.68,21.52 270.26,21.52 270.84,21.52 271.42,21.52 272,21.46 
			272.58,21.52 273.16,21.52 273.74,21.52 274.34,21.52 274.92,21.52 275.5,21.52 276.08,21.52 276.66,21.52 277.24,21.52 
			277.82,21.52 278.4,21.52 278.98,21.52 279.58,216.359 280.16,216.359 280.74,208.719 281.32,208.719 281.9,208.719 
			282.48,208.719 283.059,208.719 283.641,208.301 284.219,-54.66 284.82,-55.32 285.4,-55.32 285.98,-55.5 286.559,-55.92 
			287.141,-55.98 287.719,-56.08 288.301,-56.14 288.879,-56.2 289.461,12.32 290.059,12.32 290.641,12.32 291.219,12.32 
			291.801,12.32 292.379,12.32 292.961,12.32 293.539,12.32 294.121,12.32 294.699,12.32 295.301,10.54 295.879,12.32 
			296.461,12.26 297.039,12.2 297.621,12.26 298.199,12.2 298.781,18.82 299.359,25.52 299.941,28.86 300.539,31.96 301.121,35.6 
			301.699,35.36 302.281,39 302.859,38.88 303.441,39 304.02,39 304.6,38.939 305.18,38.939 305.781,39 306.359,39 306.941,38.939 
			307.52,39 308.1,39 308.68,39 309.26,39 309.84,38.88 310.42,38.939 311.02,38.939 311.6,38.939 312.18,38.939 312.76,38.939 
			313.34,38.88 313.92,38.88 314.5,38.939 315.08,215.281 315.66,215.281 316.26,203.1 316.84,208 317.42,208 318,208 318.58,208 
			319.16,208 319.74,-53.22 320.32,-53.22 320.9,-53.22 321.5,-53.28 322.08,-53.34 322.66,-53.4 323.24,-53.52 323.82,-53.52 
			324.4,-53.64 324.98,11.24 325.559,11.24 326.141,11.24 326.74,11.24 327.32,11.24 327.9,11.24 328.48,11.24 329.059,11.24 
			329.641,11.24 330.219,11.18 330.801,10.76 331.379,10.7 331.98,10.6 332.559,10.42 333.141,10.42 333.719,10.42 334.301,10.42 
			334.879,10.42 335.461,10.42 336.039,10.42 336.621,10.42 337.219,10.42 337.801,10.36 338.379,10.36 338.961,10.3 339.539,10.3 
			340.121,10.3 340.699,10.3 341.281,10.3 341.859,10.3 342.461,10.3 343.039,10.3 343.621,10.3 344.199,10.3 344.781,10.3 
			345.359,10.3 345.941,10.3 346.52,10.3 347.1,10.3 347.699,10.3 348.281,10.3 348.859,10.3 349.441,10.3 350.02,215.16 
			350.6,215.219 351.18,209.439 351.76,-40.34 352.34,-40.34 352.941,-40.34 353.52,19.3 354.1,43.9 354.68,19.3 355.26,19.36 
			355.84,19.3 356.42,19.3 357,19.3 357.58,19.3 358.18,19.3 358.76,19.3 359.34,19.3 359.92,19.3 360.5,19.3 361.08,19.3 
			361.66,206.879 362.24,210.281 362.82,210.281 363.4,210.281 364,-32.8 364.58,-33.28 365.16,-33.28 365.74,-33.28 366.32,-33.28 
			366.9,210.219 367.48,21.46 368.059,21.46 368.641,21.46 369.24,21.46 369.82,21.46 370.4,21.46 370.98,21.46 371.559,21.46 
			372.141,21.46 372.719,21.46 373.301,21.4 373.879,21.4 374.48,21.4 375.059,21.4 375.641,21.4 376.219,21.4 376.801,21.4 
			377.379,21.4 377.961,21.34 378.539,21.34 379.121,21.34 379.719,21.28 380.301,21.28 380.879,21.28 381.461,21.28 
			382.039,216.301 382.621,210.641 383.199,210.641 383.781,210.641 384.359,210.641 384.961,-29.58 385.539,-29.58 386.121,-29.58 
			386.699,-29.58 387.281,210.641 387.859,22.52 388.441,22.52 389.02,22.52 389.6,22.52 390.199,22.52 390.781,22.52 
			391.359,22.52 391.941,22.46 392.52,22.36 393.1,22.36 393.68,22.36 394.26,22.36 394.84,22.36 395.441,22.36 396.02,22.36 
			396.6,22.36 397.18,22.36 397.76,22.3 398.34,22.24 398.92,22.24 399.5,22.24 400.08,22.24 400.68,22.18 401.26,22.12 
			401.84,22.12 402.42,22.12 403,216.42 403.58,211.4 404.16,211.4 404.74,211.4 405.32,211.4 405.92,211.039 406.5,-26.36 
			407.08,-26.84 407.66,-26.96 408.24,-27.08 408.82,-27.2 409.4,-27.2 409.98,17.7 410.561,17.22 411.16,17.22 411.74,17.22 
			412.32,17.22 412.9,17.46 413.48,17.22 414.061,17.22 414.641,17.46 415.221,17.22 415.801,17.22 416.4,17.22 416.98,17.22 
			417.561,17.22 418.141,17.22 418.721,17.22 419.301,17.22 419.881,17.22 420.461,17.22 421.039,17.22 421.641,17.22 
			422.221,17.22 422.801,17.22 423.381,17.22 423.961,17.22 424.539,17.22 425.119,17.22 425.699,17.22 426.279,17.22 
			426.881,17.22 427.461,215.879 428.039,207.461 428.619,211.281 429.199,211.281 429.779,211.281 430.359,211.281 
			430.939,211.281 431.52,210.859 432.119,-29.04 432.699,-29.28 433.279,-29.64 433.859,-29.7 434.439,-29.88 435.02,-29.939 
			435.6,-29.939 436.18,-30.061 436.76,10.18 437.359,10.18 437.939,10.18 438.52,10.18 439.1,10.18 439.68,10.18 440.26,10.18 
			440.84,10.18 441.42,10.18 442,10.18 442.6,10.18 443.18,10.061 443.76,9.939 444.34,9.939 444.92,9.88 445.5,9.88 446.08,9.82 
			446.66,9.82 447.24,9.82 447.84,9.82 448.42,9.76 449,9.76 449.58,9.76 450.16,9.76 450.74,9.76 451.32,9.76 451.9,9.76 
			452.48,9.76 453.08,9.76 453.66,9.76 454.24,9.76 454.82,9.76 455.4,9.76 455.98,9.76 456.561,9.76 457.141,9.76 457.721,9.76 
			458.32,9.76 458.9,9.76 459.48,9.76 460.061,215.039 460.641,210.699 461.221,210.98 461.801,-26.36 462.381,-26.36 
			462.961,-26.36 463.561,15.54 464.141,15.9 464.721,15.54 465.301,15.54 465.881,15.54 466.461,15.54 467.039,15.54 
			467.619,15.54 468.199,15.54 468.801,15.54 469.381,15.54 469.961,15.54 470.539,15.72 471.119,15.6 471.699,15.6 472.279,15.6 
			472.859,215.641 473.439,216.121 474.039,216.121 474.619,216.121 475.199,216.121 475.779,216.121 476.359,216.121 
			476.939,215.76 477.52,12.26 478.1,11.3 478.68,11.3 479.279,11.12 479.859,11.061 480.439,10.939 481.02,10.88 481.6,10.82 
			482.18,10.76 482.76,10.6 483.34,10.18 483.92,11 484.5,11.12 485.1,11.12 485.68,189.5 486.26,10.66 486.84,11.12 487.42,11.12 
			488,10.66 488.58,10.24 489.16,10.18 489.74,10.18 490.34,10.18 490.92,10.18 491.5,10.24 492.08,10.7 492.66,10.939 
			493.24,11.061 493.82,11.061 494.4,11 494.98,11.061 495.58,11.061 496.16,11 496.74,11.061 497.32,11 497.9,11.061 
			498.48,11.061 499.061,11.061 499.641,11.061 500.221,11.061 500.82,11 501.4,11.061 501.98,11.061 502.561,11.061 
			503.141,11.061 503.721,11.061 504.301,11.061 504.881,215.039 505.461,215.039 506.061,212 506.641,212 507.221,-17.22 
			507.801,-17.22 508.381,-17.22 508.961,215.699 509.539,16.2 510.119,16.561 510.699,16.561 511.301,16.26 511.881,16.08 
			512.461,16.08 513.039,16.2 513.619,16.26 514.199,16.32 514.779,16.26 515.359,16.26 515.939,16.26 516.539,16.26 517.119,16.26 
			517.699,16.26 518.279,16.26 518.859,16.26 519.439,16.26 520.02,215.76 520.6,215.939 521.18,18.24 521.779,18.76 522.359,43.42 
			522.939,18.76 523.52,18.64 524.1,18.64 524.68,18.58 525.26,18.64 525.84,18.7 526.42,18.76 527.02,216.121 527.6,216.24 
			528.18,20.92 528.76,20.92 529.34,20.92 529.92,22.46 530.5,22 531.08,216.359 531.66,22 532.26,22 532.84,22 533.42,22 534,22 
			534.58,22 535.16,22 535.74,22 536.32,22 536.9,22 537.5,22 538.08,22 538.66,216.359 539.24,205.98 539.82,210.92 540.4,210.92 
			540.98,210.92 541.561,-27.38 542.141,-27.38 542.74,-27.38 543.32,-27.38 543.9,210.92 544.48,44.5 545.061,44.5 545.641,44.5 
			546.221,44.5 546.801,44.5 547.381,48.2 547.98,43.54 548.561,43.54 549.141,43.54 549.721,43.54 550.301,43.54 550.881,43.54 
			551.461,43.54 552.039,43.54 552.619,43.54 553.221,43.54 553.801,43.54 554.381,219.76 554.961,40.38 555.539,219.82 
			556.119,219.82 556.699,240.781 557.279,240.781 557.859,240.781 		"/>
	</g>
	
		<line fill="none" stroke="#000000" stroke-width="0.5" stroke-linejoin="round" stroke-miterlimit="10" x1="-139.04" y1="260.18" x2="-139.04" y2="-97.04"/>
	<text transform="matrix(1 0 0 1 -158.9004 250.4004)" font-family="'ArialMT'" font-size="18">0</text>
	<text transform="matrix(1 0 0 1 -178.9199 174)" font-family="'ArialMT'" font-size="18">200</text>
	<text transform="matrix(1 0 0 1 -178.9199 97.5801)" font-family="'ArialMT'" font-size="18">400</text>
	<text transform="matrix(1 0 0 1 -178.9199 21.1797)" font-family="'ArialMT'" font-size="18">600</text>
	<text transform="matrix(1 0 0 1 -178.9199 -55.2402)" font-family="'ArialMT'" font-size="18">800</text>
	
		<line fill="none" stroke="#333333" stroke-width="0.5" stroke-linejoin="round" stroke-miterlimit="10" x1="-144.52" y1="243.939" x2="-139.04" y2="243.939"/>
	
		<line fill="none" stroke="#333333" stroke-width="0.5" stroke-linejoin="round" stroke-miterlimit="10" x1="-144.52" y1="167.539" x2="-139.04" y2="167.539"/>
	
		<line fill="none" stroke="#333333" stroke-width="0.5" stroke-linejoin="round" stroke-miterlimit="10" x1="-144.52" y1="91.12" x2="-139.04" y2="91.12"/>
	
		<line fill="none" stroke="#333333" stroke-width="0.5" stroke-linejoin="round" stroke-miterlimit="10" x1="-144.52" y1="14.7" x2="-139.04" y2="14.7"/>
	
		<line fill="none" stroke="#333333" stroke-width="0.5" stroke-linejoin="round" stroke-miterlimit="10" x1="-144.52" y1="-61.7" x2="-139.04" y2="-61.7"/>
	
		<line fill="none" stroke="#000000" stroke-width="0.5" stroke-linejoin="round" stroke-miterlimit="10" x1="591.061" y1="260.18" x2="591.061" y2="-97.04"/>
	
		<line fill="none" stroke="#333333" stroke-width="0.5" stroke-linejoin="round" stroke-miterlimit="10" x1="591.061" y1="244.08" x2="596.539" y2="244.08"/>
	
		<line fill="none" stroke="#333333" stroke-width="0.5" stroke-linejoin="round" stroke-miterlimit="10" x1="591.061" y1="121.801" x2="596.539" y2="121.801"/>
	
		<line fill="none" stroke="#333333" stroke-width="0.5" stroke-linejoin="round" stroke-miterlimit="10" x1="591.061" y1="-0.5" x2="596.539" y2="-0.5"/>
	<text transform="matrix(1 0 0 1 600.9199 250.5391)" font-family="'ArialMT'" font-size="18">0</text>
	<text transform="matrix(1 0 0 1 600.9199 128.2598)" font-family="'ArialMT'" font-size="18">2</text>
	<text transform="matrix(1 0 0 1 600.9199 5.9609)" font-family="'ArialMT'" font-size="18">4</text>
	
		<line fill="none" stroke="#000000" stroke-width="0.5" stroke-linejoin="round" stroke-miterlimit="10" x1="-139.04" y1="260.18" x2="591.061" y2="260.18"/>
	
		<line fill="none" stroke="#333333" stroke-width="0.5" stroke-linejoin="round" stroke-miterlimit="10" x1="-105.86" y1="265.66" x2="-105.86" y2="260.18"/>
	
		<line fill="none" stroke="#333333" stroke-width="0.5" stroke-linejoin="round" stroke-miterlimit="10" x1="68.82" y1="265.66" x2="68.82" y2="260.18"/>
	
		<line fill="none" stroke="#333333" stroke-width="0.5" stroke-linejoin="round" stroke-miterlimit="10" x1="243.48" y1="265.66" x2="243.48" y2="260.18"/>
	
		<line fill="none" stroke="#333333" stroke-width="0.5" stroke-linejoin="round" stroke-miterlimit="10" x1="418.141" y1="265.66" x2="418.141" y2="260.18"/>
	<text transform="matrix(1 0 0 1 -110.8604 282.9609)" font-family="'ArialMT'" font-size="18">0</text>
	<text transform="matrix(1 0 0 1 53.7998 282.9609)" font-family="'ArialMT'" font-size="18">300</text>
	<text transform="matrix(1 0 0 1 228.4609 282.9609)" font-family="'ArialMT'" font-size="18">600</text>
	<text transform="matrix(1 0 0 1 403.1191 282.9609)" font-family="'ArialMT'" font-size="18">900</text>
	<text transform="matrix(1 0 0 1 166.2197 308.1992)" font-family="'ArialMT'" font-size="22">time (seconds)</text>
	<text transform="matrix(1 0 0 1 -122.7803 -80.8008)" font-family="'ArialMT'" font-size="22">8 threads</text>
	<text transform="matrix(0 -1 1 0 -189.2383 124.959)" fill="#FF0000" font-family="'ArialMT'" font-size="22">CPU (%)</text>
	<text transform="matrix(0 1 -1 0 616.3984 15.2402)" fill="#0000FF" font-family="'ArialMT'" font-size="22">Memo</text>
	<text transform="matrix(0 1 -1 0 616.3984 76.3633)" fill="#0000FF" font-family="'ArialMT'" font-size="22">r</text>
	<text transform="matrix(0 1 -1 0 616.3984 84.3281)" fill="#0000FF" font-family="'ArialMT'" font-size="22">y (GB)</text>
</g>
</svg>
