<?xml version="1.0" encoding="UTF-8"?>
<svg id="b" data-name="Layer 2" xmlns="http://www.w3.org/2000/svg" width="432.5" height="216.5" xmlns:xlink="http://www.w3.org/1999/xlink" viewBox="0 0 432.5 216.5">
  <defs>
    <style>
      .e {
        letter-spacing: .03em;
      }

      .f {
        stroke: red;
      }

      .f, .g, .h, .i, .j, .k {
        fill: none;
      }

      .f, .g, .i, .j, .k {
        stroke-linejoin: round;
        stroke-width: .5px;
      }

      .g {
        stroke: #333;
      }

      .l {
        fill: #fff;
      }

      .i {
        stroke: #000;
      }

      .j {
        stroke: blue;
      }

      .k {
        stroke: #fff;
        stroke-linecap: round;
      }

      .m {
        clip-path: url(#d);
      }

      .n {
        font-size: 9px;
      }

      .n, .o, .p, .q {
        font-family: ArialMT, Arial;
      }

      .o {
        fill: blue;
      }

      .o, .p, .q {
        font-size: 11px;
      }

      .p {
        fill: red;
      }
    </style>
    <clipPath id="d">
      <rect class="h" x=".25" y=".25" width="432" height="216"/>
    </clipPath>
  </defs>
  <g id="c" data-name="Layer 1">
    <g>
      <g class="m">
        <rect class="l" x=".25" y=".25" width="432" height="216"/>
        <rect class="k" x=".25" y=".25" width="432" height="216"/>
      </g>
      <g>
        <rect class="l" x="38.73" y="5.73" width="365.05" height="178.61"/>
        <polyline class="f" points="55.32 157.12 55.61 157.12 55.91 157.12 56.2 157.88 56.49 157.12 56.78 157.31 57.07 156.93 57.36 157.88 57.65 157.12 57.94 156.93 58.23 157.31 58.53 157.69 58.82 157.12 59.11 156.93 59.4 157.69 59.69 157.12 59.98 156.93 60.27 157.88 60.56 157.12 60.85 157.12 61.15 157.5 61.44 157.31 61.73 157.69 62.02 156.93 62.31 157.12 62.6 157.5 62.89 157.12 63.18 157.69 63.47 157.12 63.77 157.31 64.06 157.12 64.35 157.31 64.64 157.5 64.93 156.93 65.22 157.5 65.51 157.31 65.8 157.31 66.09 157.5 66.39 157.12 66.68 157.5 66.97 157.31 67.26 157.12 67.55 157.5 67.84 157.31 68.13 157.31 68.42 157.31 68.71 157.5 69.01 157.12 69.3 156.93 69.59 157.69 69.88 158.84 70.17 158.46 70.46 158.65 70.75 157.12 71.04 156.93 71.33 157.12 71.63 157.12 71.92 157.12 72.21 157.31 72.5 157.12 72.79 157.12 73.08 157.12 73.37 157.12 73.66 156.93 73.95 157.12 74.25 157.12 74.54 157.31 74.83 157.12 75.12 156.93 75.41 157.12 75.7 157.12 75.99 157.31 76.28 157.12 76.57 157.12 76.87 157.12 77.16 157.12 77.45 157.31 77.74 157.31 78.03 157.12 78.32 157.31 78.61 157.12 78.9 157.31 79.19 157.31 79.49 157.12 79.78 157.12 80.07 157.31 80.36 157.12 80.65 157.31 80.94 157.12 81.23 157.12 81.52 157.12 81.81 157.12 82.11 157.12 82.4 157.31 82.69 156.93 82.98 157.12 83.27 157.12 83.56 157.12 83.85 157.31 84.14 157.12 84.43 157.12 84.73 157.12 85.02 157.12 85.31 157.12 85.6 157.12 85.89 157.12 86.18 157.12 86.47 157.12 86.76 157.12 87.05 157.12 87.35 157.12 87.64 157.12 87.93 157.31 88.22 157.12 88.51 157.12 88.8 156.93 89.09 157.31 89.38 157.12 89.67 157.12 89.97 157.12 90.26 157.12 90.55 157.12 90.84 157.12 91.13 157.12 91.42 157.12 91.71 157.12 92 157.31 92.29 157.12 92.59 157.12 92.88 157.5 93.17 157.5 93.46 157.12 93.75 157.12 94.04 157.12 94.33 157.12 94.62 156.93 94.91 157.31 95.21 157.12 95.5 157.12 95.79 131.33 96.08 24.16 96.37 24.55 96.66 16.9 96.95 22.64 97.24 22.06 97.53 26.65 97.83 24.16 98.12 19.39 98.41 22.83 98.7 40.97 98.99 116.43 99.28 159.22 99.57 94.84 99.86 19.01 100.15 31.23 100.45 17.29 100.74 28.75 101.03 27.22 101.32 32.95 101.61 121.97 101.9 139.93 102.19 95.8 102.48 97.9 102.77 98.66 103.07 102.87 103.36 103.44 103.65 167.62 103.94 109.36 104.23 27.79 104.52 23.59 104.81 23.4 105.1 23.4 105.39 23.21 105.69 23.59 105.98 23.21 106.27 23.4 106.56 20.15 106.85 23.4 107.14 19.77 107.43 13.85 107.72 20.15 108.01 24.74 108.3 19.2 108.6 24.35 108.89 23.21 109.18 23.59 109.47 24.16 109.76 19.96 110.05 23.59 110.34 23.59 110.63 20.92 110.92 17.48 111.22 20.53 111.51 21.11 111.8 23.21 112.09 20.92 112.38 23.02 112.67 24.35 112.96 23.4 113.25 23.4 113.54 20.34 113.84 20.73 114.13 20.15 114.42 15.57 114.71 22.25 115 20.92 115.29 23.78 115.58 23.4 115.87 24.16 116.16 23.21 116.46 23.59 116.75 23.02 117.04 23.78 117.33 32.57 117.62 42.5 117.91 42.5 118.2 67.34 118.49 114.71 118.78 118.91 119.08 124.83 119.37 168.58 119.66 157.31 119.95 157.12 120.24 157.12 120.53 157.12 120.82 157.12 121.11 157.12 121.4 157.12 121.7 156.93 121.99 131.71 122.28 23.4 122.57 23.4 122.86 18.81 123.15 23.59 123.44 25.31 123.73 22.25 124.02 34.29 124.32 45.56 124.61 102.87 124.9 164.38 125.19 104.2 125.48 21.49 125.77 23.97 126.06 25.31 126.35 32.19 126.64 44.6 126.94 168.96 127.23 111.08 127.52 100.57 127.81 102.87 128.1 92.74 128.39 112.8 128.68 146.99 128.97 53.2 129.26 23.4 129.56 23.4 129.85 23.97 130.14 22.83 130.43 24.35 130.72 23.78 131.01 17.67 131.3 15.38 131.59 18.05 131.88 23.78 132.18 20.34 132.47 23.59 132.76 23.59 133.05 23.59 133.34 19.2 133.63 19.01 133.92 18.62 134.21 23.4 134.5 23.21 134.8 19.58 135.09 24.16 135.38 23.4 135.67 23.4 135.96 23.02 136.25 18.81 136.54 19.96 136.83 23.21 137.12 20.34 137.42 21.3 137.71 21.3 138 19.39 138.29 23.21 138.58 23.4 138.87 36.2 139.16 42.31 139.45 60.08 139.74 80.52 140.04 80.71 140.33 103.25 140.62 151.77 140.91 153.3 141.2 157.5 141.49 157.12 141.78 156.93 142.07 157.12 142.36 157.12 142.66 157.12 142.95 157.12 143.24 157.31 143.53 83.76 143.82 24.74 144.11 28.37 144.4 23.78 144.69 16.33 144.98 20.92 145.28 23.59 145.57 79.75 145.86 164.76 146.15 69.63 146.44 27.03 146.73 18.43 147.02 20.92 147.31 55.49 147.6 170.87 147.9 99.43 148.19 95.99 148.48 94.27 148.77 100 149.06 147.57 149.35 35.82 149.64 23.97 149.93 24.35 150.22 24.16 150.52 23.02 150.81 21.49 151.1 23.59 151.39 19.2 151.68 19.39 151.97 21.3 152.26 23.4 152.55 23.59 152.84 23.21 153.14 19.39 153.43 21.68 153.72 21.68 154.01 22.06 154.3 22.64 154.59 21.49 154.88 23.78 155.17 21.11 155.46 20.73 155.76 19.2 156.05 19.58 156.34 21.3 156.63 23.97 156.92 23.4 157.21 41.36 157.5 62.37 157.79 80.71 158.08 90.83 158.38 117 158.67 151.58 158.96 157.12 159.25 157.12 159.54 157.12 159.83 157.12 160.12 157.12 160.41 157.12 160.7 157.12 161 160.37 161.29 157.12 161.58 156.93 161.87 157.31 162.16 156.93 162.45 155.02 162.74 43.08 163.03 20.92 163.32 27.6 163.62 23.21 163.91 40.97 164.2 128.66 164.49 171.25 164.78 83.95 165.07 25.12 165.36 23.59 165.65 58.36 165.94 137.82 166.24 100 166.53 103.44 166.82 163.23 167.11 83.76 167.4 22.64 167.69 23.78 167.98 23.97 168.27 19.2 168.56 22.44 168.85 18.24 169.15 23.21 169.44 23.97 169.73 19.01 170.02 22.44 170.31 22.25 170.6 21.49 170.89 23.21 171.18 19.2 171.47 21.87 171.77 19.96 172.06 23.4 172.35 22.06 172.64 28.94 172.93 57.98 173.22 96.75 173.51 175.46 173.8 156.93 174.09 157.31 174.39 156.93 174.68 157.12 174.97 157.31 175.26 140.31 175.55 24.16 175.84 25.12 176.13 19.77 176.42 26.07 176.71 43.27 177.01 172.59 177.3 101.15 177.59 20.34 177.88 19.58 178.17 48.61 178.46 143.17 178.75 103.44 179.04 99.24 179.33 157.12 179.63 46.32 179.92 23.21 180.21 24.35 180.5 23.4 180.79 23.59 181.08 28.18 181.37 20.92 181.66 23.21 181.95 23.21 182.25 23.97 182.54 22.64 182.83 17.29 183.12 22.44 183.41 23.59 183.7 22.25 183.99 19.39 184.28 22.06 184.57 22.06 184.87 23.59 185.16 52.24 185.45 90.45 185.74 173.16 186.03 157.12 186.32 157.12 186.61 157.12 186.9 157.12 187.19 157.12 187.49 156.93 187.78 44.22 188.07 25.12 188.36 23.02 188.65 18.81 188.94 22.64 189.23 86.44 189.52 151.2 189.81 44.79 190.11 20.15 190.4 31.42 190.69 75.17 190.98 127.51 191.27 100.57 191.56 90.07 191.85 161.89 192.14 53.2 192.43 23.59 192.73 23.97 193.02 23.78 193.31 23.4 193.6 19.58 193.89 21.3 194.18 22.44 194.47 21.68 194.76 21.49 195.05 19.96 195.35 22.44 195.64 21.87 195.93 21.49 196.22 23.59 196.51 22.06 196.8 21.3 197.09 21.87 197.38 20.34 197.67 22.83 197.97 22.83 198.26 23.4 198.55 27.79 198.84 52.82 199.13 99.81 199.42 118.72 199.71 130.18 200 172.4 200.29 157.12 200.59 157.12 200.88 156.93 201.17 157.31 201.46 157.12 201.75 157.12 202.04 61.6 202.33 21.68 202.62 26.84 202.91 20.73 203.21 18.62 203.5 57.21 203.79 166.86 204.08 63.13 204.37 16.9 204.66 30.09 204.95 54.15 205.24 150.24 205.53 95.23 205.83 93.89 206.12 164.19 206.41 85.67 206.7 24.16 206.99 23.78 207.28 24.35 207.57 24.16 207.86 20.15 208.15 20.15 208.45 21.11 208.74 23.59 209.03 23.02 209.32 22.06 209.61 20.92 209.9 20.15 210.19 21.68 210.48 23.59 210.77 22.25 211.07 20.73 211.36 23.4 211.65 22.06 211.94 20.15 212.23 23.59 212.52 38.68 212.81 42.5 213.1 43.65 213.39 173.36 213.69 157.31 213.98 156.93 214.27 157.12 214.56 157.31 214.85 156.93 215.14 80.9 215.43 23.78 215.72 22.06 216.01 26.46 216.31 56.45 216.6 142.03 216.89 25.69 217.18 20.73 217.47 169.92 217.76 105.35 218.05 101.72 218.34 158.07 218.63 48.61 218.93 24.35 219.22 23.4 219.51 22.83 219.8 19.39 220.09 22.64 220.38 21.87 220.67 22.64 220.96 18.24 221.25 20.53 221.55 22.44 221.84 23.59 222.13 19.77 222.42 19.96 222.71 22.06 223 23.59 223.29 36.96 223.58 95.99 223.87 165.91 224.17 157.12 224.46 157.12 224.75 157.12 225.04 157.12 225.33 46.13 225.62 19.2 225.91 21.11 226.2 21.87 226.49 113.37 226.79 112.99 227.08 19.96 227.37 23.02 227.66 167.43 227.95 96.75 228.24 100.38 228.53 150.62 228.82 34.86 229.11 23.97 229.4 24.55 229.7 23.4 229.99 19.01 230.28 20.73 230.57 21.87 230.86 23.97 231.15 22.83 231.44 20.53 231.73 19.96 232.02 23.59 232.32 22.25 232.61 21.3 232.9 19.58 233.19 21.11 233.48 22.64 233.77 23.21 234.06 37.54 234.35 85.48 234.64 136.11 234.94 157.12 235.23 157.12 235.52 172.78 235.81 157.31 236.1 157.12 236.39 157.12 236.68 157.12 236.97 142.22 237.26 23.97 237.56 28.56 237.85 20.92 238.14 19.2 238.43 74.59 238.72 152.34 239.01 35.05 239.3 21.3 239.59 42.88 239.88 157.5 240.18 97.71 240.47 101.72 240.76 150.24 241.05 36.39 241.34 23.97 241.63 24.35 241.92 22.25 242.21 22.83 242.5 21.68 242.8 19.77 243.09 23.97 243.38 23.21 243.67 22.06 243.96 21.68 244.25 20.92 244.54 22.44 244.83 21.87 245.12 23.78 245.42 19.39 245.71 22.25 246 20.73 246.29 23.78 246.58 29.32 246.87 42.88 247.16 51.48 247.45 100.96 247.74 138.02 248.04 174.69 248.33 157.31 248.62 156.93 248.91 157.12 249.2 157.31 249.49 156.93 249.78 157.31 250.07 156.93 250.36 150.81 250.66 29.89 250.95 24.55 251.24 17.48 251.53 26.84 251.82 22.83 252.11 21.87 252.4 28.75 252.69 128.27 252.98 161.89 253.28 77.65 253.57 25.69 253.86 28.75 254.15 22.83 254.44 53.39 254.73 146.8 255.02 91.6 255.31 95.03 255.6 86.82 255.9 146.99 256.19 41.93 256.48 23.21 256.77 25.12 257.06 23.59 257.35 23.4 257.64 18.43 257.93 20.53 258.22 22.25 258.52 20.73 258.81 23.59 259.1 21.87 259.39 23.97 259.68 21.68 259.97 20.92 260.26 24.16 260.55 21.68 260.84 23.4 261.14 22.25 261.43 19.77 261.72 21.3 262.01 21.49 262.3 22.25 262.59 22.25 262.88 24.16 263.17 23.21 263.46 23.4 263.76 51.1 264.05 89.88 264.34 134.39 264.63 157.31 264.92 156.93 265.21 157.12 265.5 157.12 265.79 172.97 266.08 156.93 266.38 157.12 266.67 157.31 266.96 157.12 267.25 157.12 267.54 156.93 267.83 157.31 268.12 152.53 268.41 31.42 268.7 23.59 269 30.47 269.29 20.15 269.58 21.49 269.87 19.77 270.16 48.23 270.45 143.56 270.74 153.68 271.03 42.31 271.32 18.43 271.62 24.16 271.91 23.97 272.2 174.5 272.49 108.02 272.78 87.39 273.07 93.12 273.36 165.33 273.65 69.82 273.94 23.78 274.24 24.35 274.53 24.35 274.82 21.3 275.11 20.15 275.4 22.06 275.69 21.11 275.98 22.44 276.27 23.78 276.56 19.96 276.86 22.44 277.15 19.58 277.44 20.73 277.73 23.21 278.02 21.87 278.31 20.73 278.6 23.97 278.89 23.59 279.18 21.11 279.48 21.3 279.77 22.44 280.06 23.59 280.35 39.06 280.64 42.5 280.93 52.44 281.22 86.44 281.51 117.96 281.8 133.24 282.1 138.21 282.39 156.35 282.68 157.12 282.97 157.12 283.26 174.88 283.55 157.12 283.84 157.12 284.13 150.62 284.42 23.4 284.72 40.4 285.01 96.56 285.3 62.75 285.59 115.47 285.88 139.16 286.17 23.97 286.46 22.64 286.75 21.3 287.04 22.44 287.34 22.83 287.63 22.83 287.92 20.34 288.21 21.87 288.5 61.8 288.79 153.3 289.08 161.13 289.37 157.31 289.66 157.12 289.95 157.12 290.25 150.43 290.54 22.83 290.83 20.73 291.12 22.25 291.41 23.97 291.7 175.65 291.99 104.97 292.28 19.96 292.57 25.31 292.87 164.38 293.16 96.94 293.45 92.55 293.74 93.7 294.03 24.55 294.32 23.4 294.61 22.25 294.9 21.49 295.19 21.11 295.49 23.78 295.78 21.3 296.07 23.97 296.36 22.06 296.65 21.11 296.94 22.64 297.23 20.53 297.52 22.25 297.81 23.21 298.11 20.73 298.4 47.85 298.69 82.43 298.98 114.9 299.27 168.96 299.56 156.93 299.85 157.31 300.14 157.12 300.43 156.93 300.73 69.44 301.02 21.3 301.31 25.12 301.6 24.35 301.89 173.16 302.18 80.9 302.47 19.2 302.76 29.7 303.05 143.17 303.35 94.65 303.64 162.08 303.93 50.53 304.22 23.78 304.51 23.02 304.8 22.83 305.09 21.87 305.38 21.3 305.67 23.59 305.97 22.44 306.26 23.02 306.55 22.06 306.84 20.73 307.13 20.15 307.42 23.59 307.71 21.87 308 19.39 308.29 25.31 308.59 42.69 308.88 55.68 309.17 107.64 309.46 141.45 309.75 159.79 310.04 157.12 310.33 157.12 310.62 156.93 310.91 157.31 311.21 157.12 311.5 54.15 311.79 25.12 312.08 27.98 312.37 18.43 312.66 21.87 312.95 64.85 313.24 168.77 313.53 79.56 313.83 18.43 314.12 33.14 314.41 49 314.7 139.54 314.99 87.78 315.28 91.6 315.57 130.95 315.86 24.55 316.15 23.21 316.45 23.4 316.74 19.96 317.03 19.39 317.32 23.21 317.61 23.21 317.9 23.78 318.19 21.3 318.48 18.43 318.77 22.83 319.07 23.4 319.36 23.78 319.65 21.49 319.94 21.3 320.23 21.49 320.52 22.06 320.81 26.65 321.1 42.69 321.39 82.62 321.69 144.89 321.98 161.32 322.27 157.12 322.56 157.31 322.85 156.93 323.14 157.12 323.43 157.31 323.72 156.93 324.01 157.12 324.31 79.56 324.6 23.78 324.89 20.92 325.18 23.78 325.47 17.86 325.76 21.49 326.05 24.35 326.34 94.84 326.63 162.66 326.93 62.18 327.22 22.44 327.51 21.87 327.8 17.48 328.09 59.12 328.38 151.39 328.67 78.42 328.96 84.91 329.25 87.01 329.55 144.32 329.84 38.49 330.13 23.4 330.42 24.35 330.71 24.16 331 23.59 331.29 20.73 331.58 22.83 331.87 20.92 332.17 22.25 332.46 22.25 332.75 21.68 333.04 24.55 333.33 21.49 333.62 22.83 333.91 18.62 334.2 20.73 334.49 21.87 334.79 23.21 335.08 20.53 335.37 23.78 335.66 19.96 335.95 23.97 336.24 21.87 336.53 23.4 336.82 38.68 337.11 73.83 337.41 96.56 337.7 120.25 337.99 144.7 338.28 161.89 338.57 157.31 338.86 157.12 339.15 121.21 339.44 20.92 339.73 47.85 340.03 148.14 340.32 16.52 340.61 131.9 340.9 150.81 341.19 25.69 341.48 23.21 341.77 22.06 342.06 21.87 342.35 22.64 342.65 20.15 342.94 23.02 343.23 21.49 343.52 21.3 343.81 50.14 344.1 113.56 344.39 142.98 344.68 171.06 344.97 157.12 345.27 157.12 345.56 157.12 345.85 157.12 346.14 157.12 346.43 157.12 346.72 157.12 347.01 155.59 347.3 32.19 347.59 23.4 347.89 19.96 348.18 22.44 348.47 23.78 348.76 23.02 349.05 28.56 349.34 115.47 349.63 161.7 349.92 53.2 350.21 19.39 350.5 28.18 350.8 21.49 351.09 173.36 351.38 118.34 351.67 82.43 351.96 82.24 352.25 166.29 352.54 93.89 352.83 22.44 353.12 23.97 353.42 23.78 353.71 23.78 354 21.87 354.29 19.39 354.58 19.77 354.87 22.64 355.16 23.78 355.45 23.4 355.74 21.87 356.04 20.53 356.33 23.4 356.62 22.06 356.91 21.3 357.2 24.16 357.49 23.21 357.78 19.77 358.07 20.34 358.36 20.34 358.66 23.21 358.95 23.97 359.24 23.59 359.53 33.52 359.82 96.37 360.11 132.48 360.4 138.02 360.69 173.16 360.98 157.31 361.28 157.12 361.57 157.12 361.86 133.62 362.15 20.73 362.44 22.44 362.73 172.02 363.02 63.51 363.31 27.79 363.6 119.1 363.9 151.77 364.19 25.31 364.48 24.55 364.77 22.64 365.06 21.87 365.35 23.59 365.64 21.49 365.93 22.64 366.22 22.06 366.52 22.64 366.81 23.4 367.1 21.87 367.39 44.41 367.68 75.74 367.97 112.8 368.26 166.86 368.55 157.12 368.84 75.36 369.14 168.39 369.43 63.9 369.72 159.79 370.01 29.13 370.3 22.25 370.59 22.25 370.88 22.64 371.17 36.96 371.46 136.68 371.76 158.46 372.05 157.31 372.34 143.94 372.63 21.11 372.92 20.92 373.21 171.06 373.5 43.08 373.79 169.73 374.08 92.74 374.38 88.54 374.67 23.97 374.96 23.02 375.25 22.06 375.54 23.4 375.83 21.11 376.12 21.11 376.41 23.21 376.7 21.68 377 41.74 377.29 98.85 377.58 172.78 377.87 157.12 378.16 157.12 378.45 157.12 378.74 157.12 379.03 70.01 379.32 19.96 379.62 21.49 379.91 23.78 380.2 172.4 380.49 72.49 380.78 19.96 381.07 46.13 381.36 122.73 381.65 94.27 381.94 151.01 382.24 30.09 382.53 22.25 382.82 22.83 383.11 22.06 383.4 23.78 383.69 22.06 383.98 19.77 384.27 21.49 384.56 24.16 384.86 36.39 385.15 94.08 385.44 167.62 385.73 111.27 386.02 166.86 386.31 157.69 386.6 176.22 386.89 176.22 387.18 176.22"/>
        <polyline class="j" points="55.32 167.65 55.61 163.27 55.91 159.21 56.2 155.06 56.49 162.22 56.78 157.12 57.07 152.73 57.36 158.43 57.65 161.45 57.94 157.09 58.23 152.07 58.53 164.88 58.82 160.55 59.11 156.13 59.4 165.18 59.69 161.12 59.98 157.39 60.27 165.83 60.56 161.8 60.85 157.92 61.15 165.3 61.44 160.67 61.73 165.56 62.02 163.42 62.31 159.6 62.6 165.09 62.89 160.85 63.18 166.82 63.47 162.16 63.77 167.48 64.06 163.86 64.35 160.49 64.64 165.24 64.93 157.15 65.22 165.09 65.51 157.12 65.8 164.97 66.09 167.39 66.39 161.74 66.68 166.64 66.97 169.21 67.26 164.97 67.55 166.64 67.84 167.83 68.13 167.71 68.42 168.07 68.71 169.39 69.01 165.21 69.3 157.66 69.59 162.82 69.88 171.95 70.17 171.92 70.46 171.92 70.75 171.5 71.04 171.68 71.33 171.68 71.63 171.68 71.92 171.65 72.21 171.62 72.5 171.62 72.79 171.59 73.08 171.56 73.37 171.53 73.66 171.53 73.95 171.5 74.25 171.47 74.54 171.47 74.83 171.45 75.12 171.42 75.41 171.42 75.7 171.39 75.99 171.36 76.28 171.33 76.57 171.33 76.87 171.3 77.16 171.3 77.45 171.53 77.74 168.22 78.03 158.4 78.32 161.33 78.61 161.36 78.9 161.33 79.19 161.36 79.49 161.33 79.78 161.33 80.07 161.33 80.36 161.33 80.65 161.33 80.94 171.83 81.23 171.83 81.52 171.83 81.81 171.83 82.11 171.83 82.4 171.83 82.69 171.83 82.98 171.83 83.27 171.83 83.56 171.83 83.85 171.83 84.14 171.83 84.43 171.83 84.73 171.83 85.02 171.83 85.31 171.83 85.6 171.83 85.89 171.83 86.18 171.83 86.47 171.8 86.76 171.77 87.05 171.77 87.35 171.74 87.64 171.74 87.93 171.74 88.22 171.68 88.51 171.68 88.8 171.65 89.09 171.62 89.38 171.62 89.67 171.59 89.97 171.59 90.26 171.56 90.55 171.53 90.84 171.53 91.13 171.5 91.42 171.47 91.71 171.42 92 171.42 92.29 171.42 92.59 171.42 92.88 171.12 93.17 160.73 93.46 163.33 93.75 163.15 94.04 162.97 94.33 162.79 94.62 162.64 94.91 162.49 95.21 161.95 95.5 161.57 95.79 49.81 96.08 47.87 96.37 47.87 96.66 47.64 96.95 47.58 97.24 47.58 97.53 47.43 97.83 47.43 98.12 47.34 98.41 47.34 98.7 47.31 98.99 47.25 99.28 103.36 99.57 100.59 99.86 102.2 100.15 101.48 100.45 102.2 100.74 102.17 101.03 101.33 101.32 103.57 101.61 103.57 101.9 88.89 102.19 88.23 102.48 87.9 102.77 86.86 103.07 87.01 103.36 86.5 103.65 89.21 103.94 85.21 104.23 84.83 104.52 84.71 104.81 84.62 105.1 84.59 105.39 84.59 105.69 84.53 105.98 84.53 106.27 84.53 106.56 84.47 106.85 84.32 107.14 84.11 107.43 84.2 107.72 83.84 108.01 83.9 108.3 83.93 108.6 83.93 108.89 83.93 109.18 83.93 109.47 83.84 109.76 82.56 110.05 83.87 110.34 83.84 110.63 83.57 110.92 83.87 111.22 82.68 111.51 83.84 111.8 83.87 112.09 82.5 112.38 83.84 112.67 83.84 112.96 83.75 113.25 83.81 113.54 83.78 113.84 83.81 114.13 83.81 114.42 83.1 114.71 83.87 115 82.38 115.29 83.84 115.58 83.84 115.87 83.81 116.16 85.27 116.46 85.3 116.75 85.3 117.04 85.27 117.33 85.33 117.62 85.33 117.91 85.33 118.2 85.36 118.49 85.48 118.78 85.42 119.08 85.51 119.37 163.89 119.66 163.89 119.95 153.92 120.24 158.31 120.53 158.31 120.82 158.31 121.11 158.31 121.4 158.31 121.7 158.25 121.99 24.06 122.28 23.19 122.57 23.19 122.86 22.89 123.15 22.89 123.44 22.8 123.73 22.77 124.02 22.74 124.32 22.74 124.61 22.65 124.9 78.32 125.19 76.86 125.48 78.02 125.77 76.8 126.06 77.16 126.35 78.02 126.64 79.19 126.94 73.48 127.23 72.14 127.52 71.54 127.81 72.08 128.1 70.95 128.39 74.41 128.68 71.63 128.97 72.2 129.26 73.36 129.56 73.33 129.85 73.33 130.14 73.28 130.43 73.25 130.72 73.19 131.01 72.05 131.3 70.77 131.59 73.33 131.88 73.28 132.18 73.25 132.47 73.16 132.76 73.13 133.05 73.19 133.34 73.19 133.63 72.35 133.92 73.19 134.21 73.22 134.5 73.13 134.8 73.16 135.09 73.16 135.38 72.86 135.67 72.8 135.96 71.69 136.25 72.92 136.54 72.89 136.83 72.74 137.12 72.74 137.42 72.77 137.71 72.8 138 72.8 138.29 72.98 138.58 74.11 138.87 74.08 139.16 74.08 139.45 74.08 139.74 74.23 140.04 74.23 140.33 74.23 140.62 74.23 140.91 74.23 141.2 164.16 141.49 162.16 141.78 159.66 142.07 159.66 142.36 159.66 142.66 159.66 142.95 159.66 143.24 159.66 143.53 37.67 143.82 37.67 144.11 37.64 144.4 37.61 144.69 37.55 144.98 37.49 145.28 37.49 145.57 37.43 145.86 80.65 146.15 79.69 146.44 79.13 146.73 79.69 147.02 80.65 147.31 81.6 147.6 72.89 147.9 72.23 148.19 71.93 148.48 72.14 148.77 73.19 149.06 65.48 149.35 66.86 149.64 66.86 149.93 66.86 150.22 66.86 150.52 66.86 150.81 66.86 151.1 66.86 151.39 66.86 151.68 66.92 151.97 66.86 152.26 66.86 152.55 66.86 152.84 66.86 153.14 66.89 153.43 66.86 153.72 66.86 154.01 66.89 154.3 66.86 154.59 65.81 154.88 66.86 155.17 66.86 155.46 66.86 155.76 66.86 156.05 66.86 156.34 66.86 156.63 66.86 156.92 67.93 157.21 67.93 157.5 67.93 157.79 67.93 158.08 67.93 158.38 67.93 158.67 67.93 158.96 67.93 159.25 67.93 159.54 67.93 159.83 67.93 160.12 67.93 160.41 67.93 160.7 67.93 161 162.73 161.29 152.7 161.58 158.31 161.87 158.31 162.16 158.31 162.45 28.18 162.74 28.18 163.03 28.18 163.32 28.18 163.62 28.18 163.91 28.18 164.2 28.18 164.49 131.24 164.78 65.1 165.07 65.1 165.36 65.1 165.65 65.1 165.94 66.83 166.24 65.1 166.53 65.1 166.82 70.35 167.11 69.48 167.4 70.29 167.69 70.29 167.98 70.29 168.27 72.89 168.56 72.11 168.85 77.22 169.15 77.22 169.44 77.22 169.73 75.57 170.02 77.22 170.31 77.22 170.6 75.57 170.89 77.22 171.18 77.22 171.47 77.22 171.77 77.22 172.06 77.22 172.35 77.22 172.64 77.22 172.93 77.22 173.22 77.22 173.51 162.94 173.8 163 174.09 158.43 174.39 158.43 174.68 158.43 174.97 158.43 175.26 29.25 175.55 29.25 175.84 29.25 176.13 29.25 176.42 29.22 176.71 29.19 177.01 158.31 177.3 73.51 177.59 73.28 177.88 73.28 178.17 73.28 178.46 74.02 178.75 73.28 179.04 73.28 179.33 74.65 179.63 73.04 179.92 73.04 180.21 73.01 180.5 72.95 180.79 72.89 181.08 72.89 181.37 72.89 181.66 72.89 181.95 72.89 182.25 72.86 182.54 72.86 182.83 72.83 183.12 72.83 183.41 72.83 183.7 72.83 183.99 72.83 184.28 72.83 184.57 72.83 184.87 72.8 185.16 72.8 185.45 72.8 185.74 163.54 186.03 163.54 186.32 159.12 186.61 159.12 186.9 159.12 187.19 159.12 187.49 35.43 187.78 35.43 188.07 35.43 188.36 35.4 188.65 35.34 188.94 35.31 189.23 35.28 189.52 75.39 189.81 72.08 190.11 72.08 190.4 72.08 190.69 72.08 190.98 73.42 191.27 72.08 191.56 72.08 191.85 74.95 192.14 76.62 192.43 76.62 192.73 76.62 193.02 76.62 193.31 74.98 193.6 77.33 193.89 75.93 194.18 77.57 194.47 77.57 194.76 77.57 195.05 77.57 195.35 75.9 195.64 77.57 195.93 77.57 196.22 77.57 196.51 75.9 196.8 77.57 197.09 77.57 197.38 77.57 197.67 75.9 197.97 77.57 198.26 77.57 198.55 77.57 198.84 77.57 199.13 77.57 199.42 77.57 199.71 77.57 200 163.06 200.29 163.09 200.59 159.33 200.88 159.33 201.17 159.33 201.46 159.33 201.75 113.57 202.04 37.31 202.33 37.31 202.62 37.31 202.91 37.31 203.21 37.28 203.5 37.25 203.79 76.47 204.08 72.29 204.37 72.29 204.66 72.29 204.95 72.29 205.24 74.68 205.53 72.29 205.83 72.29 206.12 77.07 206.41 71.81 206.7 71.81 206.99 71.81 207.28 71.81 207.57 71.81 207.86 71.81 208.15 71.81 208.45 71.81 208.74 71.81 209.03 71.81 209.32 71.81 209.61 71.81 209.9 71.81 210.19 71.81 210.48 71.81 210.77 71.81 211.07 71.81 211.36 71.81 211.65 71.81 211.94 71.81 212.23 71.81 212.52 71.81 212.81 71.81 213.1 71.81 213.39 163.74 213.69 163.74 213.98 158.25 214.27 158.25 214.56 158.25 214.85 158.25 215.14 27.64 215.43 27.64 215.72 27.64 216.01 27.64 216.31 27.64 216.6 64.98 216.89 64.98 217.18 64.98 217.47 64.98 217.76 64.98 218.05 64.98 218.34 64.95 218.63 64.95 218.93 64.92 219.22 64.92 219.51 64.86 219.8 64.86 220.09 64.86 220.38 64.86 220.67 64.86 220.96 64.86 221.25 64.86 221.55 64.86 221.84 64.83 222.13 64.8 222.42 64.8 222.71 64.8 223 64.77 223.29 64.77 223.58 64.77 223.87 162.37 224.17 155.15 224.46 158.52 224.75 158.52 225.04 46.11 225.33 30.06 225.62 30.06 225.91 30.06 226.2 30.06 226.49 30.06 226.79 65.51 227.08 65.51 227.37 65.51 227.66 65.51 227.95 65.51 228.24 65.51 228.53 64.83 228.82 64.68 229.11 64.65 229.4 64.62 229.7 64.59 229.99 64.59 230.28 64.59 230.57 64.59 230.86 64.59 231.15 64.59 231.44 64.59 231.73 64.77 232.02 64.59 232.32 64.59 232.61 65.25 232.9 64.59 233.19 64.59 233.48 64.59 233.77 65.25 234.06 65.25 234.35 65.25 234.64 65.25 234.94 65.25 235.23 65.25 235.52 162.43 235.81 161.8 236.1 158.67 236.39 158.67 236.68 158.67 236.97 31.31 237.26 31.16 237.56 31.16 237.85 31.16 238.14 31.16 238.43 31.13 238.72 65.16 239.01 65.01 239.3 65.01 239.59 65.01 239.88 65.16 240.18 65.01 240.47 65.01 240.76 65.16 241.05 65.01 241.34 65.01 241.63 65.01 241.92 65.01 242.21 65.01 242.5 65.01 242.8 65.01 243.09 65.01 243.38 65.01 243.67 65.01 243.96 65.01 244.25 64.98 244.54 65.01 244.83 65.01 245.12 65.01 245.42 65.01 245.71 65.01 246 65.01 246.29 65.01 246.58 65.01 246.87 65.01 247.16 65.01 247.45 65.01 247.74 65.01 248.04 162.43 248.33 162.43 248.62 158.61 248.91 158.61 249.2 158.61 249.49 158.61 249.78 158.61 250.07 158.4 250.36 26.92 250.66 26.59 250.95 26.59 251.24 26.5 251.53 26.29 251.82 26.26 252.11 26.21 252.4 26.18 252.69 26.15 252.98 60.41 253.28 60.41 253.57 60.41 253.86 60.41 254.15 60.41 254.44 60.41 254.73 60.41 255.02 60.41 255.31 60.41 255.6 60.41 255.9 59.52 256.19 60.41 256.48 60.38 256.77 60.35 257.06 60.38 257.35 60.35 257.64 63.66 257.93 67.01 258.22 68.68 258.52 70.23 258.81 72.05 259.1 71.93 259.39 73.75 259.68 73.69 259.97 73.75 260.26 73.75 260.55 73.72 260.84 73.72 261.14 73.75 261.43 73.75 261.72 73.72 262.01 73.75 262.3 73.75 262.59 73.75 262.88 73.75 263.17 73.69 263.46 73.72 263.76 73.72 264.05 73.72 264.34 73.72 264.63 73.72 264.92 73.69 265.21 73.69 265.5 73.72 265.79 161.89 266.08 161.89 266.38 155.8 266.67 158.25 266.96 158.25 267.25 158.25 267.54 158.25 267.83 158.25 268.12 27.64 268.41 27.64 268.7 27.64 269 27.61 269.29 27.58 269.58 27.55 269.87 27.49 270.16 27.49 270.45 27.43 270.74 59.87 271.03 59.87 271.32 59.87 271.62 59.87 271.91 59.87 272.2 59.87 272.49 59.87 272.78 59.87 273.07 59.87 273.36 59.84 273.65 59.63 273.94 59.6 274.24 59.55 274.53 59.46 274.82 59.46 275.11 59.46 275.4 59.46 275.69 59.46 275.98 59.46 276.27 59.46 276.56 59.46 276.86 59.46 277.15 59.43 277.44 59.43 277.73 59.4 278.02 59.4 278.31 59.4 278.6 59.4 278.89 59.4 279.18 59.4 279.48 59.4 279.77 59.4 280.06 59.4 280.35 59.4 280.64 59.4 280.93 59.4 281.22 59.4 281.51 59.4 281.8 59.4 282.1 59.4 282.39 59.4 282.68 59.4 282.97 59.4 283.26 161.83 283.55 161.86 283.84 158.97 284.13 34.08 284.42 34.08 284.72 34.08 285.01 63.9 285.3 76.2 285.59 63.9 285.88 63.93 286.17 63.9 286.46 63.9 286.75 63.9 287.04 63.9 287.34 63.9 287.63 63.9 287.92 63.9 288.21 63.9 288.5 63.9 288.79 63.9 289.08 157.69 289.37 159.39 289.66 159.39 289.95 159.39 290.25 37.85 290.54 37.61 290.83 37.61 291.12 37.61 291.41 37.61 291.7 159.36 291.99 64.98 292.28 64.98 292.57 64.98 292.87 64.98 293.16 64.98 293.45 64.98 293.74 64.98 294.03 64.98 294.32 64.98 294.61 64.98 294.9 64.95 295.19 64.95 295.49 64.95 295.78 64.95 296.07 64.95 296.36 64.95 296.65 64.95 296.94 64.95 297.23 64.92 297.52 64.92 297.81 64.92 298.11 64.89 298.4 64.89 298.69 64.89 298.98 64.89 299.27 162.4 299.56 159.57 299.85 159.57 300.14 159.57 300.43 159.57 300.73 39.46 301.02 39.46 301.31 39.46 301.6 39.46 301.89 159.57 302.18 65.51 302.47 65.51 302.76 65.51 303.05 65.51 303.35 65.51 303.64 65.51 303.93 65.51 304.22 65.48 304.51 65.43 304.8 65.43 305.09 65.43 305.38 65.43 305.67 65.43 305.97 65.43 306.26 65.43 306.55 65.43 306.84 65.43 307.13 65.4 307.42 65.37 307.71 65.37 308 65.37 308.29 65.37 308.59 65.34 308.88 65.31 309.17 65.31 309.46 65.31 309.75 162.46 310.04 159.95 310.33 159.95 310.62 159.95 310.91 159.95 311.21 159.77 311.5 41.07 311.79 40.83 312.08 40.77 312.37 40.71 312.66 40.65 312.95 40.65 313.24 63.1 313.53 62.86 313.83 62.86 314.12 62.86 314.41 62.86 314.7 62.98 314.99 62.86 315.28 62.86 315.57 62.98 315.86 62.86 316.15 62.86 316.45 62.86 316.74 62.86 317.03 62.86 317.32 62.86 317.61 62.86 317.9 62.86 318.19 62.86 318.48 62.86 318.77 62.86 319.07 62.86 319.36 62.86 319.65 62.86 319.94 62.86 320.23 62.86 320.52 62.86 320.81 62.86 321.1 62.86 321.39 62.86 321.69 62.86 321.98 162.19 322.27 157.98 322.56 159.89 322.85 159.89 323.14 159.89 323.43 159.89 323.72 159.89 324.01 159.68 324.31 39.73 324.6 39.61 324.89 39.43 325.18 39.4 325.47 39.31 325.76 39.28 326.05 39.28 326.34 39.22 326.63 59.34 326.93 59.34 327.22 59.34 327.51 59.34 327.8 59.34 328.09 59.34 328.38 59.34 328.67 59.34 328.96 59.34 329.25 59.34 329.55 59.34 329.84 59.28 330.13 59.22 330.42 59.22 330.71 59.19 331 59.19 331.29 59.16 331.58 59.16 331.87 59.16 332.17 59.16 332.46 59.13 332.75 59.13 333.04 59.13 333.33 59.13 333.62 59.13 333.91 59.13 334.2 59.13 334.49 59.13 334.79 59.13 335.08 59.13 335.37 59.13 335.66 59.13 335.95 59.13 336.24 59.13 336.53 59.13 336.82 59.13 337.11 59.13 337.41 59.13 337.7 59.13 337.99 59.13 338.28 161.77 338.57 159.6 338.86 159.74 339.15 41.07 339.44 41.07 339.73 41.07 340.03 62.02 340.32 62.2 340.61 62.02 340.9 62.02 341.19 62.02 341.48 62.02 341.77 62.02 342.06 62.02 342.35 62.02 342.65 62.02 342.94 62.02 343.23 62.02 343.52 62.11 343.81 62.05 344.1 62.05 344.39 62.05 344.68 162.07 344.97 162.31 345.27 162.31 345.56 162.31 345.85 162.31 346.14 162.31 346.43 162.31 346.72 162.13 347.01 60.38 347.3 59.9 347.59 59.9 347.89 59.81 348.18 59.78 348.47 59.72 348.76 59.69 349.05 59.66 349.34 59.63 349.63 59.55 349.92 59.34 350.21 59.75 350.5 59.81 350.8 59.81 351.09 149 351.38 59.58 351.67 59.81 351.96 59.81 352.25 59.58 352.54 59.37 352.83 59.34 353.12 59.34 353.42 59.34 353.71 59.34 354 59.37 354.29 59.6 354.58 59.72 354.87 59.78 355.16 59.78 355.45 59.75 355.74 59.78 356.04 59.78 356.33 59.75 356.62 59.78 356.91 59.75 357.2 59.78 357.49 59.78 357.78 59.78 358.07 59.78 358.36 59.78 358.66 59.75 358.95 59.78 359.24 59.78 359.53 59.78 359.82 59.78 360.11 59.78 360.4 59.78 360.69 161.77 360.98 161.77 361.28 160.25 361.57 160.25 361.86 45.64 362.15 45.64 362.44 45.64 362.73 162.1 363.02 62.35 363.31 62.53 363.6 62.53 363.9 62.38 364.19 62.29 364.48 62.29 364.77 62.35 365.06 62.38 365.35 62.41 365.64 62.38 365.93 62.38 366.22 62.38 366.52 62.38 366.81 62.38 367.1 62.38 367.39 62.38 367.68 62.38 367.97 62.38 368.26 162.13 368.55 162.22 368.84 63.37 369.14 63.63 369.43 75.96 369.72 63.63 370.01 63.57 370.3 63.57 370.59 63.54 370.88 63.57 371.17 63.6 371.46 63.63 371.76 162.31 372.05 162.37 372.34 64.71 372.63 64.71 372.92 64.71 373.21 65.48 373.5 65.25 373.79 162.43 374.08 65.25 374.38 65.25 374.67 65.25 374.96 65.25 375.25 65.25 375.54 65.25 375.83 65.25 376.12 65.25 376.41 65.25 376.7 65.25 377 65.25 377.29 65.25 377.58 162.43 377.87 157.24 378.16 159.71 378.45 159.71 378.74 159.71 379.03 40.56 379.32 40.56 379.62 40.56 379.91 40.56 380.2 159.71 380.49 76.5 380.78 76.5 381.07 76.5 381.36 76.5 381.65 76.5 381.94 78.35 382.24 76.02 382.53 76.02 382.82 76.02 383.11 76.02 383.4 76.02 383.69 76.02 383.98 76.02 384.27 76.02 384.56 76.02 384.86 76.02 385.15 76.02 385.44 164.13 385.73 74.44 386.02 164.16 386.31 164.16 386.6 174.64 386.89 174.64 387.18 174.64"/>
      </g>
      <line class="i" x1="38.73" y1="184.34" x2="38.73" y2="5.73"/>
      <text class="n" transform="translate(28.8 179.45)"><tspan x="0" y="0">0</tspan></text>
      <text class="n" transform="translate(18.79 141.25)"><tspan x="0" y="0">200</tspan></text>
      <text class="n" transform="translate(18.79 103.04)"><tspan x="0" y="0">400</tspan></text>
      <text class="n" transform="translate(18.79 64.84)"><tspan x="0" y="0">600</tspan></text>
      <text class="n" transform="translate(18.79 26.63)"><tspan x="0" y="0">800</tspan></text>
      <line class="g" x1="35.99" y1="176.22" x2="38.73" y2="176.22"/>
      <line class="g" x1="35.99" y1="138.02" x2="38.73" y2="138.02"/>
      <line class="g" x1="35.99" y1="99.81" x2="38.73" y2="99.81"/>
      <line class="g" x1="35.99" y1="61.6" x2="38.73" y2="61.6"/>
      <line class="g" x1="35.99" y1="23.4" x2="38.73" y2="23.4"/>
      <line class="i" x1="403.78" y1="184.34" x2="403.78" y2="5.73"/>
      <line class="g" x1="403.78" y1="176.29" x2="406.52" y2="176.29"/>
      <line class="g" x1="403.78" y1="115.15" x2="406.52" y2="115.15"/>
      <line class="g" x1="403.78" y1="54" x2="406.52" y2="54"/>
      <text class="n" transform="translate(408.71 179.52)"><tspan x="0" y="0">0</tspan></text>
      <text class="n" transform="translate(408.71 118.38)"><tspan x="0" y="0">2</tspan></text>
      <text class="n" transform="translate(408.71 57.23)"><tspan x="0" y="0">4</tspan></text>
      <line class="i" x1="38.73" y1="184.34" x2="403.78" y2="184.34"/>
      <line class="g" x1="55.32" y1="187.08" x2="55.32" y2="184.34"/>
      <line class="g" x1="142.66" y1="187.08" x2="142.66" y2="184.34"/>
      <line class="g" x1="229.99" y1="187.08" x2="229.99" y2="184.34"/>
      <line class="g" x1="317.32" y1="187.08" x2="317.32" y2="184.34"/>
      <text class="n" transform="translate(52.82 195.73)"><tspan x="0" y="0">0</tspan></text>
      <text class="n" transform="translate(135.15 195.73)"><tspan x="0" y="0">300</tspan></text>
      <text class="n" transform="translate(222.48 195.73)"><tspan x="0" y="0">600</tspan></text>
      <text class="n" transform="translate(309.81 195.73)"><tspan x="0" y="0">900</tspan></text>
      <text class="q" transform="translate(191.36 208.35)"><tspan x="0" y="0">time (seconds)</tspan></text>
      <text class="q" transform="translate(46.86 13.85)"><tspan x="0" y="0">8 threads</tspan></text>
      <text class="p" transform="translate(13.63 116.73) rotate(-90)"><tspan x="0" y="0">CPU (%)</tspan></text>
      <text class="o" transform="translate(416.45 61.87) rotate(90)"><tspan x="0" y="0">Memo</tspan><tspan class="e" x="30.56" y="0">r</tspan><tspan x="34.54" y="0">y (GB)</tspan></text>
    </g>
  </g>
</svg>