<?xml version="1.0" encoding="UTF-8"?>
<svg id="a" data-name="Layer 1" xmlns="http://www.w3.org/2000/svg" width="3.82in" height="5.08in" viewBox="0 0 275.07 365.99">
  <defs>
    <style>
      .b {
        stroke: #000;
        stroke-width: .5px;
      }

      .b, .c, .d, .e, .f, .g, .h {
        fill: none;
        stroke-miterlimit: 10;
      }

      .i {
        fill: #006837;
      }

      .i, .j, .k, .l, .m, .n {
        font-family: ArialMT, Arial;
      }

      .i, .k, .m, .n {
        font-size: 6px;
      }

      .c, .d, .f, .h {
        stroke-width: .52px;
      }

      .c, .e {
        stroke: blue;
      }

      .j, .l {
        font-size: 6px;
      }

      .o {
        letter-spacing: -.06em;
      }

      .k {
        fill: blue;
      }

      .p {
        fill: #cff;
      }

      .d {
        stroke-dasharray: 1 1;
      }

      .d, .f, .h {
        stroke: #f7931e;
      }

      .l {
        fill: #f7931e;
      }

      .q {
        letter-spacing: -.02em;
      }

      .e, .g {
        stroke-width: .52px;
      }

      .f {
        stroke-dasharray: 1 1;
      }

      .g {
        stroke: red;
      }

      .n {
        fill: red;
      }

      .r {
        letter-spacing: -.04em;
      }

      .s {
        letter-spacing: -.09em;
      }

      .t {
        letter-spacing: -.07em;
      }
    </style>
  </defs>
  <g>
    <line class="b" x1="150.59" y1="19.63" x2="151.55" y2="71.03"/>
    <polygon points="149.47 69.41 149.83 69.06 151.55 70.84 153.19 69 153.56 69.34 151.56 71.57 149.47 69.41"/>
  </g>
  <g>
    <line class="b" x1="196.69" y1="52.46" x2="168.92" y2="71.27"/>
    <polygon points="169.14 68.64 169.63 68.76 169.08 71.16 171.51 71.54 171.44 72.03 168.47 71.57 169.14 68.64"/>
  </g>
  <g>
    <line class="b" x1="150.59" y1="11.2" x2="150.59" y2="17.92"/>
    <polygon points="148.55 16.26 148.92 15.92 150.59 17.73 152.27 15.92 152.64 16.26 150.59 18.46 148.55 16.26"/>
  </g>
  <g>
    <line class="b" x1="150.59" y1="95.93" x2="150.59" y2="102.65"/>
    <polygon points="148.55 101 148.92 100.66 150.59 102.46 152.27 100.66 152.64 101 150.59 103.19 148.55 101"/>
  </g>
  <g>
    <line class="b" x1="107.89" y1="158.43" x2="107.89" y2="186.89"/>
    <polygon points="105.84 185.23 106.21 184.89 107.89 186.69 109.57 184.89 109.93 185.23 107.89 187.43 105.84 185.23"/>
  </g>
  <g>
    <line class="b" x1="185.97" y1="158.43" x2="185.97" y2="168.05"/>
    <polygon points="183.92 166.39 184.29 166.05 185.96 167.86 187.64 166.05 188.01 166.39 185.96 168.59 183.92 166.39"/>
  </g>
  <g>
    <line class="b" x1="169.26" y1="220.93" x2="169.26" y2="229.53"/>
    <polygon points="167.21 227.88 167.58 227.53 169.26 229.34 170.94 227.53 171.3 227.88 169.26 230.07 167.21 227.88"/>
  </g>
  <g>
    <line class="b" x1="186.47" y1="239.6" x2="186.47" y2="252.89"/>
    <polygon points="184.42 251.23 184.79 250.89 186.47 252.69 188.15 250.89 188.51 251.23 186.47 253.43 184.42 251.23"/>
  </g>
  <g>
    <line class="b" x1="151.08" y1="312.6" x2="151.08" y2="320.53"/>
    <polygon points="149.03 318.87 149.4 318.53 151.08 320.34 152.76 318.53 153.12 318.87 151.08 321.07 149.03 318.87"/>
  </g>
  <g>
    <line class="b" x1="186.47" y1="265.66" x2="164.43" y2="293.67"/>
    <polygon points="163.85 291.1 164.35 291.06 164.55 293.52 166.98 293.14 167.06 293.63 164.09 294.1 163.85 291.1"/>
  </g>
  <g>
    <line class="b" x1="213.38" y1="220.93" x2="213.38" y2="229.53"/>
    <polygon points="211.34 227.88 211.7 227.53 213.38 229.34 215.06 227.53 215.43 227.88 213.38 230.07 211.34 227.88"/>
  </g>
  <g>
    <line class="b" x1="107.89" y1="199.31" x2="107.89" y2="250.14"/>
    <polygon points="105.84 248.48 106.21 248.14 107.89 249.94 109.57 248.14 109.93 248.48 107.89 250.68 105.84 248.48"/>
  </g>
  <g>
    <line class="b" x1="100.04" y1="110.23" x2="122.47" y2="110.23"/>
    <polygon points="120.81 112.27 120.47 111.91 122.27 110.23 120.47 108.55 120.81 108.18 123.01 110.23 120.81 112.27"/>
  </g>
  <text class="m" transform="translate(138.21 29.73)"><tspan class="s" x="0" y="0">Y</tspan><tspan x="3.45" y="0">es</tspan></text>
  <text class="m" transform="translate(176.2 29.73)"><tspan x="0" y="0">No</tspan></text>
  <text class="n" transform="translate(49.38 17.63)"><tspan x="0" y="0">Genome, Genes, Proteins Provided?</tspan></text>
  <g>
    <line class="b" x1="150.59" y1="19.63" x2="185.87" y2="38.9"/>
    <polygon points="183.43 39.9 183.31 39.42 185.7 38.81 184.92 36.47 185.39 36.32 186.34 39.16 183.43 39.9"/>
  </g>
  <g>
    <path class="p" d="M178.2,5.33c0,2.95-2.67,5.33-5.96,5.33h-41.36c-3.29,0-5.96-2.39-5.96-5.33h0c0-2.95,2.67-5.33,5.96-5.33h41.36c3.29,0,5.96,2.39,5.96,5.33h0Z"/>
    <text class="j" transform="translate(131.72 7.08)"><tspan x="0" y="0">PrecisionProDB</tspan></text>
  </g>
  <g>
    <path class="p" d="M178.2,110.23c0,2.95-2.67,5.33-5.96,5.33h-41.36c-3.29,0-5.96-2.39-5.96-5.33h0c0-2.95,2.67-5.33,5.96-5.33h41.36c3.29,0,5.96,2.39,5.96,5.33h0Z"/>
    <text class="j" transform="translate(131.72 111.98)"><tspan x="0" y="0">PrecisionProDB</tspan></text>
  </g>
  <g>
    <path class="p" d="M178.2,327.9c0,2.95-2.67,5.33-5.96,5.33h-41.36c-3.29,0-5.96-2.39-5.96-5.33h0c0-2.95,2.67-5.33,5.96-5.33h41.36c3.29,0,5.96,2.39,5.96,5.33h0Z"/>
    <text class="j" transform="translate(131.72 329.65)"><tspan x="0" y="0">PrecisionProDB</tspan></text>
  </g>
  <g>
    <path class="p" d="M134.53,193.98c0,2.95-2.67,5.33-5.96,5.33h-41.36c-3.29,0-5.96-2.39-5.96-5.33h0c0-2.95,2.67-5.33,5.96-5.33h41.36c3.29,0,5.96,2.39,5.96,5.33h0Z"/>
    <text class="j" transform="translate(94.3 195.73)"><tspan x="0" y="0">perChrom</tspan></text>
  </g>
  <g>
    <path class="p" d="M211.54,174.64c0,2.95-2.67,5.33-5.96,5.33h-41.36c-3.29,0-5.96-2.39-5.96-5.33h0c0-2.95,2.67-5.33,5.96-5.33h41.36c3.29,0,5.96,2.39,5.96,5.33h0Z"/>
    <text class="j" transform="translate(168.47 176.39)"><tspan x="0" y="0">vcf2mutation</tspan></text>
  </g>
  <g>
    <path class="p" d="M143.1,151.99c0,2.95-3.24,5.33-7.24,5.33h-50.19c-4,0-7.24-2.39-7.24-5.33h0c0-2.95,3.24-5.33,7.24-5.33h50.19c4,0,7.24,2.39,7.24,5.33h0Z"/>
    <text class="j" transform="translate(81.24 153.74)"><tspan x="0" y="0">PrecisionProDB_core</tspan></text>
  </g>
  <g>
    <path class="p" d="M143.1,257.01c0,2.95-3.24,5.33-7.24,5.33h-50.19c-4,0-7.24-2.39-7.24-5.33h0c0-2.95,3.24-5.33,7.24-5.33h50.19c4,0,7.24,2.39,7.24,5.33h0Z"/>
    <text class="j" transform="translate(81.24 258.76)"><tspan x="0" y="0">PrecisionProDB_core</tspan></text>
  </g>
  <g>
    <path class="p" d="M218.68,151.99c0,2.95-3.24,5.33-7.24,5.33h-50.19c-4,0-7.24-2.39-7.24-5.33h0c0-2.95,3.24-5.33,7.24-5.33h50.19c4,0,7.24,2.39,7.24,5.33h0Z"/>
    <text class="j" transform="translate(159.32 153.74)"><tspan x="0" y="0">PrecisionProDB_vcf</tspan></text>
  </g>
  <g>
    <path class="p" d="M218.68,260.32c0,2.95-3.24,5.33-7.24,5.33h-50.19c-4,0-7.24-2.39-7.24-5.33h0c0-2.95,3.24-5.33,7.24-5.33h50.19c4,0,7.24,2.39,7.24,5.33h0Z"/>
    <text class="j" transform="translate(159.32 262.07)"><tspan x="0" y="0">PrecisionProDB_vcf</tspan></text>
  </g>
  <g>
    <path class="p" d="M103.1,360.66c0,2.95-3.24,5.33-7.24,5.33h-50.19c-4,0-7.24-2.39-7.24-5.33h0c0-2.95,3.24-5.33,7.24-5.33h50.19c3.99,0,7.24,2.39,7.24,5.33h0Z"/>
    <text class="j" transform="translate(40.86 362.41)"><tspan x="0" y="0">extractMutatedUniprot</tspan></text>
  </g>
  <g>
    <path class="p" d="M274.31,360.66c0,2.95-3.24,5.33-7.24,5.33h-50.19c-4,0-7.24-2.39-7.24-5.33h0c0-2.95,3.24-5.33,7.24-5.33h50.19c4,0,7.24,2.39,7.24,5.33h0Z"/>
    <text class="j" transform="translate(213.38 362.41)"><tspan x="0" y="0">generatePEFFoutput</tspan></text>
  </g>
  <g>
    <path class="p" d="M221.76,45.6c0,2.95-2.67,5.33-5.96,5.33h-41.36c-3.29,0-5.96-2.39-5.96-5.33h0c0-2.94,2.67-5.33,5.96-5.33h41.36c3.29,0,5.96,2.39,5.96,5.33h0Z"/>
    <text class="j" transform="translate(172.28 47.35)"><tspan x="0" y="0">downloadHuman</tspan></text>
  </g>
  <g>
    <text class="k" transform="translate(109.17 82.17)"><tspan x="0" y="0">Reference</tspan><tspan x="2.33" y="7.2">Genome</tspan></text>
    <rect class="c" x="108.26" y="75.6" width="29.49" height="17.76"/>
  </g>
  <g>
    <text class="k" transform="translate(145.83 89.14)"><tspan x="0" y="0">Genes</tspan></text>
    <rect class="e" x="141.07" y="83" width="28.17" height="8.5"/>
    <rect class="e" x="140.13" y="75.63" width="61.38" height="17.71"/>
    <text class="k" transform="translate(158.25 81.23)"><tspan x="0" y="0">Annotation</tspan></text>
    <rect class="e" x="171.88" y="83" width="28.17" height="8.5"/>
    <text class="k" transform="translate(174.63 89.84)"><tspan x="0" y="0">Proteins</tspan></text>
  </g>
  <text class="m" transform="translate(100.04 59.52)"><tspan x="0" y="0">User provided files</tspan></text>
  <text class="m" transform="translate(28.12 111.98)"><tspan x="0" y="0">User provided</tspan></text>
  <text class="i" transform="translate(185.97 65.22)"><tspan x="0" y="0">Download required files</tspan></text>
  <text class="i" transform="translate(213.38 186.25)"><tspan x="0" y="0">Extract two variant files</tspan><tspan x="0" y="7.2">in</tspan><tspan class="q" x="4.67" y="7.2"> </tspan><tspan x="6.23" y="7.2">TSV format</tspan></text>
  <text class="i" transform="translate(191.38 244.17)"><tspan class="o" x="0" y="0">T</tspan><tspan x="3.33" y="0">wo separate runs with </tspan><tspan x="0" y="7.2">PrecisionProDB_core</tspan></text>
  <text class="i" transform="translate(189.38 272.58)"><tspan x="0" y="0">Combine results from two runs</tspan></text>
  <text class="i" transform="translate(213.38 315.5)"><tspan x="0" y="0">Generate PEFF file(s)</tspan><tspan x="0" y="7.2">by adding</tspan><tspan class="o" x="26.02" y="7.2"> </tspan><tspan x="27.36" y="7.2">A</tspan><tspan class="o" x="31.36" y="7.2">A</tspan><tspan x="35.03" y="7.2" xml:space="preserve"> mutation</tspan><tspan x="0" y="14.4">annotations</tspan></text>
  <text class="i" transform="translate(19.72 166.6)"><tspan x="0" y="0">Split Genome, Gene annotation,</tspan><tspan x="22.02" y="7.2">protein and variant files </tspan><tspan x="43.04" y="14.4">by chromosome</tspan></text>
  <text class="i" transform="translate(26.31 314.53)"><tspan x="0" y="0">Match UniProt sequences</tspan><tspan x="-5.68" y="7.2">with Ensembl and generate </tspan><tspan x="29.02" y="14.4">UniProt Output</tspan></text>
  <g>
    <line class="b" x1="107.89" y1="263.34" x2="131.75" y2="293.67"/>
    <polygon points="129.12 293.63 129.19 293.14 131.63 293.52 131.83 291.06 132.33 291.1 132.08 294.1 129.12 293.63"/>
  </g>
  <text class="i" transform="translate(20.08 271.51)"><tspan x="0" y="0">Combine results from perChrom</tspan></text>
  <text class="i" transform="translate(15.4 208.38)"><tspan x="0" y="0">Assign variants to each transcript;</tspan><tspan x="-13.02" y="7.2">Assign each</tspan><tspan class="o" x="19.66" y="7.2"> </tspan><tspan x="21" y="7.2">A</tspan><tspan class="o" x="25" y="7.2">A</tspan><tspan x="28.67" y="7.2" xml:space="preserve"> from protein sequence</tspan><tspan x="34" y="14.4">to get codon-A</tspan><tspan class="o" x="73.03" y="14.4">A</tspan><tspan x="76.7" y="14.4" xml:space="preserve"> pair;</tspan><tspan x="13.51" y="21.6">Add variants to CDS+3’UTR;</tspan><tspan class="r" x=".21" y="28.8">T</tspan><tspan x="3.66" y="28.8">ranslate with mutated sequence;</tspan><tspan x="9.45" y="36">Summarize e</tspan><tspan class="q" x="44.8" y="36">f</tspan><tspan x="46.36" y="36">fects of variants </tspan></text>
  <g>
    <rect class="e" x="69.11" y="101.56" width="30.93" height="17.71"/>
    <text class="k" transform="translate(70.14 108.42) scale(1.07 1)"><tspan x="0" y="0">Individual </tspan><tspan class="t" x="2.73" y="7.2">V</tspan><tspan x="6.28" y="7.2">ariants</tspan></text>
  </g>
  <g>
    <rect class="e" x="151.08" y="201.79" width="30.93" height="17.71"/>
    <text class="k" transform="translate(152.12 208.65) scale(1.07 1)"><tspan x="0" y="0">Individual </tspan><tspan class="t" x="1.06" y="7.2">V</tspan><tspan x="4.61" y="7.2">ariants1</tspan></text>
  </g>
  <g>
    <rect class="e" x="200.05" y="201.79" width="30.93" height="17.71"/>
    <text class="k" transform="translate(201.09 208.65) scale(1.07 1)"><tspan x="0" y="0">Individual </tspan><tspan class="t" x="1.06" y="7.2">V</tspan><tspan x="4.61" y="7.2">ariants2</tspan></text>
  </g>
  <g>
    <rect class="g" x="125.22" y="296.76" width="52.68" height="14.89"/>
    <text class="n" transform="translate(126.05 302.5) scale(1.07 1)"><tspan x="0" y="0">Custom reference </tspan><tspan x="2.33" y="7.2">protein database</tspan></text>
  </g>
  <g>
    <line class="b" x1="150.59" y1="125.37" x2="122.82" y2="144.18"/>
    <polygon points="123.05 141.56 123.54 141.67 122.98 144.08 125.42 144.45 125.34 144.95 122.37 144.49 123.05 141.56"/>
  </g>
  <g>
    <line class="b" x1="150.59" y1="117.36" x2="150.59" y2="124.08"/>
    <polygon points="148.55 122.43 148.92 122.08 150.59 123.89 152.27 122.08 152.64 122.43 150.59 124.62 148.55 122.43"/>
  </g>
  <text class="m" transform="translate(117.57 135.13)"><tspan x="0" y="0">No</tspan></text>
  <text class="m" transform="translate(175.14 135.48)"><tspan class="s" x="0" y="0">Y</tspan><tspan x="3.45" y="0">es</tspan></text>
  <text class="n" transform="translate(153.87 122.84)"><tspan x="0" y="0">Is the variant file a VCF file?</tspan></text>
  <g>
    <line class="b" x1="150.59" y1="125.37" x2="185.87" y2="144.65"/>
    <polygon points="183.43 145.65 183.31 145.16 185.7 144.56 184.92 142.22 185.39 142.06 186.34 144.91 183.43 145.65"/>
  </g>
  <g>
    <line class="b" x1="124.92" y1="331.2" x2="89.55" y2="353.74"/>
    <polygon points="89.84 351.13 90.33 351.25 89.71 353.64 92.13 354.08 92.04 354.57 89.09 354.03 89.84 351.13"/>
  </g>
  <g>
    <line class="b" x1="61.72" y1="353.07" x2="124.76" y2="312.89"/>
    <polygon points="124.46 315.5 123.98 315.38 124.6 312.99 122.17 312.55 122.27 312.05 125.22 312.6 124.46 315.5"/>
  </g>
  <g>
    <line class="b" x1="176.59" y1="332.55" x2="211.5" y2="354.29"/>
    <polygon points="209.01 355.15 208.91 354.65 211.33 354.19 210.69 351.81 211.17 351.68 211.96 354.57 209.01 355.15"/>
  </g>
  <g>
    <line class="b" x1="245.39" y1="353.3" x2="179.22" y2="312.09"/>
    <polygon points="181.7 311.23 181.8 311.72 179.38 312.19 180.02 314.57 179.54 314.7 178.76 311.8 181.7 311.23"/>
  </g>
  <text class="n" transform="translate(107 349.49)"><tspan x="0" y="0">UniProt models</tspan><tspan x="0" y="7.2">wanted?</tspan></text>
  <text class="n" transform="translate(169.26 348.7)"><tspan x="0" y="0">PEFF file </tspan><tspan x="3.65" y="7.2">wanted?</tspan></text>
  <g>
    <line class="b" x1="186.47" y1="179.98" x2="160.78" y2="199.19"/>
    <polygon points="160.88 196.56 161.37 196.65 160.93 199.07 163.38 199.34 163.33 199.84 160.34 199.52 160.88 196.56"/>
  </g>
  <g>
    <line class="b" x1="186.47" y1="179.98" x2="221.74" y2="199.26"/>
    <polygon points="219.31 200.26 219.18 199.77 221.57 199.16 220.79 196.83 221.27 196.67 222.22 199.52 219.31 200.26"/>
  </g>
  <g>
    <polyline class="h" points="145.83 278.99 145.83 279.49 145.33 279.49"/>
    <line class="d" x1="144.33" y1="279.49" x2="1.26" y2="279.49"/>
    <polyline class="h" points=".76 279.49 .26 279.49 .26 278.99"/>
    <line class="f" x1=".26" y1="277.99" x2=".26" y2="145.91"/>
    <polyline class="h" points=".26 145.41 .26 144.91 .76 144.91"/>
    <line class="d" x1="1.75" y1="144.91" x2="144.83" y2="144.91"/>
    <polyline class="h" points="145.33 144.91 145.83 144.91 145.83 145.41"/>
    <line class="f" x1="145.83" y1="146.41" x2="145.83" y2="278.49"/>
  </g>
  <text class="l" transform="translate(164.8 236.41)"><tspan x="0" y="0">PrecisionProDB_core</tspan></text>
  <text class="l" transform="translate(.26 143.41)"><tspan x="0" y="0">PrecisionProDB_core</tspan></text>
</svg>