<?xml version="1.0" encoding="UTF-8"?>
<svg id="b" data-name="Layer 2" xmlns="http://www.w3.org/2000/svg" width="432" height="216" xmlns:xlink="http://www.w3.org/1999/xlink" viewBox="0 0 432 216">
  <defs>
    <style>
      .f {
        letter-spacing: .03em;
      }

      .g {
        stroke: red;
      }

      .g, .h, .i, .j, .k, .l {
        fill: none;
      }

      .g, .h, .j, .k, .l {
        stroke-linejoin: round;
      }

      .g, .j {
        stroke-width: .71px;
      }

      .g, .j, .l {
        stroke-linecap: round;
      }

      .h {
        stroke: #333;
      }

      .h, .k, .l {
        stroke-width: .5px;
      }

      .m {
        fill: #fff;
      }

      .n, .o {
        fill: blue;
      }

      .p {
        fill: red;
      }

      .j {
        stroke: blue;
      }

      .k {
        stroke: #000;
      }

      .q {
        fill: #ed1c24;
      }

      .q, .r, .o, .s {
        font-family: ArialMT, Arial;
      }

      .q, .o, .s {
        font-size: 11px;
      }

      .l {
        stroke: #fff;
      }

      .t {
        clip-path: url(#d);
      }

      .r {
        font-size: 9px;
      }

      .u {
        clip-path: url(#e);
      }
    </style>
    <clipPath id="d">
      <rect class="i" width="432" height="216"/>
    </clipPath>
    <clipPath id="e">
      <rect class="i" x="43.48" y="5.48" width="355.04" height="178.61"/>
    </clipPath>
  </defs>
  <g id="c" data-name="Layer 1">
    <g>
      <g class="t">
        <rect class="m" width="432" height="216"/>
        <rect class="l" width="432" height="216"/>
      </g>
      <g class="u">
        <rect class="m" x="43.48" y="5.48" width="355.04" height="178.61"/>
        <path class="p" d="M57.67,13.6c0-1.08.88-1.96,1.95-1.96s1.96.88,1.96,1.96-.88,1.95-1.96,1.95-1.95-.88-1.95-1.95"/>
        <path class="g" d="M57.67,13.6c0-1.08.88-1.96,1.95-1.96s1.96.88,1.96,1.96-.88,1.95-1.96,1.95-1.95-.88-1.95-1.95"/>
        <path class="p" d="M76.65,96.4c0-1.08.88-1.96,1.96-1.96s1.95.88,1.95,1.96-.88,1.95-1.95,1.95-1.96-.88-1.96-1.95"/>
        <path class="g" d="M76.65,96.4c0-1.08.88-1.96,1.96-1.96s1.95.88,1.95,1.96-.88,1.95-1.95,1.95-1.96-.88-1.96-1.95"/>
        <path class="p" d="M95.64,122.35c0-1.08.88-1.96,1.95-1.96s1.96.88,1.96,1.96-.88,1.95-1.96,1.95-1.95-.88-1.95-1.95"/>
        <path class="g" d="M95.64,122.35c0-1.08.88-1.96,1.95-1.96s1.96.88,1.96,1.96-.88,1.95-1.96,1.95-1.95-.88-1.95-1.95"/>
        <path class="p" d="M114.63,139.58c0-1.08.88-1.96,1.95-1.96s1.96.88,1.96,1.96-.88,1.95-1.96,1.95-1.95-.88-1.95-1.95"/>
        <path class="g" d="M114.63,139.58c0-1.08.88-1.96,1.95-1.96s1.96.88,1.96,1.96-.88,1.95-1.96,1.95-1.95-.88-1.95-1.95"/>
        <path class="p" d="M133.61,146.38c0-1.08.88-1.95,1.96-1.95s1.95.87,1.95,1.95-.88,1.95-1.95,1.95-1.96-.88-1.96-1.95"/>
        <path class="g" d="M133.61,146.38c0-1.08.88-1.95,1.96-1.95s1.95.87,1.95,1.95-.88,1.95-1.95,1.95-1.96-.88-1.96-1.95"/>
        <path class="p" d="M152.6,153.01c0-1.07.88-1.95,1.95-1.95s1.96.88,1.96,1.95-.88,1.96-1.96,1.96-1.95-.88-1.95-1.96"/>
        <path class="g" d="M152.6,153.01c0-1.07.88-1.95,1.95-1.95s1.96.88,1.96,1.95-.88,1.96-1.96,1.96-1.95-.88-1.95-1.96"/>
        <path class="p" d="M171.58,155.88c0-1.07.88-1.95,1.96-1.95s1.95.88,1.95,1.95-.88,1.96-1.95,1.96-1.96-.88-1.96-1.96"/>
        <path class="g" d="M171.58,155.88c0-1.07.88-1.95,1.96-1.95s1.95.88,1.95,1.95-.88,1.96-1.95,1.96-1.96-.88-1.96-1.96"/>
        <path class="p" d="M190.57,159.27c0-1.08.88-1.96,1.95-1.96s1.96.88,1.96,1.96-.88,1.95-1.96,1.95-1.95-.88-1.95-1.95"/>
        <path class="g" d="M190.57,159.27c0-1.08.88-1.96,1.95-1.96s1.96.88,1.96,1.96-.88,1.95-1.96,1.95-1.95-.88-1.95-1.95"/>
        <path class="p" d="M209.56,160.88c0-1.08.88-1.96,1.95-1.96s1.96.88,1.96,1.96-.88,1.95-1.96,1.95-1.95-.88-1.95-1.95"/>
        <path class="g" d="M209.56,160.88c0-1.08.88-1.96,1.95-1.96s1.96.88,1.96,1.96-.88,1.95-1.96,1.95-1.95-.88-1.95-1.95"/>
        <path class="p" d="M228.54,162.93c0-1.08.88-1.96,1.96-1.96s1.95.88,1.95,1.96-.88,1.95-1.95,1.95-1.96-.88-1.96-1.95"/>
        <path class="g" d="M228.54,162.93c0-1.08.88-1.96,1.96-1.96s1.95.88,1.95,1.96-.88,1.95-1.95,1.95-1.96-.88-1.96-1.95"/>
        <path class="p" d="M247.53,163.2c0-1.08.88-1.96,1.95-1.96s1.96.88,1.96,1.96-.88,1.95-1.96,1.95-1.95-.88-1.95-1.95"/>
        <path class="g" d="M247.53,163.2c0-1.08.88-1.96,1.95-1.96s1.96.88,1.96,1.96-.88,1.95-1.96,1.95-1.95-.88-1.95-1.95"/>
        <path class="p" d="M266.51,163.95c0-1.07.88-1.95,1.96-1.95s1.95.88,1.95,1.95-.88,1.96-1.95,1.96-1.96-.88-1.96-1.96"/>
        <path class="g" d="M266.51,163.95c0-1.07.88-1.95,1.96-1.95s1.95.88,1.95,1.95-.88,1.96-1.95,1.96-1.96-.88-1.96-1.96"/>
        <path class="p" d="M285.5,164.43c0-1.07.88-1.95,1.96-1.95s1.95.88,1.95,1.95-.88,1.96-1.95,1.96-1.96-.88-1.96-1.96"/>
        <path class="g" d="M285.5,164.43c0-1.07.88-1.95,1.96-1.95s1.95.88,1.95,1.95-.88,1.96-1.95,1.96-1.96-.88-1.96-1.96"/>
        <path class="p" d="M304.49,165.29c0-1.08.88-1.96,1.95-1.96s1.96.88,1.96,1.96-.88,1.95-1.96,1.95-1.95-.88-1.95-1.95"/>
        <path class="g" d="M304.49,165.29c0-1.08.88-1.96,1.95-1.96s1.96.88,1.96,1.96-.88,1.95-1.96,1.95-1.95-.88-1.95-1.95"/>
        <path class="p" d="M323.47,164.64c0-1.08.88-1.96,1.96-1.96s1.95.88,1.95,1.96-.88,1.95-1.95,1.95-1.96-.88-1.96-1.95"/>
        <path class="g" d="M323.47,164.64c0-1.08.88-1.96,1.96-1.96s1.95.88,1.95,1.96-.88,1.95-1.95,1.95-1.96-.88-1.96-1.95"/>
        <path class="p" d="M342.46,165.08c0-1.08.88-1.95,1.95-1.95s1.96.87,1.96,1.95-.88,1.95-1.96,1.95-1.95-.87-1.95-1.95"/>
        <path class="g" d="M342.46,165.08c0-1.08.88-1.95,1.95-1.95s1.96.87,1.96,1.95-.88,1.95-1.96,1.95-1.95-.87-1.95-1.95"/>
        <path class="p" d="M361.44,165.18c0-1.07.88-1.95,1.96-1.95s1.95.88,1.95,1.95-.88,1.96-1.95,1.96-1.96-.88-1.96-1.96"/>
        <path class="g" d="M361.44,165.18c0-1.07.88-1.95,1.96-1.95s1.95.88,1.95,1.95-.88,1.96-1.95,1.96-1.96-.88-1.96-1.96"/>
        <path class="p" d="M380.43,165.46c0-1.08.88-1.96,1.96-1.96s1.95.88,1.95,1.96-.88,1.95-1.95,1.95-1.96-.88-1.96-1.95"/>
        <path class="g" d="M380.43,165.46c0-1.08.88-1.96,1.96-1.96s1.95.88,1.95,1.96-.88,1.95-1.95,1.95-1.96-.88-1.96-1.95"/>
        <path class="n" d="M57.67,175.97c0-1.07.88-1.95,1.95-1.95s1.96.88,1.96,1.95-.88,1.96-1.96,1.96-1.95-.88-1.95-1.96"/>
        <path class="j" d="M57.67,175.97c0-1.07.88-1.95,1.95-1.95s1.96.88,1.96,1.95-.88,1.96-1.96,1.96-1.95-.88-1.95-1.96"/>
        <path class="n" d="M76.65,168.39c0-1.07.88-1.95,1.96-1.95s1.95.88,1.95,1.95-.88,1.96-1.95,1.96-1.96-.88-1.96-1.96"/>
        <path class="j" d="M76.65,168.39c0-1.07.88-1.95,1.96-1.95s1.95.88,1.95,1.95-.88,1.96-1.95,1.96-1.96-.88-1.96-1.96"/>
        <path class="n" d="M95.64,156.81c0-1.08.88-1.96,1.95-1.96s1.96.88,1.96,1.96-.88,1.95-1.96,1.95-1.95-.88-1.95-1.95"/>
        <path class="j" d="M95.64,156.81c0-1.08.88-1.96,1.95-1.96s1.96.88,1.96,1.96-.88,1.95-1.96,1.95-1.95-.88-1.95-1.95"/>
        <path class="n" d="M114.63,146.16c0-1.08.88-1.96,1.95-1.96s1.96.88,1.96,1.96-.88,1.95-1.96,1.95-1.95-.88-1.95-1.95"/>
        <path class="j" d="M114.63,146.16c0-1.08.88-1.96,1.95-1.96s1.96.88,1.96,1.96-.88,1.95-1.96,1.95-1.95-.88-1.95-1.95"/>
        <path class="n" d="M133.61,135.57c0-1.07.88-1.95,1.96-1.95s1.95.88,1.95,1.95-.88,1.96-1.95,1.96-1.96-.88-1.96-1.96"/>
        <path class="j" d="M133.61,135.57c0-1.07.88-1.95,1.96-1.95s1.95.88,1.95,1.95-.88,1.96-1.95,1.96-1.96-.88-1.96-1.96"/>
        <path class="n" d="M152.6,130.7c0-1.08.88-1.95,1.95-1.95s1.96.87,1.96,1.95-.88,1.95-1.96,1.95-1.95-.88-1.95-1.95"/>
        <path class="j" d="M152.6,130.7c0-1.08.88-1.95,1.95-1.95s1.96.87,1.96,1.95-.88,1.95-1.96,1.95-1.95-.88-1.95-1.95"/>
        <path class="n" d="M171.58,121.42c0-1.08.88-1.96,1.96-1.96s1.95.88,1.95,1.96-.88,1.95-1.95,1.95-1.96-.88-1.96-1.95"/>
        <path class="j" d="M171.58,121.42c0-1.08.88-1.96,1.96-1.96s1.95.88,1.95,1.96-.88,1.95-1.95,1.95-1.96-.88-1.96-1.95"/>
        <path class="n" d="M190.57,112.25c0-1.07.88-1.95,1.95-1.95s1.96.88,1.96,1.95-.88,1.96-1.96,1.96-1.95-.88-1.95-1.96"/>
        <path class="j" d="M190.57,112.25c0-1.07.88-1.95,1.95-1.95s1.96.88,1.96,1.95-.88,1.96-1.96,1.96-1.95-.88-1.95-1.96"/>
        <path class="n" d="M209.56,101.45c0-1.07.88-1.95,1.95-1.95s1.96.88,1.96,1.95-.88,1.96-1.96,1.96-1.95-.88-1.95-1.96"/>
        <path class="j" d="M209.56,101.45c0-1.07.88-1.95,1.95-1.95s1.96.88,1.96,1.95-.88,1.96-1.96,1.96-1.95-.88-1.95-1.96"/>
        <path class="n" d="M228.54,85.18c0-1.08.88-1.96,1.96-1.96s1.95.88,1.95,1.96-.88,1.95-1.95,1.95-1.96-.88-1.96-1.95"/>
        <path class="j" d="M228.54,85.18c0-1.08.88-1.96,1.96-1.96s1.95.88,1.95,1.96-.88,1.95-1.95,1.95-1.96-.88-1.96-1.95"/>
        <path class="n" d="M247.53,84.24c0-1.07.88-1.95,1.95-1.95s1.96.88,1.96,1.95-.88,1.96-1.96,1.96-1.95-.88-1.95-1.96"/>
        <path class="j" d="M247.53,84.24c0-1.07.88-1.95,1.95-1.95s1.96.88,1.96,1.95-.88,1.96-1.96,1.96-1.95-.88-1.95-1.96"/>
        <path class="n" d="M266.51,63.54c0-1.07.88-1.95,1.96-1.95s1.95.88,1.95,1.95-.88,1.96-1.95,1.96-1.96-.88-1.96-1.96"/>
        <path class="j" d="M266.51,63.54c0-1.07.88-1.95,1.96-1.95s1.95.88,1.95,1.95-.88,1.96-1.95,1.96-1.96-.88-1.96-1.96"/>
        <path class="n" d="M285.5,53.09c0-1.07.88-1.95,1.96-1.95s1.95.88,1.95,1.95-.88,1.96-1.95,1.96-1.96-.88-1.96-1.96"/>
        <path class="j" d="M285.5,53.09c0-1.07.88-1.95,1.96-1.95s1.95.88,1.95,1.95-.88,1.96-1.95,1.96-1.96-.88-1.96-1.96"/>
        <path class="n" d="M304.49,50.46c0-1.08.88-1.96,1.95-1.96s1.96.88,1.96,1.96-.88,1.95-1.96,1.95-1.95-.88-1.95-1.95"/>
        <path class="j" d="M304.49,50.46c0-1.08.88-1.96,1.95-1.96s1.96.88,1.96,1.96-.88,1.95-1.96,1.95-1.95-.88-1.95-1.95"/>
        <path class="n" d="M323.47,47.25c0-1.07.88-1.95,1.96-1.95s1.95.88,1.95,1.95-.88,1.96-1.95,1.96-1.96-.88-1.96-1.96"/>
        <path class="j" d="M323.47,47.25c0-1.07.88-1.95,1.96-1.95s1.95.88,1.95,1.95-.88,1.96-1.95,1.96-1.96-.88-1.96-1.96"/>
        <path class="n" d="M342.46,37.39c0-1.08.88-1.96,1.95-1.96s1.96.88,1.96,1.96-.88,1.95-1.96,1.95-1.95-.88-1.95-1.95"/>
        <path class="j" d="M342.46,37.39c0-1.08.88-1.96,1.95-1.96s1.96.88,1.96,1.96-.88,1.95-1.96,1.95-1.95-.88-1.95-1.95"/>
        <path class="n" d="M361.44,16.25c0-1.07.88-1.95,1.96-1.95s1.95.88,1.95,1.95-.88,1.96-1.95,1.96-1.96-.88-1.96-1.96"/>
        <path class="j" d="M361.44,16.25c0-1.07.88-1.95,1.96-1.95s1.95.88,1.95,1.95-.88,1.96-1.95,1.96-1.96-.88-1.96-1.96"/>
        <path class="n" d="M380.43,21.7c0-1.08.88-1.96,1.96-1.96s1.95.88,1.95,1.96-.88,1.95-1.95,1.95-1.96-.88-1.96-1.95"/>
        <path class="j" d="M380.43,21.7c0-1.08.88-1.96,1.96-1.96s1.95.88,1.95,1.96-.88,1.95-1.95,1.95-1.96-.88-1.96-1.95"/>
      </g>
      <line class="k" x1="43.48" y1="184.09" x2="43.48" y2="5.48"/>
      <text class="r" transform="translate(18.54 167.18)"><tspan x="0" y="0">1000</tspan></text>
      <text class="r" transform="translate(18.54 133)"><tspan x="0" y="0">2000</tspan></text>
      <text class="r" transform="translate(18.54 98.81)"><tspan x="0" y="0">3000</tspan></text>
      <text class="r" transform="translate(18.54 64.62)"><tspan x="0" y="0">4000</tspan></text>
      <text class="r" transform="translate(18.54 30.44)"><tspan x="0" y="0">5000</tspan></text>
      <line class="h" x1="40.74" y1="163.95" x2="43.48" y2="163.95"/>
      <line class="h" x1="40.74" y1="129.77" x2="43.48" y2="129.77"/>
      <line class="h" x1="40.74" y1="95.58" x2="43.48" y2="95.58"/>
      <line class="h" x1="40.74" y1="61.39" x2="43.48" y2="61.39"/>
      <line class="h" x1="40.74" y1="27.2" x2="43.48" y2="27.2"/>
      <line class="k" x1="398.52" y1="184.09" x2="398.52" y2="5.48"/>
      <line class="h" x1="398.52" y1="181.05" x2="401.26" y2="181.05"/>
      <line class="h" x1="398.52" y1="163.89" x2="401.26" y2="163.89"/>
      <line class="h" x1="398.52" y1="146.9" x2="401.26" y2="146.9"/>
      <line class="h" x1="398.52" y1="129.74" x2="401.26" y2="129.74"/>
      <line class="h" x1="398.52" y1="112.75" x2="401.26" y2="112.75"/>
      <line class="h" x1="398.52" y1="95.59" x2="401.26" y2="95.59"/>
      <line class="h" x1="398.52" y1="78.43" x2="401.26" y2="78.43"/>
      <line class="h" x1="398.52" y1="61.44" x2="401.26" y2="61.44"/>
      <line class="h" x1="398.52" y1="44.28" x2="401.26" y2="44.28"/>
      <line class="h" x1="398.52" y1="27.29" x2="401.26" y2="27.29"/>
      <text class="r" transform="translate(403.45 184.28)"><tspan x="0" y="0">1</tspan></text>
      <text class="r" transform="translate(403.45 167.12)"><tspan x="0" y="0">2</tspan></text>
      <text class="r" transform="translate(403.45 150.13)"><tspan x="0" y="0">3</tspan></text>
      <text class="r" transform="translate(403.45 132.97)"><tspan x="0" y="0">4</tspan></text>
      <text class="r" transform="translate(403.45 115.98)"><tspan x="0" y="0">5</tspan></text>
      <text class="r" transform="translate(403.45 98.82)"><tspan x="0" y="0">6</tspan></text>
      <text class="r" transform="translate(403.45 81.66)"><tspan x="0" y="0">7</tspan></text>
      <text class="r" transform="translate(403.45 64.67)"><tspan x="0" y="0">8</tspan></text>
      <text class="r" transform="translate(403.45 47.51)"><tspan x="0" y="0">9</tspan></text>
      <text class="r" transform="translate(403.45 30.52)"><tspan x="0" y="0">10</tspan></text>
      <line class="k" x1="43.48" y1="184.09" x2="398.52" y2="184.09"/>
      <line class="h" x1="59.62" y1="186.83" x2="59.62" y2="184.09"/>
      <line class="h" x1="78.61" y1="186.83" x2="78.61" y2="184.09"/>
      <line class="h" x1="97.59" y1="186.83" x2="97.59" y2="184.09"/>
      <line class="h" x1="116.58" y1="186.83" x2="116.58" y2="184.09"/>
      <line class="h" x1="135.57" y1="186.83" x2="135.57" y2="184.09"/>
      <line class="h" x1="154.55" y1="186.83" x2="154.55" y2="184.09"/>
      <line class="h" x1="173.54" y1="186.83" x2="173.54" y2="184.09"/>
      <line class="h" x1="192.52" y1="186.83" x2="192.52" y2="184.09"/>
      <line class="h" x1="211.51" y1="186.83" x2="211.51" y2="184.09"/>
      <line class="h" x1="230.5" y1="186.83" x2="230.5" y2="184.09"/>
      <line class="h" x1="249.48" y1="186.83" x2="249.48" y2="184.09"/>
      <line class="h" x1="268.47" y1="186.83" x2="268.47" y2="184.09"/>
      <line class="h" x1="287.46" y1="186.83" x2="287.46" y2="184.09"/>
      <line class="h" x1="306.44" y1="186.83" x2="306.44" y2="184.09"/>
      <line class="h" x1="325.43" y1="186.83" x2="325.43" y2="184.09"/>
      <line class="h" x1="344.41" y1="186.83" x2="344.41" y2="184.09"/>
      <line class="h" x1="363.4" y1="186.83" x2="363.4" y2="184.09"/>
      <line class="h" x1="382.39" y1="186.83" x2="382.39" y2="184.09"/>
      <text class="r" transform="translate(57.12 195.48)"><tspan x="0" y="0">1</tspan></text>
      <text class="r" transform="translate(76.11 195.48)"><tspan x="0" y="0">2</tspan></text>
      <text class="r" transform="translate(95.09 195.48)"><tspan x="0" y="0">3</tspan></text>
      <text class="r" transform="translate(114.08 195.48)"><tspan x="0" y="0">4</tspan></text>
      <text class="r" transform="translate(133.06 195.48)"><tspan x="0" y="0">5</tspan></text>
      <text class="r" transform="translate(152.05 195.48)"><tspan x="0" y="0">6</tspan></text>
      <text class="r" transform="translate(171.04 195.48)"><tspan x="0" y="0">7</tspan></text>
      <text class="r" transform="translate(190.02 195.48)"><tspan x="0" y="0">8</tspan></text>
      <text class="r" transform="translate(209.01 195.48)"><tspan x="0" y="0">9</tspan></text>
      <text class="r" transform="translate(225.49 195.48)"><tspan x="0" y="0">10</tspan></text>
      <text class="r" transform="translate(244.48 195.48)"><tspan x="0" y="0">11</tspan></text>
      <text class="r" transform="translate(263.47 195.48)"><tspan x="0" y="0">12</tspan></text>
      <text class="r" transform="translate(282.45 195.48)"><tspan x="0" y="0">13</tspan></text>
      <text class="r" transform="translate(301.44 195.48)"><tspan x="0" y="0">14</tspan></text>
      <text class="r" transform="translate(320.42 195.48)"><tspan x="0" y="0">15</tspan></text>
      <text class="r" transform="translate(339.41 195.48)"><tspan x="0" y="0">16</tspan></text>
      <text class="r" transform="translate(358.4 195.48)"><tspan x="0" y="0">17</tspan></text>
      <text class="r" transform="translate(377.38 195.48)"><tspan x="0" y="0">18</tspan></text>
      <text class="s" transform="translate(202.66 208.1)"><tspan x="0" y="0">threads</tspan></text>
      <text class="q" transform="translate(13.38 153.33) rotate(-90)"><tspan x="0" y="0">running time (seconds)</tspan></text>
      <text class="o" transform="translate(416.2 61.62) rotate(90)"><tspan x="0" y="0">Memo</tspan><tspan class="f" x="30.56" y="0">r</tspan><tspan x="34.54" y="0">y (GB)</tspan></text>
    </g>
  </g>
</svg>