<?xml version="1.0" encoding="utf-8"?>
<!-- Generator: Adobe Illustrator 16.0.3, SVG Export Plug-In . SVG Version: 6.00 Build 0)  -->
<!DOCTYPE svg PUBLIC "-//W3C//DTD SVG 1.1//EN" "http://www.w3.org/Graphics/SVG/1.1/DTD/svg11.dtd">
<svg version="1.1" id="Layer_1" xmlns="http://www.w3.org/2000/svg" xmlns:xlink="http://www.w3.org/1999/xlink" x="0px" y="0px"
	 width="864px" height="432px" viewBox="-215.75 -107.75 864 432" enable-background="new -215.75 -107.75 864 432"
	 xml:space="preserve">
<g>
	<g>
		<g>
			<defs>
				<rect id="SVGID_1_" x="-215.75" y="-107.75" width="864" height="432"/>
			</defs>
			<clipPath id="SVGID_2_">
				<use xlink:href="#SVGID_1_"  overflow="visible"/>
			</clipPath>
			<rect x="-215.75" y="-107.75" clip-path="url(#SVGID_2_)" fill="#FFFFFF" width="864" height="432"/>
		</g>
		<g>
			<defs>
				<rect id="SVGID_3_" x="-215.75" y="-107.75" width="864" height="432"/>
			</defs>
			<clipPath id="SVGID_4_">
				<use xlink:href="#SVGID_3_"  overflow="visible"/>
			</clipPath>
			
				<rect x="-215.75" y="-107.75" clip-path="url(#SVGID_4_)" fill="none" stroke="#FFFFFF" stroke-width="0.5" stroke-linecap="round" stroke-linejoin="round" stroke-miterlimit="10" width="864" height="432"/>
		</g>
	</g>
	<g>
		<g>
			<defs>
				<rect id="SVGID_5_" x="-128.79" y="-96.79" width="710.077" height="357.22"/>
			</defs>
			<clipPath id="SVGID_6_">
				<use xlink:href="#SVGID_5_"  overflow="visible"/>
			</clipPath>
			<rect x="-128.79" y="-96.79" clip-path="url(#SVGID_6_)" fill="#FFFFFF" width="710.077" height="357.22"/>
		</g>
		<g>
			<defs>
				<rect id="SVGID_7_" x="-128.79" y="-96.79" width="710.077" height="357.22"/>
			</defs>
			<clipPath id="SVGID_8_">
				<use xlink:href="#SVGID_7_"  overflow="visible"/>
			</clipPath>
			<path clip-path="url(#SVGID_8_)" fill="#FF0000" d="M-100.41-80.55c0-2.16,1.76-3.92,3.9-3.92c2.16,0,3.92,1.76,3.92,3.92
				c0,2.14-1.76,3.899-3.92,3.899C-98.65-76.65-100.41-78.41-100.41-80.55"/>
		</g>
		<g>
			<defs>
				<rect id="SVGID_9_" x="-128.79" y="-96.79" width="710.077" height="357.22"/>
			</defs>
			<clipPath id="SVGID_10_">
				<use xlink:href="#SVGID_9_"  overflow="visible"/>
			</clipPath>
			
				<path clip-path="url(#SVGID_10_)" fill="none" stroke="#FF0000" stroke-width="0.71" stroke-linecap="round" stroke-linejoin="round" stroke-miterlimit="10" d="
				M-100.41-80.55c0-2.16,1.76-3.92,3.9-3.92c2.16,0,3.92,1.76,3.92,3.92c0,2.14-1.76,3.899-3.92,3.899
				C-98.65-76.65-100.41-78.41-100.41-80.55"/>
		</g>
		<g>
			<defs>
				<rect id="SVGID_11_" x="-128.79" y="-96.79" width="710.077" height="357.22"/>
			</defs>
			<clipPath id="SVGID_12_">
				<use xlink:href="#SVGID_11_"  overflow="visible"/>
			</clipPath>
			<path clip-path="url(#SVGID_12_)" fill="#FF0000" d="M-62.45,85.05c0-2.16,1.758-3.92,3.918-3.92c2.141,0,3.902,1.76,3.902,3.92
				c0,2.138-1.762,3.9-3.902,3.9C-60.692,88.95-62.45,87.188-62.45,85.05"/>
		</g>
		<g>
			<defs>
				<rect id="SVGID_13_" x="-128.79" y="-96.79" width="710.077" height="357.22"/>
			</defs>
			<clipPath id="SVGID_14_">
				<use xlink:href="#SVGID_13_"  overflow="visible"/>
			</clipPath>
			
				<path clip-path="url(#SVGID_14_)" fill="none" stroke="#FF0000" stroke-width="0.71" stroke-linecap="round" stroke-linejoin="round" stroke-miterlimit="10" d="
				M-62.45,85.05c0-2.16,1.758-3.92,3.918-3.92c2.141,0,3.902,1.76,3.902,3.92c0,2.138-1.762,3.9-3.902,3.9
				C-60.692,88.95-62.45,87.188-62.45,85.05"/>
		</g>
		<g>
			<defs>
				<rect id="SVGID_15_" x="-128.79" y="-96.79" width="710.077" height="357.22"/>
			</defs>
			<clipPath id="SVGID_16_">
				<use xlink:href="#SVGID_15_"  overflow="visible"/>
			</clipPath>
			<path clip-path="url(#SVGID_16_)" fill="#FF0000" d="M-24.468,136.949c0-2.16,1.758-3.922,3.897-3.922
				c2.16,0,3.92,1.762,3.92,3.922c0,2.141-1.76,3.898-3.92,3.898C-22.71,140.848-24.468,139.09-24.468,136.949"/>
		</g>
		<g>
			<defs>
				<rect id="SVGID_17_" x="-128.79" y="-96.79" width="710.077" height="357.22"/>
			</defs>
			<clipPath id="SVGID_18_">
				<use xlink:href="#SVGID_17_"  overflow="visible"/>
			</clipPath>
			
				<path clip-path="url(#SVGID_18_)" fill="none" stroke="#FF0000" stroke-width="0.71" stroke-linecap="round" stroke-linejoin="round" stroke-miterlimit="10" d="
				M-24.468,136.949c0-2.16,1.758-3.922,3.897-3.922c2.16,0,3.92,1.762,3.92,3.922c0,2.141-1.76,3.898-3.92,3.898
				C-22.71,140.848-24.468,139.09-24.468,136.949"/>
		</g>
		<g>
			<defs>
				<rect id="SVGID_19_" x="-128.79" y="-96.79" width="710.077" height="357.22"/>
			</defs>
			<clipPath id="SVGID_20_">
				<use xlink:href="#SVGID_19_"  overflow="visible"/>
			</clipPath>
			<path clip-path="url(#SVGID_20_)" fill="#FF0000" d="M13.51,171.412c0-2.16,1.76-3.922,3.9-3.922c2.16,0,3.92,1.762,3.92,3.922
				c0,2.139-1.76,3.898-3.92,3.898C15.27,175.311,13.51,173.551,13.51,171.412"/>
		</g>
		<g>
			<defs>
				<rect id="SVGID_21_" x="-128.79" y="-96.79" width="710.077" height="357.22"/>
			</defs>
			<clipPath id="SVGID_22_">
				<use xlink:href="#SVGID_21_"  overflow="visible"/>
			</clipPath>
			
				<path clip-path="url(#SVGID_22_)" fill="none" stroke="#FF0000" stroke-width="0.71" stroke-linecap="round" stroke-linejoin="round" stroke-miterlimit="10" d="
				M13.51,171.412c0-2.16,1.76-3.922,3.9-3.922c2.16,0,3.92,1.762,3.92,3.922c0,2.139-1.76,3.898-3.92,3.898
				C15.27,175.311,13.51,173.551,13.51,171.412"/>
		</g>
		<g>
			<defs>
				<rect id="SVGID_23_" x="-128.79" y="-96.79" width="710.077" height="357.22"/>
			</defs>
			<clipPath id="SVGID_24_">
				<use xlink:href="#SVGID_23_"  overflow="visible"/>
			</clipPath>
			<path clip-path="url(#SVGID_24_)" fill="#FF0000" d="M51.468,185.008c0-2.16,1.763-3.898,3.922-3.898
				c2.141,0,3.898,1.738,3.898,3.898c0,2.141-1.758,3.902-3.898,3.902C53.23,188.912,51.468,187.15,51.468,185.008"/>
		</g>
		<g>
			<defs>
				<rect id="SVGID_25_" x="-128.79" y="-96.79" width="710.077" height="357.22"/>
			</defs>
			<clipPath id="SVGID_26_">
				<use xlink:href="#SVGID_25_"  overflow="visible"/>
			</clipPath>
			
				<path clip-path="url(#SVGID_26_)" fill="none" stroke="#FF0000" stroke-width="0.71" stroke-linecap="round" stroke-linejoin="round" stroke-miterlimit="10" d="
				M51.468,185.008c0-2.16,1.763-3.898,3.922-3.898c2.141,0,3.898,1.738,3.898,3.898c0,2.141-1.758,3.902-3.898,3.902
				C53.23,188.912,51.468,187.15,51.468,185.008"/>
		</g>
		<g>
			<defs>
				<rect id="SVGID_27_" x="-128.79" y="-96.79" width="710.077" height="357.22"/>
			</defs>
			<clipPath id="SVGID_28_">
				<use xlink:href="#SVGID_27_"  overflow="visible"/>
			</clipPath>
			<path clip-path="url(#SVGID_28_)" fill="#FF0000" d="M89.45,198.27c0-2.141,1.762-3.902,3.899-3.902
				c2.16,0,3.92,1.762,3.92,3.902c0,2.16-1.76,3.918-3.92,3.918C91.21,202.188,89.45,200.43,89.45,198.27"/>
		</g>
		<g>
			<defs>
				<rect id="SVGID_29_" x="-128.79" y="-96.79" width="710.077" height="357.22"/>
			</defs>
			<clipPath id="SVGID_30_">
				<use xlink:href="#SVGID_29_"  overflow="visible"/>
			</clipPath>
			
				<path clip-path="url(#SVGID_30_)" fill="none" stroke="#FF0000" stroke-width="0.71" stroke-linecap="round" stroke-linejoin="round" stroke-miterlimit="10" d="
				M89.45,198.27c0-2.141,1.762-3.902,3.899-3.902c2.16,0,3.92,1.762,3.92,3.902c0,2.16-1.76,3.918-3.92,3.918
				C91.21,202.188,89.45,200.43,89.45,198.27"/>
		</g>
		<g>
			<defs>
				<rect id="SVGID_31_" x="-128.79" y="-96.79" width="710.077" height="357.22"/>
			</defs>
			<clipPath id="SVGID_32_">
				<use xlink:href="#SVGID_31_"  overflow="visible"/>
			</clipPath>
			<path clip-path="url(#SVGID_32_)" fill="#FF0000" d="M127.41,204.008c0-2.141,1.76-3.898,3.92-3.898c2.138,0,3.9,1.758,3.9,3.898
				c0,2.16-1.763,3.922-3.9,3.922C129.17,207.93,127.41,206.168,127.41,204.008"/>
		</g>
		<g>
			<defs>
				<rect id="SVGID_33_" x="-128.79" y="-96.79" width="710.077" height="357.22"/>
			</defs>
			<clipPath id="SVGID_34_">
				<use xlink:href="#SVGID_33_"  overflow="visible"/>
			</clipPath>
			
				<path clip-path="url(#SVGID_34_)" fill="none" stroke="#FF0000" stroke-width="0.71" stroke-linecap="round" stroke-linejoin="round" stroke-miterlimit="10" d="
				M127.41,204.008c0-2.141,1.76-3.898,3.92-3.898c2.138,0,3.9,1.758,3.9,3.898c0,2.16-1.763,3.922-3.9,3.922
				C129.17,207.93,127.41,206.168,127.41,204.008"/>
		</g>
		<g>
			<defs>
				<rect id="SVGID_35_" x="-128.79" y="-96.79" width="710.077" height="357.22"/>
			</defs>
			<clipPath id="SVGID_36_">
				<use xlink:href="#SVGID_35_"  overflow="visible"/>
			</clipPath>
			<path clip-path="url(#SVGID_36_)" fill="#FF0000" d="M165.39,210.789c0-2.16,1.761-3.922,3.898-3.922
				c2.16,0,3.922,1.762,3.922,3.922c0,2.141-1.762,3.898-3.922,3.898C167.15,214.688,165.39,212.93,165.39,210.789"/>
		</g>
		<g>
			<defs>
				<rect id="SVGID_37_" x="-128.79" y="-96.79" width="710.077" height="357.22"/>
			</defs>
			<clipPath id="SVGID_38_">
				<use xlink:href="#SVGID_37_"  overflow="visible"/>
			</clipPath>
			
				<path clip-path="url(#SVGID_38_)" fill="none" stroke="#FF0000" stroke-width="0.71" stroke-linecap="round" stroke-linejoin="round" stroke-miterlimit="10" d="
				M165.39,210.789c0-2.16,1.761-3.922,3.898-3.922c2.16,0,3.922,1.762,3.922,3.922c0,2.141-1.762,3.898-3.922,3.898
				C167.15,214.688,165.39,212.93,165.39,210.789"/>
		</g>
		<g>
			<defs>
				<rect id="SVGID_39_" x="-128.79" y="-96.79" width="710.077" height="357.22"/>
			</defs>
			<clipPath id="SVGID_40_">
				<use xlink:href="#SVGID_39_"  overflow="visible"/>
			</clipPath>
			<path clip-path="url(#SVGID_40_)" fill="#FF0000" d="M203.372,214.008c0-2.16,1.758-3.918,3.897-3.918
				c2.16,0,3.923,1.758,3.923,3.918c0,2.141-1.763,3.902-3.923,3.902C205.128,217.912,203.372,216.15,203.372,214.008"/>
		</g>
		<g>
			<defs>
				<rect id="SVGID_41_" x="-128.79" y="-96.79" width="710.077" height="357.22"/>
			</defs>
			<clipPath id="SVGID_42_">
				<use xlink:href="#SVGID_41_"  overflow="visible"/>
			</clipPath>
			
				<path clip-path="url(#SVGID_42_)" fill="none" stroke="#FF0000" stroke-width="0.71" stroke-linecap="round" stroke-linejoin="round" stroke-miterlimit="10" d="
				M203.372,214.008c0-2.16,1.758-3.918,3.897-3.918c2.16,0,3.923,1.758,3.923,3.918c0,2.141-1.763,3.902-3.923,3.902
				C205.128,217.912,203.372,216.15,203.372,214.008"/>
		</g>
		<g>
			<defs>
				<rect id="SVGID_43_" x="-128.79" y="-96.79" width="710.077" height="357.22"/>
			</defs>
			<clipPath id="SVGID_44_">
				<use xlink:href="#SVGID_43_"  overflow="visible"/>
			</clipPath>
			<path clip-path="url(#SVGID_44_)" fill="#FF0000" d="M241.33,218.109c0-2.16,1.76-3.922,3.92-3.922c2.141,0,3.9,1.762,3.9,3.922
				c0,2.141-1.76,3.898-3.9,3.898C243.09,222.008,241.33,220.25,241.33,218.109"/>
		</g>
		<g>
			<defs>
				<rect id="SVGID_45_" x="-128.79" y="-96.79" width="710.077" height="357.22"/>
			</defs>
			<clipPath id="SVGID_46_">
				<use xlink:href="#SVGID_45_"  overflow="visible"/>
			</clipPath>
			
				<path clip-path="url(#SVGID_46_)" fill="none" stroke="#FF0000" stroke-width="0.71" stroke-linecap="round" stroke-linejoin="round" stroke-miterlimit="10" d="
				M241.33,218.109c0-2.16,1.76-3.922,3.92-3.922c2.141,0,3.9,1.762,3.9,3.922c0,2.141-1.76,3.898-3.9,3.898
				C243.09,222.008,241.33,220.25,241.33,218.109"/>
		</g>
		<g>
			<defs>
				<rect id="SVGID_47_" x="-128.79" y="-96.79" width="710.077" height="357.22"/>
			</defs>
			<clipPath id="SVGID_48_">
				<use xlink:href="#SVGID_47_"  overflow="visible"/>
			</clipPath>
			<path clip-path="url(#SVGID_48_)" fill="#FF0000" d="M279.309,218.65c0-2.16,1.762-3.918,3.902-3.918
				c2.156,0,3.918,1.758,3.918,3.918c0,2.139-1.762,3.9-3.918,3.9C281.07,222.551,279.309,220.789,279.309,218.65"/>
		</g>
		<g>
			<defs>
				<rect id="SVGID_49_" x="-128.79" y="-96.79" width="710.077" height="357.22"/>
			</defs>
			<clipPath id="SVGID_50_">
				<use xlink:href="#SVGID_49_"  overflow="visible"/>
			</clipPath>
			
				<path clip-path="url(#SVGID_50_)" fill="none" stroke="#FF0000" stroke-width="0.71" stroke-linecap="round" stroke-linejoin="round" stroke-miterlimit="10" d="
				M279.309,218.65c0-2.16,1.762-3.918,3.902-3.918c2.156,0,3.918,1.758,3.918,3.918c0,2.139-1.762,3.9-3.918,3.9
				C281.07,222.551,279.309,220.789,279.309,218.65"/>
		</g>
		<g>
			<defs>
				<rect id="SVGID_51_" x="-128.79" y="-96.79" width="710.077" height="357.22"/>
			</defs>
			<clipPath id="SVGID_52_">
				<use xlink:href="#SVGID_51_"  overflow="visible"/>
			</clipPath>
			<path clip-path="url(#SVGID_52_)" fill="#FF0000" d="M317.27,220.15c0-2.141,1.762-3.898,3.922-3.898
				c2.139,0,3.898,1.758,3.898,3.898c0,2.16-1.76,3.922-3.898,3.922C319.031,224.072,317.27,222.311,317.27,220.15"/>
		</g>
		<g>
			<defs>
				<rect id="SVGID_53_" x="-128.79" y="-96.79" width="710.077" height="357.22"/>
			</defs>
			<clipPath id="SVGID_54_">
				<use xlink:href="#SVGID_53_"  overflow="visible"/>
			</clipPath>
			
				<path clip-path="url(#SVGID_54_)" fill="none" stroke="#FF0000" stroke-width="0.71" stroke-linecap="round" stroke-linejoin="round" stroke-miterlimit="10" d="
				M317.27,220.15c0-2.141,1.762-3.898,3.922-3.898c2.139,0,3.898,1.758,3.898,3.898c0,2.16-1.76,3.922-3.898,3.922
				C319.031,224.072,317.27,222.311,317.27,220.15"/>
		</g>
		<g>
			<defs>
				<rect id="SVGID_55_" x="-128.79" y="-96.79" width="710.077" height="357.22"/>
			</defs>
			<clipPath id="SVGID_56_">
				<use xlink:href="#SVGID_55_"  overflow="visible"/>
			</clipPath>
			<path clip-path="url(#SVGID_56_)" fill="#FF0000" d="M355.25,221.109c0-2.141,1.76-3.898,3.92-3.898c2.139,0,3.9,1.758,3.9,3.898
				c0,2.16-1.762,3.918-3.9,3.918C357.01,225.027,355.25,223.27,355.25,221.109"/>
		</g>
		<g>
			<defs>
				<rect id="SVGID_57_" x="-128.79" y="-96.79" width="710.077" height="357.22"/>
			</defs>
			<clipPath id="SVGID_58_">
				<use xlink:href="#SVGID_57_"  overflow="visible"/>
			</clipPath>
			
				<path clip-path="url(#SVGID_58_)" fill="none" stroke="#FF0000" stroke-width="0.71" stroke-linecap="round" stroke-linejoin="round" stroke-miterlimit="10" d="
				M355.25,221.109c0-2.141,1.76-3.898,3.92-3.898c2.139,0,3.9,1.758,3.9,3.898c0,2.16-1.762,3.918-3.9,3.918
				C357.01,225.027,355.25,223.27,355.25,221.109"/>
		</g>
		<g>
			<defs>
				<rect id="SVGID_59_" x="-128.79" y="-96.79" width="710.077" height="357.22"/>
			</defs>
			<clipPath id="SVGID_60_">
				<use xlink:href="#SVGID_59_"  overflow="visible"/>
			</clipPath>
			<path clip-path="url(#SVGID_60_)" fill="#FF0000" d="M393.23,222.83c0-2.16,1.76-3.918,3.9-3.918c2.156,0,3.92,1.758,3.92,3.918
				c0,2.139-1.764,3.902-3.92,3.902C394.99,226.732,393.23,224.969,393.23,222.83"/>
		</g>
		<g>
			<defs>
				<rect id="SVGID_61_" x="-128.79" y="-96.79" width="710.077" height="357.22"/>
			</defs>
			<clipPath id="SVGID_62_">
				<use xlink:href="#SVGID_61_"  overflow="visible"/>
			</clipPath>
			
				<path clip-path="url(#SVGID_62_)" fill="none" stroke="#FF0000" stroke-width="0.71" stroke-linecap="round" stroke-linejoin="round" stroke-miterlimit="10" d="
				M393.23,222.83c0-2.16,1.76-3.918,3.9-3.918c2.156,0,3.92,1.758,3.92,3.918c0,2.139-1.764,3.902-3.92,3.902
				C394.99,226.732,393.23,224.969,393.23,222.83"/>
		</g>
		<g>
			<defs>
				<rect id="SVGID_63_" x="-128.79" y="-96.79" width="710.077" height="357.22"/>
			</defs>
			<clipPath id="SVGID_64_">
				<use xlink:href="#SVGID_63_"  overflow="visible"/>
			</clipPath>
			<path clip-path="url(#SVGID_64_)" fill="#FF0000" d="M431.189,221.527c0-2.16,1.76-3.918,3.92-3.918c2.141,0,3.9,1.758,3.9,3.918
				c0,2.141-1.76,3.902-3.9,3.902C432.949,225.43,431.189,223.668,431.189,221.527"/>
		</g>
		<g>
			<defs>
				<rect id="SVGID_65_" x="-128.79" y="-96.79" width="710.077" height="357.22"/>
			</defs>
			<clipPath id="SVGID_66_">
				<use xlink:href="#SVGID_65_"  overflow="visible"/>
			</clipPath>
			
				<path clip-path="url(#SVGID_66_)" fill="none" stroke="#FF0000" stroke-width="0.71" stroke-linecap="round" stroke-linejoin="round" stroke-miterlimit="10" d="
				M431.189,221.527c0-2.16,1.76-3.918,3.92-3.918c2.141,0,3.9,1.758,3.9,3.918c0,2.141-1.76,3.902-3.9,3.902
				C432.949,225.43,431.189,223.668,431.189,221.527"/>
		</g>
		<g>
			<defs>
				<rect id="SVGID_67_" x="-128.79" y="-96.79" width="710.077" height="357.22"/>
			</defs>
			<clipPath id="SVGID_68_">
				<use xlink:href="#SVGID_67_"  overflow="visible"/>
			</clipPath>
			<path clip-path="url(#SVGID_68_)" fill="#FF0000" d="M469.17,222.412c0-2.16,1.76-3.902,3.9-3.902c2.16,0,3.92,1.742,3.92,3.902
				s-1.76,3.898-3.92,3.898C470.93,226.311,469.17,224.572,469.17,222.412"/>
		</g>
		<g>
			<defs>
				<rect id="SVGID_69_" x="-128.79" y="-96.79" width="710.077" height="357.22"/>
			</defs>
			<clipPath id="SVGID_70_">
				<use xlink:href="#SVGID_69_"  overflow="visible"/>
			</clipPath>
			
				<path clip-path="url(#SVGID_70_)" fill="none" stroke="#FF0000" stroke-width="0.71" stroke-linecap="round" stroke-linejoin="round" stroke-miterlimit="10" d="
				M469.17,222.412c0-2.16,1.76-3.902,3.9-3.902c2.16,0,3.92,1.742,3.92,3.902s-1.76,3.898-3.92,3.898
				C470.93,226.311,469.17,224.572,469.17,222.412"/>
		</g>
		<g>
			<defs>
				<rect id="SVGID_71_" x="-128.79" y="-96.79" width="710.077" height="357.22"/>
			</defs>
			<clipPath id="SVGID_72_">
				<use xlink:href="#SVGID_71_"  overflow="visible"/>
			</clipPath>
			<path clip-path="url(#SVGID_72_)" fill="#FF0000" d="M507.131,222.609c0-2.141,1.76-3.898,3.92-3.898
				c2.137,0,3.896,1.758,3.896,3.898c0,2.16-1.76,3.918-3.896,3.918C508.891,226.527,507.131,224.77,507.131,222.609"/>
		</g>
		<g>
			<defs>
				<rect id="SVGID_73_" x="-128.79" y="-96.79" width="710.077" height="357.22"/>
			</defs>
			<clipPath id="SVGID_74_">
				<use xlink:href="#SVGID_73_"  overflow="visible"/>
			</clipPath>
			
				<path clip-path="url(#SVGID_74_)" fill="none" stroke="#FF0000" stroke-width="0.71" stroke-linecap="round" stroke-linejoin="round" stroke-miterlimit="10" d="
				M507.131,222.609c0-2.141,1.76-3.898,3.92-3.898c2.137,0,3.896,1.758,3.896,3.898c0,2.16-1.76,3.918-3.896,3.918
				C508.891,226.527,507.131,224.77,507.131,222.609"/>
		</g>
		<g>
			<defs>
				<rect id="SVGID_75_" x="-128.79" y="-96.79" width="710.077" height="357.22"/>
			</defs>
			<clipPath id="SVGID_76_">
				<use xlink:href="#SVGID_75_"  overflow="visible"/>
			</clipPath>
			<path clip-path="url(#SVGID_76_)" fill="#FF0000" d="M545.109,223.168c0-2.16,1.76-3.918,3.92-3.918c2.141,0,3.9,1.758,3.9,3.918
				c0,2.141-1.76,3.902-3.9,3.902C546.869,227.072,545.109,225.311,545.109,223.168"/>
		</g>
		<g>
			<defs>
				<rect id="SVGID_77_" x="-128.79" y="-96.79" width="710.077" height="357.22"/>
			</defs>
			<clipPath id="SVGID_78_">
				<use xlink:href="#SVGID_77_"  overflow="visible"/>
			</clipPath>
			
				<path clip-path="url(#SVGID_78_)" fill="none" stroke="#FF0000" stroke-width="0.71" stroke-linecap="round" stroke-linejoin="round" stroke-miterlimit="10" d="
				M545.109,223.168c0-2.16,1.76-3.918,3.92-3.918c2.141,0,3.9,1.758,3.9,3.918c0,2.141-1.76,3.902-3.9,3.902
				C546.869,227.072,545.109,225.311,545.109,223.168"/>
		</g>
		<g>
			<defs>
				<rect id="SVGID_79_" x="-128.79" y="-96.79" width="710.077" height="357.22"/>
			</defs>
			<clipPath id="SVGID_80_">
				<use xlink:href="#SVGID_79_"  overflow="visible"/>
			</clipPath>
			<path clip-path="url(#SVGID_80_)" fill="#0000FF" d="M-100.41,244.188c0-2.137,1.76-3.898,3.9-3.898
				c2.16,0,3.92,1.762,3.92,3.898c0,2.16-1.76,3.922-3.92,3.922C-98.65,248.109-100.41,246.348-100.41,244.188"/>
		</g>
		<g>
			<defs>
				<rect id="SVGID_81_" x="-128.79" y="-96.79" width="710.077" height="357.22"/>
			</defs>
			<clipPath id="SVGID_82_">
				<use xlink:href="#SVGID_81_"  overflow="visible"/>
			</clipPath>
			
				<path clip-path="url(#SVGID_82_)" fill="none" stroke="#0000FF" stroke-width="0.71" stroke-linecap="round" stroke-linejoin="round" stroke-miterlimit="10" d="
				M-100.41,244.188c0-2.137,1.76-3.898,3.9-3.898c2.16,0,3.92,1.762,3.92,3.898c0,2.16-1.76,3.922-3.92,3.922
				C-98.65,248.109-100.41,246.348-100.41,244.188"/>
		</g>
		<g>
			<defs>
				<rect id="SVGID_83_" x="-128.79" y="-96.79" width="710.077" height="357.22"/>
			</defs>
			<clipPath id="SVGID_84_">
				<use xlink:href="#SVGID_83_"  overflow="visible"/>
			</clipPath>
			<path clip-path="url(#SVGID_84_)" fill="#0000FF" d="M-62.45,229.027c0-2.135,1.758-3.898,3.918-3.898
				c2.141,0,3.902,1.762,3.902,3.898c0,2.16-1.762,3.922-3.902,3.922C-60.692,232.949-62.45,231.188-62.45,229.027"/>
		</g>
		<g>
			<defs>
				<rect id="SVGID_85_" x="-128.79" y="-96.79" width="710.077" height="357.22"/>
			</defs>
			<clipPath id="SVGID_86_">
				<use xlink:href="#SVGID_85_"  overflow="visible"/>
			</clipPath>
			
				<path clip-path="url(#SVGID_86_)" fill="none" stroke="#0000FF" stroke-width="0.71" stroke-linecap="round" stroke-linejoin="round" stroke-miterlimit="10" d="
				M-62.45,229.027c0-2.135,1.758-3.898,3.918-3.898c2.141,0,3.902,1.762,3.902,3.898c0,2.16-1.762,3.922-3.902,3.922
				C-60.692,232.949-62.45,231.188-62.45,229.027"/>
		</g>
		<g>
			<defs>
				<rect id="SVGID_87_" x="-128.79" y="-96.79" width="710.077" height="357.22"/>
			</defs>
			<clipPath id="SVGID_88_">
				<use xlink:href="#SVGID_87_"  overflow="visible"/>
			</clipPath>
			<path clip-path="url(#SVGID_88_)" fill="#0000FF" d="M-24.468,205.867c0-2.156,1.758-3.918,3.897-3.918
				c2.16,0,3.92,1.762,3.92,3.918c0,2.141-1.76,3.902-3.92,3.902C-22.71,209.77-24.468,208.008-24.468,205.867"/>
		</g>
		<g>
			<defs>
				<rect id="SVGID_89_" x="-128.79" y="-96.79" width="710.077" height="357.22"/>
			</defs>
			<clipPath id="SVGID_90_">
				<use xlink:href="#SVGID_89_"  overflow="visible"/>
			</clipPath>
			
				<path clip-path="url(#SVGID_90_)" fill="none" stroke="#0000FF" stroke-width="0.71" stroke-linecap="round" stroke-linejoin="round" stroke-miterlimit="10" d="
				M-24.468,205.867c0-2.156,1.758-3.918,3.897-3.918c2.16,0,3.92,1.762,3.92,3.918c0,2.141-1.76,3.902-3.92,3.902
				C-22.71,209.77-24.468,208.008-24.468,205.867"/>
		</g>
		<g>
			<defs>
				<rect id="SVGID_91_" x="-128.79" y="-96.79" width="710.077" height="357.22"/>
			</defs>
			<clipPath id="SVGID_92_">
				<use xlink:href="#SVGID_91_"  overflow="visible"/>
			</clipPath>
			<path clip-path="url(#SVGID_92_)" fill="#0000FF" d="M13.51,184.572c0-2.16,1.76-3.922,3.9-3.922c2.16,0,3.92,1.762,3.92,3.922
				c0,2.139-1.76,3.896-3.92,3.896C15.27,188.469,13.51,186.711,13.51,184.572"/>
		</g>
		<g>
			<defs>
				<rect id="SVGID_93_" x="-128.79" y="-96.79" width="710.077" height="357.22"/>
			</defs>
			<clipPath id="SVGID_94_">
				<use xlink:href="#SVGID_93_"  overflow="visible"/>
			</clipPath>
			
				<path clip-path="url(#SVGID_94_)" fill="none" stroke="#0000FF" stroke-width="0.71" stroke-linecap="round" stroke-linejoin="round" stroke-miterlimit="10" d="
				M13.51,184.572c0-2.16,1.76-3.922,3.9-3.922c2.16,0,3.92,1.762,3.92,3.922c0,2.139-1.76,3.896-3.92,3.896
				C15.27,188.469,13.51,186.711,13.51,184.572"/>
		</g>
		<g>
			<defs>
				<rect id="SVGID_95_" x="-128.79" y="-96.79" width="710.077" height="357.22"/>
			</defs>
			<clipPath id="SVGID_96_">
				<use xlink:href="#SVGID_95_"  overflow="visible"/>
			</clipPath>
			<path clip-path="url(#SVGID_96_)" fill="#0000FF" d="M51.468,163.391c0-2.139,1.763-3.9,3.922-3.9c2.141,0,3.898,1.762,3.898,3.9
				c0,2.16-1.758,3.92-3.898,3.92C53.23,167.311,51.468,165.551,51.468,163.391"/>
		</g>
		<g>
			<defs>
				<rect id="SVGID_97_" x="-128.79" y="-96.79" width="710.077" height="357.22"/>
			</defs>
			<clipPath id="SVGID_98_">
				<use xlink:href="#SVGID_97_"  overflow="visible"/>
			</clipPath>
			
				<path clip-path="url(#SVGID_98_)" fill="none" stroke="#0000FF" stroke-width="0.71" stroke-linecap="round" stroke-linejoin="round" stroke-miterlimit="10" d="
				M51.468,163.391c0-2.139,1.763-3.9,3.922-3.9c2.141,0,3.898,1.762,3.898,3.9c0,2.16-1.758,3.92-3.898,3.92
				C53.23,167.311,51.468,165.551,51.468,163.391"/>
		</g>
		<g>
			<defs>
				<rect id="SVGID_99_" x="-128.79" y="-96.79" width="710.077" height="357.22"/>
			</defs>
			<clipPath id="SVGID_100_">
				<use xlink:href="#SVGID_99_"  overflow="visible"/>
			</clipPath>
			<path clip-path="url(#SVGID_100_)" fill="#0000FF" d="M89.45,153.65c0-2.16,1.762-3.898,3.899-3.898
				c2.16,0,3.92,1.738,3.92,3.898c0,2.139-1.76,3.9-3.92,3.9C91.21,157.551,89.45,155.789,89.45,153.65"/>
		</g>
		<g>
			<defs>
				<rect id="SVGID_101_" x="-128.79" y="-96.79" width="710.077" height="357.22"/>
			</defs>
			<clipPath id="SVGID_102_">
				<use xlink:href="#SVGID_101_"  overflow="visible"/>
			</clipPath>
			
				<path clip-path="url(#SVGID_102_)" fill="none" stroke="#0000FF" stroke-width="0.71" stroke-linecap="round" stroke-linejoin="round" stroke-miterlimit="10" d="
				M89.45,153.65c0-2.16,1.762-3.898,3.899-3.898c2.16,0,3.92,1.738,3.92,3.898c0,2.139-1.76,3.9-3.92,3.9
				C91.21,157.551,89.45,155.789,89.45,153.65"/>
		</g>
		<g>
			<defs>
				<rect id="SVGID_103_" x="-128.79" y="-96.79" width="710.077" height="357.22"/>
			</defs>
			<clipPath id="SVGID_104_">
				<use xlink:href="#SVGID_103_"  overflow="visible"/>
			</clipPath>
			<path clip-path="url(#SVGID_104_)" fill="#0000FF" d="M127.41,135.09c0-2.16,1.76-3.922,3.92-3.922c2.138,0,3.9,1.762,3.9,3.922
				c0,2.141-1.763,3.898-3.9,3.898C129.17,138.99,127.41,137.232,127.41,135.09"/>
		</g>
		<g>
			<defs>
				<rect id="SVGID_105_" x="-128.79" y="-96.79" width="710.077" height="357.22"/>
			</defs>
			<clipPath id="SVGID_106_">
				<use xlink:href="#SVGID_105_"  overflow="visible"/>
			</clipPath>
			
				<path clip-path="url(#SVGID_106_)" fill="none" stroke="#0000FF" stroke-width="0.71" stroke-linecap="round" stroke-linejoin="round" stroke-miterlimit="10" d="
				M127.41,135.09c0-2.16,1.76-3.922,3.92-3.922c2.138,0,3.9,1.762,3.9,3.922c0,2.141-1.763,3.898-3.9,3.898
				C129.17,138.99,127.41,137.232,127.41,135.09"/>
		</g>
		<g>
			<defs>
				<rect id="SVGID_107_" x="-128.79" y="-96.79" width="710.077" height="357.22"/>
			</defs>
			<clipPath id="SVGID_108_">
				<use xlink:href="#SVGID_107_"  overflow="visible"/>
			</clipPath>
			<path clip-path="url(#SVGID_108_)" fill="#0000FF" d="M165.39,116.75c0-2.141,1.761-3.902,3.898-3.902
				c2.16,0,3.922,1.762,3.922,3.902c0,2.16-1.762,3.918-3.922,3.918C167.15,120.668,165.39,118.912,165.39,116.75"/>
		</g>
		<g>
			<defs>
				<rect id="SVGID_109_" x="-128.79" y="-96.79" width="710.077" height="357.22"/>
			</defs>
			<clipPath id="SVGID_110_">
				<use xlink:href="#SVGID_109_"  overflow="visible"/>
			</clipPath>
			
				<path clip-path="url(#SVGID_110_)" fill="none" stroke="#0000FF" stroke-width="0.71" stroke-linecap="round" stroke-linejoin="round" stroke-miterlimit="10" d="
				M165.39,116.75c0-2.141,1.761-3.902,3.898-3.902c2.16,0,3.922,1.762,3.922,3.902c0,2.16-1.762,3.918-3.922,3.918
				C167.15,120.668,165.39,118.912,165.39,116.75"/>
		</g>
		<g>
			<defs>
				<rect id="SVGID_111_" x="-128.79" y="-96.79" width="710.077" height="357.22"/>
			</defs>
			<clipPath id="SVGID_112_">
				<use xlink:href="#SVGID_111_"  overflow="visible"/>
			</clipPath>
			<path clip-path="url(#SVGID_112_)" fill="#0000FF" d="M203.372,95.15c0-2.141,1.758-3.898,3.897-3.898
				c2.16,0,3.923,1.758,3.923,3.898c0,2.16-1.763,3.922-3.923,3.922C205.128,99.072,203.372,97.311,203.372,95.15"/>
		</g>
		<g>
			<defs>
				<rect id="SVGID_113_" x="-128.79" y="-96.79" width="710.077" height="357.22"/>
			</defs>
			<clipPath id="SVGID_114_">
				<use xlink:href="#SVGID_113_"  overflow="visible"/>
			</clipPath>
			
				<path clip-path="url(#SVGID_114_)" fill="none" stroke="#0000FF" stroke-width="0.71" stroke-linecap="round" stroke-linejoin="round" stroke-miterlimit="10" d="
				M203.372,95.15c0-2.141,1.758-3.898,3.897-3.898c2.16,0,3.923,1.758,3.923,3.898c0,2.16-1.763,3.922-3.923,3.922
				C205.128,99.072,203.372,97.311,203.372,95.15"/>
		</g>
		<g>
			<defs>
				<rect id="SVGID_115_" x="-128.79" y="-96.79" width="710.077" height="357.22"/>
			</defs>
			<clipPath id="SVGID_116_">
				<use xlink:href="#SVGID_115_"  overflow="visible"/>
			</clipPath>
			<path clip-path="url(#SVGID_116_)" fill="#0000FF" d="M241.33,62.61c0-2.16,1.76-3.921,3.92-3.921c2.141,0,3.9,1.761,3.9,3.921
				c0,2.14-1.76,3.897-3.9,3.897C243.09,66.508,241.33,64.75,241.33,62.61"/>
		</g>
		<g>
			<defs>
				<rect id="SVGID_117_" x="-128.79" y="-96.79" width="710.077" height="357.22"/>
			</defs>
			<clipPath id="SVGID_118_">
				<use xlink:href="#SVGID_117_"  overflow="visible"/>
			</clipPath>
			
				<path clip-path="url(#SVGID_118_)" fill="none" stroke="#0000FF" stroke-width="0.71" stroke-linecap="round" stroke-linejoin="round" stroke-miterlimit="10" d="
				M241.33,62.61c0-2.16,1.76-3.921,3.92-3.921c2.141,0,3.9,1.761,3.9,3.921c0,2.14-1.76,3.897-3.9,3.897
				C243.09,66.508,241.33,64.75,241.33,62.61"/>
		</g>
		<g>
			<defs>
				<rect id="SVGID_119_" x="-128.79" y="-96.79" width="710.077" height="357.22"/>
			</defs>
			<clipPath id="SVGID_120_">
				<use xlink:href="#SVGID_119_"  overflow="visible"/>
			</clipPath>
			<path clip-path="url(#SVGID_120_)" fill="#0000FF" d="M279.309,60.732c0-2.141,1.762-3.902,3.902-3.902
				c2.156,0,3.918,1.762,3.918,3.902c0,2.157-1.762,3.918-3.918,3.918C281.07,64.65,279.309,62.89,279.309,60.732"/>
		</g>
		<g>
			<defs>
				<rect id="SVGID_121_" x="-128.79" y="-96.79" width="710.077" height="357.22"/>
			</defs>
			<clipPath id="SVGID_122_">
				<use xlink:href="#SVGID_121_"  overflow="visible"/>
			</clipPath>
			
				<path clip-path="url(#SVGID_122_)" fill="none" stroke="#0000FF" stroke-width="0.71" stroke-linecap="round" stroke-linejoin="round" stroke-miterlimit="10" d="
				M279.309,60.732c0-2.141,1.762-3.902,3.902-3.902c2.156,0,3.918,1.762,3.918,3.902c0,2.157-1.762,3.918-3.918,3.918
				C281.07,64.65,279.309,62.89,279.309,60.732"/>
		</g>
		<g>
			<defs>
				<rect id="SVGID_123_" x="-128.79" y="-96.79" width="710.077" height="357.22"/>
			</defs>
			<clipPath id="SVGID_124_">
				<use xlink:href="#SVGID_123_"  overflow="visible"/>
			</clipPath>
			<path clip-path="url(#SVGID_124_)" fill="#0000FF" d="M317.27,19.33c0-2.138,1.762-3.898,3.922-3.898
				c2.139,0,3.898,1.761,3.898,3.898c0,2.16-1.76,3.922-3.898,3.922C319.031,23.25,317.27,21.49,317.27,19.33"/>
		</g>
		<g>
			<defs>
				<rect id="SVGID_125_" x="-128.79" y="-96.79" width="710.077" height="357.22"/>
			</defs>
			<clipPath id="SVGID_126_">
				<use xlink:href="#SVGID_125_"  overflow="visible"/>
			</clipPath>
			
				<path clip-path="url(#SVGID_126_)" fill="none" stroke="#0000FF" stroke-width="0.71" stroke-linecap="round" stroke-linejoin="round" stroke-miterlimit="10" d="
				M317.27,19.33c0-2.138,1.762-3.898,3.922-3.898c2.139,0,3.898,1.761,3.898,3.898c0,2.16-1.76,3.922-3.898,3.922
				C319.031,23.25,317.27,21.49,317.27,19.33"/>
		</g>
		<g>
			<defs>
				<rect id="SVGID_127_" x="-128.79" y="-96.79" width="710.077" height="357.22"/>
			</defs>
			<clipPath id="SVGID_128_">
				<use xlink:href="#SVGID_127_"  overflow="visible"/>
			</clipPath>
			<path clip-path="url(#SVGID_128_)" fill="#0000FF" d="M355.25-1.57c0-2.14,1.76-3.899,3.92-3.899c2.139,0,3.9,1.76,3.9,3.899
				c0,2.16-1.762,3.918-3.9,3.918C357.01,2.348,355.25,0.59,355.25-1.57"/>
		</g>
		<g>
			<defs>
				<rect id="SVGID_129_" x="-128.79" y="-96.79" width="710.077" height="357.22"/>
			</defs>
			<clipPath id="SVGID_130_">
				<use xlink:href="#SVGID_129_"  overflow="visible"/>
			</clipPath>
			
				<path clip-path="url(#SVGID_130_)" fill="none" stroke="#0000FF" stroke-width="0.71" stroke-linecap="round" stroke-linejoin="round" stroke-miterlimit="10" d="
				M355.25-1.57c0-2.14,1.76-3.899,3.92-3.899c2.139,0,3.9,1.76,3.9,3.899c0,2.16-1.762,3.918-3.9,3.918
				C357.01,2.348,355.25,0.59,355.25-1.57"/>
		</g>
		<g>
			<defs>
				<rect id="SVGID_131_" x="-128.79" y="-96.79" width="710.077" height="357.22"/>
			</defs>
			<clipPath id="SVGID_132_">
				<use xlink:href="#SVGID_131_"  overflow="visible"/>
			</clipPath>
			<path clip-path="url(#SVGID_132_)" fill="#0000FF" d="M393.23-6.832c0-2.16,1.76-3.918,3.9-3.918c2.156,0,3.92,1.758,3.92,3.918
				c0,2.14-1.764,3.902-3.92,3.902C394.99-2.928,393.23-4.689,393.23-6.832"/>
		</g>
		<g>
			<defs>
				<rect id="SVGID_133_" x="-128.79" y="-96.79" width="710.077" height="357.22"/>
			</defs>
			<clipPath id="SVGID_134_">
				<use xlink:href="#SVGID_133_"  overflow="visible"/>
			</clipPath>
			
				<path clip-path="url(#SVGID_134_)" fill="none" stroke="#0000FF" stroke-width="0.71" stroke-linecap="round" stroke-linejoin="round" stroke-miterlimit="10" d="
				M393.23-6.832c0-2.16,1.76-3.918,3.9-3.918c2.156,0,3.92,1.758,3.92,3.918c0,2.14-1.764,3.902-3.92,3.902
				C394.99-2.928,393.23-4.689,393.23-6.832"/>
		</g>
		<g>
			<defs>
				<rect id="SVGID_135_" x="-128.79" y="-96.79" width="710.077" height="357.22"/>
			</defs>
			<clipPath id="SVGID_136_">
				<use xlink:href="#SVGID_135_"  overflow="visible"/>
			</clipPath>
			<path clip-path="url(#SVGID_136_)" fill="#0000FF" d="M431.189-13.25c0-2.14,1.76-3.902,3.92-3.902c2.141,0,3.9,1.763,3.9,3.902
				c0,2.16-1.76,3.918-3.9,3.918C432.949-9.332,431.189-11.088,431.189-13.25"/>
		</g>
		<g>
			<defs>
				<rect id="SVGID_137_" x="-128.79" y="-96.79" width="710.077" height="357.22"/>
			</defs>
			<clipPath id="SVGID_138_">
				<use xlink:href="#SVGID_137_"  overflow="visible"/>
			</clipPath>
			
				<path clip-path="url(#SVGID_138_)" fill="none" stroke="#0000FF" stroke-width="0.71" stroke-linecap="round" stroke-linejoin="round" stroke-miterlimit="10" d="
				M431.189-13.25c0-2.14,1.76-3.902,3.92-3.902c2.141,0,3.9,1.763,3.9,3.902c0,2.16-1.76,3.918-3.9,3.918
				C432.949-9.332,431.189-11.088,431.189-13.25"/>
		</g>
		<g>
			<defs>
				<rect id="SVGID_139_" x="-128.79" y="-96.79" width="710.077" height="357.22"/>
			</defs>
			<clipPath id="SVGID_140_">
				<use xlink:href="#SVGID_139_"  overflow="visible"/>
			</clipPath>
			<path clip-path="url(#SVGID_140_)" fill="#0000FF" d="M469.17-32.97c0-2.16,1.76-3.92,3.9-3.92c2.16,0,3.92,1.76,3.92,3.92
				c0,2.138-1.76,3.899-3.92,3.899C470.93-29.07,469.17-30.832,469.17-32.97"/>
		</g>
		<g>
			<defs>
				<rect id="SVGID_141_" x="-128.79" y="-96.79" width="710.077" height="357.22"/>
			</defs>
			<clipPath id="SVGID_142_">
				<use xlink:href="#SVGID_141_"  overflow="visible"/>
			</clipPath>
			
				<path clip-path="url(#SVGID_142_)" fill="none" stroke="#0000FF" stroke-width="0.71" stroke-linecap="round" stroke-linejoin="round" stroke-miterlimit="10" d="
				M469.17-32.97c0-2.16,1.76-3.92,3.9-3.92c2.16,0,3.92,1.76,3.92,3.92c0,2.138-1.76,3.899-3.92,3.899
				C470.93-29.07,469.17-30.832,469.17-32.97"/>
		</g>
		<g>
			<defs>
				<rect id="SVGID_143_" x="-128.79" y="-96.79" width="710.077" height="357.22"/>
			</defs>
			<clipPath id="SVGID_144_">
				<use xlink:href="#SVGID_143_"  overflow="visible"/>
			</clipPath>
			<path clip-path="url(#SVGID_144_)" fill="#0000FF" d="M507.131-75.25c0-2.14,1.76-3.9,3.92-3.9c2.137,0,3.896,1.761,3.896,3.9
				c0,2.16-1.76,3.92-3.896,3.92C508.891-71.33,507.131-73.09,507.131-75.25"/>
		</g>
		<g>
			<defs>
				<rect id="SVGID_145_" x="-128.79" y="-96.79" width="710.077" height="357.22"/>
			</defs>
			<clipPath id="SVGID_146_">
				<use xlink:href="#SVGID_145_"  overflow="visible"/>
			</clipPath>
			
				<path clip-path="url(#SVGID_146_)" fill="none" stroke="#0000FF" stroke-width="0.71" stroke-linecap="round" stroke-linejoin="round" stroke-miterlimit="10" d="
				M507.131-75.25c0-2.14,1.76-3.9,3.92-3.9c2.137,0,3.896,1.761,3.896,3.9c0,2.16-1.76,3.92-3.896,3.92
				C508.891-71.33,507.131-73.09,507.131-75.25"/>
		</g>
		<g>
			<defs>
				<rect id="SVGID_147_" x="-128.79" y="-96.79" width="710.077" height="357.22"/>
			</defs>
			<clipPath id="SVGID_148_">
				<use xlink:href="#SVGID_147_"  overflow="visible"/>
			</clipPath>
			<path clip-path="url(#SVGID_148_)" fill="#0000FF" d="M545.109-64.35c0-2.16,1.76-3.92,3.92-3.92c2.141,0,3.9,1.76,3.9,3.92
				c0,2.14-1.76,3.899-3.9,3.899C546.869-60.45,545.109-62.21,545.109-64.35"/>
		</g>
		<g>
			<defs>
				<rect id="SVGID_149_" x="-128.79" y="-96.79" width="710.077" height="357.22"/>
			</defs>
			<clipPath id="SVGID_150_">
				<use xlink:href="#SVGID_149_"  overflow="visible"/>
			</clipPath>
			
				<path clip-path="url(#SVGID_150_)" fill="none" stroke="#0000FF" stroke-width="0.71" stroke-linecap="round" stroke-linejoin="round" stroke-miterlimit="10" d="
				M545.109-64.35c0-2.16,1.76-3.92,3.92-3.92c2.141,0,3.9,1.76,3.9,3.92c0,2.14-1.76,3.899-3.9,3.899
				C546.869-60.45,545.109-62.21,545.109-64.35"/>
		</g>
	</g>
	
		<line fill="none" stroke="#000000" stroke-width="0.5" stroke-linejoin="round" stroke-miterlimit="10" x1="-128.79" y1="260.43" x2="-128.79" y2="-96.79"/>
	<text transform="matrix(1 0 0 1 -178.6699 226.6094)" font-family="'ArialMT'" font-size="18">1000</text>
	<text transform="matrix(1 0 0 1 -178.6699 158.25)" font-family="'ArialMT'" font-size="18">2000</text>
	<text transform="matrix(1 0 0 1 -178.6699 89.8711)" font-family="'ArialMT'" font-size="18">3000</text>
	<text transform="matrix(1 0 0 1 -178.6699 21.4902)" font-family="'ArialMT'" font-size="18">4000</text>
	<text transform="matrix(1 0 0 1 -178.6699 -46.8711)" font-family="'ArialMT'" font-size="18">5000</text>
	
		<line fill="none" stroke="#333333" stroke-width="0.5" stroke-linejoin="round" stroke-miterlimit="10" x1="-134.27" y1="220.15" x2="-128.79" y2="220.15"/>
	
		<line fill="none" stroke="#333333" stroke-width="0.5" stroke-linejoin="round" stroke-miterlimit="10" x1="-134.27" y1="151.789" x2="-128.79" y2="151.789"/>
	
		<line fill="none" stroke="#333333" stroke-width="0.5" stroke-linejoin="round" stroke-miterlimit="10" x1="-134.27" y1="83.412" x2="-128.79" y2="83.412"/>
	
		<line fill="none" stroke="#333333" stroke-width="0.5" stroke-linejoin="round" stroke-miterlimit="10" x1="-134.27" y1="15.03" x2="-128.79" y2="15.03"/>
	
		<line fill="none" stroke="#333333" stroke-width="0.5" stroke-linejoin="round" stroke-miterlimit="10" x1="-134.27" y1="-53.35" x2="-128.79" y2="-53.35"/>
	
		<line fill="none" stroke="#000000" stroke-width="0.5" stroke-linejoin="round" stroke-miterlimit="10" x1="581.289" y1="260.43" x2="581.289" y2="-96.79"/>
	
		<line fill="none" stroke="#333333" stroke-width="0.5" stroke-linejoin="round" stroke-miterlimit="10" x1="581.289" y1="254.348" x2="586.77" y2="254.348"/>
	
		<line fill="none" stroke="#333333" stroke-width="0.5" stroke-linejoin="round" stroke-miterlimit="10" x1="581.289" y1="220.027" x2="586.77" y2="220.027"/>
	
		<line fill="none" stroke="#333333" stroke-width="0.5" stroke-linejoin="round" stroke-miterlimit="10" x1="581.289" y1="186.051" x2="586.77" y2="186.051"/>
	
		<line fill="none" stroke="#333333" stroke-width="0.5" stroke-linejoin="round" stroke-miterlimit="10" x1="581.289" y1="151.732" x2="586.77" y2="151.732"/>
	
		<line fill="none" stroke="#333333" stroke-width="0.5" stroke-linejoin="round" stroke-miterlimit="10" x1="581.289" y1="117.75" x2="586.77" y2="117.75"/>
	
		<line fill="none" stroke="#333333" stroke-width="0.5" stroke-linejoin="round" stroke-miterlimit="10" x1="581.289" y1="83.43" x2="586.77" y2="83.43"/>
	
		<line fill="none" stroke="#333333" stroke-width="0.5" stroke-linejoin="round" stroke-miterlimit="10" x1="581.289" y1="49.11" x2="586.77" y2="49.11"/>
	
		<line fill="none" stroke="#333333" stroke-width="0.5" stroke-linejoin="round" stroke-miterlimit="10" x1="581.289" y1="15.13" x2="586.77" y2="15.13"/>
	
		<line fill="none" stroke="#333333" stroke-width="0.5" stroke-linejoin="round" stroke-miterlimit="10" x1="581.289" y1="-19.189" x2="586.77" y2="-19.189"/>
	
		<line fill="none" stroke="#333333" stroke-width="0.5" stroke-linejoin="round" stroke-miterlimit="10" x1="581.289" y1="-53.17" x2="586.77" y2="-53.17"/>
	<text transform="matrix(1 0 0 1 591.1504 260.8125)" font-family="'ArialMT'" font-size="18">1</text>
	<text transform="matrix(1 0 0 1 591.1504 226.4922)" font-family="'ArialMT'" font-size="18">2</text>
	<text transform="matrix(1 0 0 1 591.1504 192.5117)" font-family="'ArialMT'" font-size="18">3</text>
	<text transform="matrix(1 0 0 1 591.1504 158.1914)" font-family="'ArialMT'" font-size="18">4</text>
	<text transform="matrix(1 0 0 1 591.1504 124.2109)" font-family="'ArialMT'" font-size="18">5</text>
	<text transform="matrix(1 0 0 1 591.1504 89.8906)" font-family="'ArialMT'" font-size="18">6</text>
	<text transform="matrix(1 0 0 1 591.1504 55.5703)" font-family="'ArialMT'" font-size="18">7</text>
	<text transform="matrix(1 0 0 1 591.1504 21.5898)" font-family="'ArialMT'" font-size="18">8</text>
	<text transform="matrix(1 0 0 1 591.1504 -12.7305)" font-family="'ArialMT'" font-size="18">9</text>
	<text transform="matrix(1 0 0 1 591.1504 -46.7109)" font-family="'ArialMT'" font-size="18">10</text>
	
		<line fill="none" stroke="#000000" stroke-width="0.5" stroke-linejoin="round" stroke-miterlimit="10" x1="-128.79" y1="260.43" x2="581.289" y2="260.43"/>
	
		<line fill="none" stroke="#333333" stroke-width="0.5" stroke-linejoin="round" stroke-miterlimit="10" x1="-96.51" y1="265.912" x2="-96.51" y2="260.43"/>
	
		<line fill="none" stroke="#333333" stroke-width="0.5" stroke-linejoin="round" stroke-miterlimit="10" x1="-58.532" y1="265.912" x2="-58.532" y2="260.43"/>
	
		<line fill="none" stroke="#333333" stroke-width="0.5" stroke-linejoin="round" stroke-miterlimit="10" x1="-20.57" y1="265.912" x2="-20.57" y2="260.43"/>
	
		<line fill="none" stroke="#333333" stroke-width="0.5" stroke-linejoin="round" stroke-miterlimit="10" x1="17.41" y1="265.912" x2="17.41" y2="260.43"/>
	
		<line fill="none" stroke="#333333" stroke-width="0.5" stroke-linejoin="round" stroke-miterlimit="10" x1="55.39" y1="265.912" x2="55.39" y2="260.43"/>
	
		<line fill="none" stroke="#333333" stroke-width="0.5" stroke-linejoin="round" stroke-miterlimit="10" x1="93.35" y1="265.912" x2="93.35" y2="260.43"/>
	
		<line fill="none" stroke="#333333" stroke-width="0.5" stroke-linejoin="round" stroke-miterlimit="10" x1="131.33" y1="265.912" x2="131.33" y2="260.43"/>
	
		<line fill="none" stroke="#333333" stroke-width="0.5" stroke-linejoin="round" stroke-miterlimit="10" x1="169.29" y1="265.912" x2="169.29" y2="260.43"/>
	
		<line fill="none" stroke="#333333" stroke-width="0.5" stroke-linejoin="round" stroke-miterlimit="10" x1="207.27" y1="265.912" x2="207.27" y2="260.43"/>
	
		<line fill="none" stroke="#333333" stroke-width="0.5" stroke-linejoin="round" stroke-miterlimit="10" x1="245.25" y1="265.912" x2="245.25" y2="260.43"/>
	
		<line fill="none" stroke="#333333" stroke-width="0.5" stroke-linejoin="round" stroke-miterlimit="10" x1="283.211" y1="265.912" x2="283.211" y2="260.43"/>
	
		<line fill="none" stroke="#333333" stroke-width="0.5" stroke-linejoin="round" stroke-miterlimit="10" x1="321.191" y1="265.912" x2="321.191" y2="260.43"/>
	
		<line fill="none" stroke="#333333" stroke-width="0.5" stroke-linejoin="round" stroke-miterlimit="10" x1="359.17" y1="265.912" x2="359.17" y2="260.43"/>
	
		<line fill="none" stroke="#333333" stroke-width="0.5" stroke-linejoin="round" stroke-miterlimit="10" x1="397.131" y1="265.912" x2="397.131" y2="260.43"/>
	
		<line fill="none" stroke="#333333" stroke-width="0.5" stroke-linejoin="round" stroke-miterlimit="10" x1="435.109" y1="265.912" x2="435.109" y2="260.43"/>
	
		<line fill="none" stroke="#333333" stroke-width="0.5" stroke-linejoin="round" stroke-miterlimit="10" x1="473.07" y1="265.912" x2="473.07" y2="260.43"/>
	
		<line fill="none" stroke="#333333" stroke-width="0.5" stroke-linejoin="round" stroke-miterlimit="10" x1="511.051" y1="265.912" x2="511.051" y2="260.43"/>
	
		<line fill="none" stroke="#333333" stroke-width="0.5" stroke-linejoin="round" stroke-miterlimit="10" x1="549.029" y1="265.912" x2="549.029" y2="260.43"/>
	<text transform="matrix(1 0 0 1 -101.5098 283.2109)" font-family="'ArialMT'" font-size="18">1</text>
	<text transform="matrix(1 0 0 1 -63.5303 283.2109)" font-family="'ArialMT'" font-size="18">2</text>
	<text transform="matrix(1 0 0 1 -25.5703 283.2109)" font-family="'ArialMT'" font-size="18">3</text>
	<text transform="matrix(1 0 0 1 12.4102 283.2109)" font-family="'ArialMT'" font-size="18">4</text>
	<text transform="matrix(1 0 0 1 50.3701 283.2109)" font-family="'ArialMT'" font-size="18">5</text>
	<text transform="matrix(1 0 0 1 88.3496 283.2109)" font-family="'ArialMT'" font-size="18">6</text>
	<text transform="matrix(1 0 0 1 126.3301 283.2109)" font-family="'ArialMT'" font-size="18">7</text>
	<text transform="matrix(1 0 0 1 164.29 283.2109)" font-family="'ArialMT'" font-size="18">8</text>
	<text transform="matrix(1 0 0 1 202.2695 283.2109)" font-family="'ArialMT'" font-size="18">9</text>
	<text transform="matrix(1 0 0 1 235.2305 283.2109)" font-family="'ArialMT'" font-size="18">10</text>
	<text transform="matrix(1 0 0 1 273.2109 283.2109)" font-family="'ArialMT'" font-size="18">11</text>
	<text transform="matrix(1 0 0 1 311.1895 283.2109)" font-family="'ArialMT'" font-size="18">12</text>
	<text transform="matrix(1 0 0 1 349.1504 283.2109)" font-family="'ArialMT'" font-size="18">13</text>
	<text transform="matrix(1 0 0 1 387.1309 283.2109)" font-family="'ArialMT'" font-size="18">14</text>
	<text transform="matrix(1 0 0 1 425.0898 283.2109)" font-family="'ArialMT'" font-size="18">15</text>
	<text transform="matrix(1 0 0 1 463.0703 283.2109)" font-family="'ArialMT'" font-size="18">16</text>
	<text transform="matrix(1 0 0 1 501.0508 283.2109)" font-family="'ArialMT'" font-size="18">17</text>
	<text transform="matrix(1 0 0 1 539.0098 283.2109)" font-family="'ArialMT'" font-size="18">18</text>
	<text transform="matrix(1 0 0 1 189.5703 308.4492)" font-family="'ArialMT'" font-size="22">threads</text>
	<text transform="matrix(0 -1 1 0 -188.9902 198.9141)" fill="#ED1C24" font-family="'ArialMT'" font-size="22">running time (seconds)</text>
	<text transform="matrix(0 1 -1 0 616.6484 15.4902)" fill="#0000FF" font-family="'ArialMT'" font-size="22">Memo</text>
	<text transform="matrix(0 1 -1 0 616.6484 76.6133)" fill="#0000FF" font-family="'ArialMT'" font-size="22">r</text>
	<text transform="matrix(0 1 -1 0 616.6484 84.5781)" fill="#0000FF" font-family="'ArialMT'" font-size="22">y (GB)</text>
</g>
</svg>
